<svg width="83" height="75" viewBox="0 0 83 75" fill="none" xmlns="http://www.w3.org/2000/svg">
<rect x="0.5" width="82" height="75" rx="15" fill="#157B01"/>
<path d="M36.268 47.392C35.092 47.392 34.0093 47.1773 33.02 46.748C32.0493 46.3187 31.2187 45.7027 30.528 44.9C29.8373 44.0787 29.3053 43.08 28.932 41.904C28.5587 40.7093 28.372 39.356 28.372 37.844C28.372 35.716 28.7173 33.9333 29.408 32.496C30.0987 31.0587 31.0507 29.976 32.264 29.248C33.4773 28.52 34.8493 28.156 36.38 28.156C37.9667 28.156 39.348 28.5293 40.524 29.276C41.7187 30.0227 42.6333 31.1147 43.268 32.552C43.9213 33.9707 44.248 35.7067 44.248 37.76C44.248 39.3093 44.052 40.6907 43.66 41.904C43.2867 43.0987 42.7453 44.1067 42.036 44.928C41.3267 45.7307 40.4867 46.3467 39.516 46.776C38.5453 47.1867 37.4627 47.392 36.268 47.392ZM36.352 44.2C36.8373 44.2 37.304 44.088 37.752 43.864C38.2187 43.64 38.6387 43.2853 39.012 42.8C39.3853 42.296 39.684 41.652 39.908 40.868C40.132 40.0653 40.244 39.076 40.244 37.9C40.244 36.5 40.076 35.3147 39.74 34.344C39.404 33.3547 38.9467 32.608 38.368 32.104C37.7893 31.5813 37.108 31.32 36.324 31.32C35.708 31.32 35.1013 31.5253 34.504 31.936C33.9067 32.328 33.4027 32.9907 32.992 33.924C32.6 34.8573 32.404 36.136 32.404 37.76C32.404 38.8987 32.5067 39.8787 32.712 40.7C32.936 41.5027 33.2253 42.1653 33.58 42.688C33.9533 43.192 34.3733 43.5747 34.84 43.836C35.3253 44.0787 35.8293 44.2 36.352 44.2ZM49.2051 47V34.344H46.4891V30.816C47.3664 30.816 48.0851 30.6667 48.6451 30.368C49.2238 30.0507 49.5971 29.4347 49.7651 28.52H53.2651V47H49.2051Z" fill="white"/>
</svg>
