<svg width="82" height="75" viewBox="0 0 82 75" fill="none" xmlns="http://www.w3.org/2000/svg">
<rect width="82" height="75" rx="15" fill="#114906"/>
<path d="M35.768 47.392C34.592 47.392 33.5093 47.1773 32.52 46.748C31.5493 46.3187 30.7187 45.7027 30.028 44.9C29.3373 44.0787 28.8053 43.08 28.432 41.904C28.0587 40.7093 27.872 39.356 27.872 37.844C27.872 35.716 28.2173 33.9333 28.908 32.496C29.5987 31.0587 30.5507 29.976 31.764 29.248C32.9773 28.52 34.3493 28.156 35.88 28.156C37.4667 28.156 38.848 28.5293 40.024 29.276C41.2187 30.0227 42.1333 31.1147 42.768 32.552C43.4213 33.9707 43.748 35.7067 43.748 37.76C43.748 39.3093 43.552 40.6907 43.16 41.904C42.7867 43.0987 42.2453 44.1067 41.536 44.928C40.8267 45.7307 39.9867 46.3467 39.016 46.776C38.0453 47.1867 36.9627 47.392 35.768 47.392ZM35.852 44.2C36.3373 44.2 36.804 44.088 37.252 43.864C37.7187 43.64 38.1387 43.2853 38.512 42.8C38.8853 42.296 39.184 41.652 39.408 40.868C39.632 40.0653 39.744 39.076 39.744 37.9C39.744 36.5 39.576 35.3147 39.24 34.344C38.904 33.3547 38.4467 32.608 37.868 32.104C37.2893 31.5813 36.608 31.32 35.824 31.32C35.208 31.32 34.6013 31.5253 34.004 31.936C33.4067 32.328 32.9027 32.9907 32.492 33.924C32.1 34.8573 31.904 36.136 31.904 37.76C31.904 38.8987 32.0067 39.8787 32.212 40.7C32.436 41.5027 32.7253 42.1653 33.08 42.688C33.4533 43.192 33.8733 43.5747 34.34 43.836C34.8253 44.0787 35.3293 44.2 35.852 44.2ZM48.7051 47V34.344H45.9891V30.816C46.8664 30.816 47.5851 30.6667 48.1451 30.368C48.7238 30.0507 49.0971 29.4347 49.2651 28.52H52.7651V47H48.7051Z" fill="white"/>
</svg>
