<svg width="83" height="75" viewBox="0 0 83 75" fill="none" xmlns="http://www.w3.org/2000/svg">
<rect x="0.5" width="82" height="75" rx="15" fill="#157B01"/>
<path d="M32.768 47.392C31.592 47.392 30.5093 47.1773 29.52 46.748C28.5493 46.3187 27.7187 45.7027 27.028 44.9C26.3373 44.0787 25.8053 43.08 25.432 41.904C25.0587 40.7093 24.872 39.356 24.872 37.844C24.872 35.716 25.2173 33.9333 25.908 32.496C26.5987 31.0587 27.5507 29.976 28.764 29.248C29.9773 28.52 31.3493 28.156 32.88 28.156C34.4667 28.156 35.848 28.5293 37.024 29.276C38.2187 30.0227 39.1333 31.1147 39.768 32.552C40.4213 33.9707 40.748 35.7067 40.748 37.76C40.748 39.3093 40.552 40.6907 40.16 41.904C39.7867 43.0987 39.2453 44.1067 38.536 44.928C37.8267 45.7307 36.9867 46.3467 36.016 46.776C35.0453 47.1867 33.9627 47.392 32.768 47.392ZM32.852 44.2C33.3373 44.2 33.804 44.088 34.252 43.864C34.7187 43.64 35.1387 43.2853 35.512 42.8C35.8853 42.296 36.184 41.652 36.408 40.868C36.632 40.0653 36.744 39.076 36.744 37.9C36.744 36.5 36.576 35.3147 36.24 34.344C35.904 33.3547 35.4467 32.608 34.868 32.104C34.2893 31.5813 33.608 31.32 32.824 31.32C32.208 31.32 31.6013 31.5253 31.004 31.936C30.4067 32.328 29.9027 32.9907 29.492 33.924C29.1 34.8573 28.904 36.136 28.904 37.76C28.904 38.8987 29.0067 39.8787 29.212 40.7C29.436 41.5027 29.7253 42.1653 30.08 42.688C30.4533 43.192 30.8733 43.5747 31.34 43.836C31.8253 44.0787 32.3293 44.2 32.852 44.2ZM43.2704 47V42.884L50.4384 38.152C50.7744 37.9467 51.1104 37.704 51.4464 37.424C51.8011 37.144 52.1184 36.8267 52.3984 36.472C52.6971 36.1173 52.9397 35.7347 53.1264 35.324C53.3131 34.8947 53.4064 34.428 53.4064 33.924C53.4064 33.42 53.2851 32.9813 53.0424 32.608C52.8184 32.2347 52.4824 31.9547 52.0344 31.768C51.6051 31.5627 51.0731 31.46 50.4384 31.46C49.8037 31.46 49.2717 31.5627 48.8424 31.768C48.4317 31.9547 48.0957 32.2347 47.8344 32.608C47.5917 32.9627 47.4144 33.392 47.3024 33.896C47.2091 34.4 47.1624 34.9507 47.1624 35.548L43.2984 34.764C43.2611 33.3827 43.5224 32.1973 44.0824 31.208C44.6611 30.2 45.4917 29.4253 46.5744 28.884C47.6571 28.3427 48.9731 28.072 50.5224 28.072C51.8664 28.072 53.0517 28.2867 54.0784 28.716C55.1237 29.1267 55.9357 29.752 56.5144 30.592C57.0931 31.4133 57.3824 32.4307 57.3824 33.644C57.3824 34.5773 57.2237 35.4173 56.9064 36.164C56.6077 36.9107 56.2064 37.5827 55.7024 38.18C55.2171 38.7587 54.6757 39.272 54.0784 39.72C53.4997 40.168 52.9304 40.56 52.3704 40.896L47.9464 43.612V43.864L57.6904 43.724V47H43.2704Z" fill="white"/>
</svg>
