<svg width="82" height="75" viewBox="0 0 82 75" fill="none" xmlns="http://www.w3.org/2000/svg">
<rect width="82" height="75" rx="15" fill="#114906"/>
<path d="M32.268 47.392C31.092 47.392 30.0093 47.1773 29.02 46.748C28.0493 46.3187 27.2187 45.7027 26.528 44.9C25.8373 44.0787 25.3053 43.08 24.932 41.904C24.5587 40.7093 24.372 39.356 24.372 37.844C24.372 35.716 24.7173 33.9333 25.408 32.496C26.0987 31.0587 27.0507 29.976 28.264 29.248C29.4773 28.52 30.8493 28.156 32.38 28.156C33.9667 28.156 35.348 28.5293 36.524 29.276C37.7187 30.0227 38.6333 31.1147 39.268 32.552C39.9213 33.9707 40.248 35.7067 40.248 37.76C40.248 39.3093 40.052 40.6907 39.66 41.904C39.2867 43.0987 38.7453 44.1067 38.036 44.928C37.3267 45.7307 36.4867 46.3467 35.516 46.776C34.5453 47.1867 33.4627 47.392 32.268 47.392ZM32.352 44.2C32.8373 44.2 33.304 44.088 33.752 43.864C34.2187 43.64 34.6387 43.2853 35.012 42.8C35.3853 42.296 35.684 41.652 35.908 40.868C36.132 40.0653 36.244 39.076 36.244 37.9C36.244 36.5 36.076 35.3147 35.74 34.344C35.404 33.3547 34.9467 32.608 34.368 32.104C33.7893 31.5813 33.108 31.32 32.324 31.32C31.708 31.32 31.1013 31.5253 30.504 31.936C29.9067 32.328 29.4027 32.9907 28.992 33.924C28.6 34.8573 28.404 36.136 28.404 37.76C28.404 38.8987 28.5067 39.8787 28.712 40.7C28.936 41.5027 29.2253 42.1653 29.58 42.688C29.9533 43.192 30.3733 43.5747 30.84 43.836C31.3253 44.0787 31.8293 44.2 32.352 44.2ZM42.7704 47V42.884L49.9384 38.152C50.2744 37.9467 50.6104 37.704 50.9464 37.424C51.3011 37.144 51.6184 36.8267 51.8984 36.472C52.1971 36.1173 52.4397 35.7347 52.6264 35.324C52.8131 34.8947 52.9064 34.428 52.9064 33.924C52.9064 33.42 52.7851 32.9813 52.5424 32.608C52.3184 32.2347 51.9824 31.9547 51.5344 31.768C51.1051 31.5627 50.5731 31.46 49.9384 31.46C49.3037 31.46 48.7717 31.5627 48.3424 31.768C47.9317 31.9547 47.5957 32.2347 47.3344 32.608C47.0917 32.9627 46.9144 33.392 46.8024 33.896C46.7091 34.4 46.6624 34.9507 46.6624 35.548L42.7984 34.764C42.7611 33.3827 43.0224 32.1973 43.5824 31.208C44.1611 30.2 44.9917 29.4253 46.0744 28.884C47.1571 28.3427 48.4731 28.072 50.0224 28.072C51.3664 28.072 52.5517 28.2867 53.5784 28.716C54.6237 29.1267 55.4357 29.752 56.0144 30.592C56.5931 31.4133 56.8824 32.4307 56.8824 33.644C56.8824 34.5773 56.7237 35.4173 56.4064 36.164C56.1077 36.9107 55.7064 37.5827 55.2024 38.18C54.7171 38.7587 54.1757 39.272 53.5784 39.72C52.9997 40.168 52.4304 40.56 51.8704 40.896L47.4464 43.612V43.864L57.1904 43.724V47H42.7704Z" fill="white"/>
</svg>
