<svg width="83" height="75" viewBox="0 0 83 75" fill="none" xmlns="http://www.w3.org/2000/svg">
<rect x="0.5" width="82" height="75" rx="15" fill="#157B01"/>
<path d="M32.768 47.392C31.592 47.392 30.5093 47.1773 29.52 46.748C28.5493 46.3187 27.7187 45.7027 27.028 44.9C26.3373 44.0787 25.8053 43.08 25.432 41.904C25.0587 40.7093 24.872 39.356 24.872 37.844C24.872 35.716 25.2173 33.9333 25.908 32.496C26.5987 31.0587 27.5507 29.976 28.764 29.248C29.9773 28.52 31.3493 28.156 32.88 28.156C34.4667 28.156 35.848 28.5293 37.024 29.276C38.2187 30.0227 39.1333 31.1147 39.768 32.552C40.4213 33.9707 40.748 35.7067 40.748 37.76C40.748 39.3093 40.552 40.6907 40.16 41.904C39.7867 43.0987 39.2453 44.1067 38.536 44.928C37.8267 45.7307 36.9867 46.3467 36.016 46.776C35.0453 47.1867 33.9627 47.392 32.768 47.392ZM32.852 44.2C33.3373 44.2 33.804 44.088 34.252 43.864C34.7187 43.64 35.1387 43.2853 35.512 42.8C35.8853 42.296 36.184 41.652 36.408 40.868C36.632 40.0653 36.744 39.076 36.744 37.9C36.744 36.5 36.576 35.3147 36.24 34.344C35.904 33.3547 35.4467 32.608 34.868 32.104C34.2893 31.5813 33.608 31.32 32.824 31.32C32.208 31.32 31.6013 31.5253 31.004 31.936C30.4067 32.328 29.9027 32.9907 29.492 33.924C29.1 34.8573 28.904 36.136 28.904 37.76C28.904 38.8987 29.0067 39.8787 29.212 40.7C29.436 41.5027 29.7253 42.1653 30.08 42.688C30.4533 43.192 30.8733 43.5747 31.34 43.836C31.8253 44.0787 32.3293 44.2 32.852 44.2ZM50.1858 47.392C48.9724 47.392 47.9084 47.2707 46.9938 47.028C46.0978 46.7853 45.3511 46.4307 44.7538 45.964C44.1564 45.4973 43.6898 44.928 43.3538 44.256C43.0178 43.584 42.8124 42.8373 42.7378 42.016L46.3778 40.868C46.4151 41.4467 46.5364 41.9507 46.7418 42.38C46.9471 42.8093 47.2178 43.164 47.5538 43.444C47.8898 43.724 48.2911 43.9293 48.7578 44.06C49.2244 44.1907 49.7284 44.256 50.2698 44.256C50.9791 44.256 51.6044 44.1533 52.1458 43.948C52.7058 43.7427 53.1351 43.4253 53.4338 42.996C53.7511 42.5667 53.9098 42.0253 53.9098 41.372C53.9098 40.5507 53.6298 39.8787 53.0698 39.356C52.5098 38.8333 51.6791 38.4787 50.5778 38.292C49.4764 38.0867 48.0951 38.0587 46.4338 38.208V35.912L52.6498 31.936V31.684L43.6618 31.768V28.492H56.7098V32.272L50.8858 36.192V36.444C52.6591 36.3507 54.0498 36.528 55.0578 36.976C56.0844 37.424 56.8124 38.0587 57.2418 38.88C57.6898 39.6827 57.9137 40.56 57.9137 41.512C57.9137 42.7067 57.6338 43.7427 57.0738 44.62C56.5138 45.4973 55.6644 46.1787 54.5258 46.664C53.3871 47.1493 51.9404 47.392 50.1858 47.392Z" fill="white"/>
</svg>
