<svg width="82" height="75" viewBox="0 0 82 75" fill="none" xmlns="http://www.w3.org/2000/svg">
<rect width="82" height="75" rx="15" fill="#114906"/>
<path d="M32.268 47.392C31.092 47.392 30.0093 47.1773 29.02 46.748C28.0493 46.3187 27.2187 45.7027 26.528 44.9C25.8373 44.0787 25.3053 43.08 24.932 41.904C24.5587 40.7093 24.372 39.356 24.372 37.844C24.372 35.716 24.7173 33.9333 25.408 32.496C26.0987 31.0587 27.0507 29.976 28.264 29.248C29.4773 28.52 30.8493 28.156 32.38 28.156C33.9667 28.156 35.348 28.5293 36.524 29.276C37.7187 30.0227 38.6333 31.1147 39.268 32.552C39.9213 33.9707 40.248 35.7067 40.248 37.76C40.248 39.3093 40.052 40.6907 39.66 41.904C39.2867 43.0987 38.7453 44.1067 38.036 44.928C37.3267 45.7307 36.4867 46.3467 35.516 46.776C34.5453 47.1867 33.4627 47.392 32.268 47.392ZM32.352 44.2C32.8373 44.2 33.304 44.088 33.752 43.864C34.2187 43.64 34.6387 43.2853 35.012 42.8C35.3853 42.296 35.684 41.652 35.908 40.868C36.132 40.0653 36.244 39.076 36.244 37.9C36.244 36.5 36.076 35.3147 35.74 34.344C35.404 33.3547 34.9467 32.608 34.368 32.104C33.7893 31.5813 33.108 31.32 32.324 31.32C31.708 31.32 31.1013 31.5253 30.504 31.936C29.9067 32.328 29.4027 32.9907 28.992 33.924C28.6 34.8573 28.404 36.136 28.404 37.76C28.404 38.8987 28.5067 39.8787 28.712 40.7C28.936 41.5027 29.2253 42.1653 29.58 42.688C29.9533 43.192 30.3733 43.5747 30.84 43.836C31.3253 44.0787 31.8293 44.2 32.352 44.2ZM49.6858 47.392C48.4724 47.392 47.4084 47.2707 46.4938 47.028C45.5978 46.7853 44.8511 46.4307 44.2538 45.964C43.6564 45.4973 43.1898 44.928 42.8538 44.256C42.5178 43.584 42.3124 42.8373 42.2378 42.016L45.8778 40.868C45.9151 41.4467 46.0364 41.9507 46.2418 42.38C46.4471 42.8093 46.7178 43.164 47.0538 43.444C47.3898 43.724 47.7911 43.9293 48.2578 44.06C48.7244 44.1907 49.2284 44.256 49.7698 44.256C50.4791 44.256 51.1044 44.1533 51.6458 43.948C52.2058 43.7427 52.6351 43.4253 52.9338 42.996C53.2511 42.5667 53.4098 42.0253 53.4098 41.372C53.4098 40.5507 53.1298 39.8787 52.5698 39.356C52.0098 38.8333 51.1791 38.4787 50.0778 38.292C48.9764 38.0867 47.5951 38.0587 45.9338 38.208V35.912L52.1498 31.936V31.684L43.1618 31.768V28.492H56.2098V32.272L50.3858 36.192V36.444C52.1591 36.3507 53.5498 36.528 54.5578 36.976C55.5844 37.424 56.3124 38.0587 56.7418 38.88C57.1898 39.6827 57.4137 40.56 57.4137 41.512C57.4137 42.7067 57.1338 43.7427 56.5738 44.62C56.0138 45.4973 55.1644 46.1787 54.0258 46.664C52.8871 47.1493 51.4404 47.392 49.6858 47.392Z" fill="white"/>
</svg>
