<svg width="83" height="75" viewBox="0 0 83 75" fill="none" xmlns="http://www.w3.org/2000/svg">
<rect x="0.5" width="82" height="75" rx="15" fill="#157B01"/>
<path d="M32.268 47.392C31.092 47.392 30.0093 47.1773 29.02 46.748C28.0493 46.3187 27.2187 45.7027 26.528 44.9C25.8373 44.0787 25.3053 43.08 24.932 41.904C24.5587 40.7093 24.372 39.356 24.372 37.844C24.372 35.716 24.7173 33.9333 25.408 32.496C26.0987 31.0587 27.0507 29.976 28.264 29.248C29.4773 28.52 30.8493 28.156 32.38 28.156C33.9667 28.156 35.348 28.5293 36.524 29.276C37.7187 30.0227 38.6333 31.1147 39.268 32.552C39.9213 33.9707 40.248 35.7067 40.248 37.76C40.248 39.3093 40.052 40.6907 39.66 41.904C39.2867 43.0987 38.7453 44.1067 38.036 44.928C37.3267 45.7307 36.4867 46.3467 35.516 46.776C34.5453 47.1867 33.4627 47.392 32.268 47.392ZM32.352 44.2C32.8373 44.2 33.304 44.088 33.752 43.864C34.2187 43.64 34.6387 43.2853 35.012 42.8C35.3853 42.296 35.684 41.652 35.908 40.868C36.132 40.0653 36.244 39.076 36.244 37.9C36.244 36.5 36.076 35.3147 35.74 34.344C35.404 33.3547 34.9467 32.608 34.368 32.104C33.7893 31.5813 33.108 31.32 32.324 31.32C31.708 31.32 31.1013 31.5253 30.504 31.936C29.9067 32.328 29.4027 32.9907 28.992 33.924C28.6 34.8573 28.404 36.136 28.404 37.76C28.404 38.8987 28.5067 39.8787 28.712 40.7C28.936 41.5027 29.2253 42.1653 29.58 42.688C29.9533 43.192 30.3733 43.5747 30.84 43.836C31.3253 44.0787 31.8293 44.2 32.352 44.2ZM42.3478 43.36V39.468C43.2624 38.404 44.0744 37.3867 44.7838 36.416C45.4931 35.4453 46.1091 34.5213 46.6318 33.644C47.1731 32.748 47.6304 31.8707 48.0038 31.012C48.3771 30.1533 48.7038 29.3133 48.9838 28.492H55.9558V47H51.9798V31.18H51.6998C51.2331 32.3373 50.7104 33.4293 50.1318 34.456C49.5718 35.464 48.9651 36.416 48.3118 37.312C47.6771 38.208 47.0051 39.0667 46.2958 39.888V40.168H58.5038V43.36H42.3478Z" fill="white"/>
</svg>
