<svg width="82" height="75" viewBox="0 0 82 75" fill="none" xmlns="http://www.w3.org/2000/svg">
<rect width="82" height="75" rx="15" fill="#114906"/>
<path d="M31.768 47.392C30.592 47.392 29.5093 47.1773 28.52 46.748C27.5493 46.3187 26.7187 45.7027 26.028 44.9C25.3373 44.0787 24.8053 43.08 24.432 41.904C24.0587 40.7093 23.872 39.356 23.872 37.844C23.872 35.716 24.2173 33.9333 24.908 32.496C25.5987 31.0587 26.5507 29.976 27.764 29.248C28.9773 28.52 30.3493 28.156 31.88 28.156C33.4667 28.156 34.848 28.5293 36.024 29.276C37.2187 30.0227 38.1333 31.1147 38.768 32.552C39.4213 33.9707 39.748 35.7067 39.748 37.76C39.748 39.3093 39.552 40.6907 39.16 41.904C38.7867 43.0987 38.2453 44.1067 37.536 44.928C36.8267 45.7307 35.9867 46.3467 35.016 46.776C34.0453 47.1867 32.9627 47.392 31.768 47.392ZM31.852 44.2C32.3373 44.2 32.804 44.088 33.252 43.864C33.7187 43.64 34.1387 43.2853 34.512 42.8C34.8853 42.296 35.184 41.652 35.408 40.868C35.632 40.0653 35.744 39.076 35.744 37.9C35.744 36.5 35.576 35.3147 35.24 34.344C34.904 33.3547 34.4467 32.608 33.868 32.104C33.2893 31.5813 32.608 31.32 31.824 31.32C31.208 31.32 30.6013 31.5253 30.004 31.936C29.4067 32.328 28.9027 32.9907 28.492 33.924C28.1 34.8573 27.904 36.136 27.904 37.76C27.904 38.8987 28.0067 39.8787 28.212 40.7C28.436 41.5027 28.7253 42.1653 29.08 42.688C29.4533 43.192 29.8733 43.5747 30.34 43.836C30.8253 44.0787 31.3293 44.2 31.852 44.2ZM41.8478 43.36V39.468C42.7624 38.404 43.5744 37.3867 44.2838 36.416C44.9931 35.4453 45.6091 34.5213 46.1318 33.644C46.6731 32.748 47.1304 31.8707 47.5038 31.012C47.8771 30.1533 48.2038 29.3133 48.4838 28.492H55.4558V47H51.4798V31.18H51.1998C50.7331 32.3373 50.2104 33.4293 49.6318 34.456C49.0718 35.464 48.4651 36.416 47.8118 37.312C47.1771 38.208 46.5051 39.0667 45.7958 39.888V40.168H58.0038V43.36H41.8478Z" fill="white"/>
</svg>
