<svg width="83" height="75" viewBox="0 0 83 75" fill="none" xmlns="http://www.w3.org/2000/svg">
<rect x="0.5" width="82" height="75" rx="15" fill="#157B01"/>
<path d="M32.768 47.392C31.592 47.392 30.5093 47.1773 29.52 46.748C28.5493 46.3187 27.7187 45.7027 27.028 44.9C26.3373 44.0787 25.8053 43.08 25.432 41.904C25.0587 40.7093 24.872 39.356 24.872 37.844C24.872 35.716 25.2173 33.9333 25.908 32.496C26.5987 31.0587 27.5507 29.976 28.764 29.248C29.9773 28.52 31.3493 28.156 32.88 28.156C34.4667 28.156 35.848 28.5293 37.024 29.276C38.2187 30.0227 39.1333 31.1147 39.768 32.552C40.4213 33.9707 40.748 35.7067 40.748 37.76C40.748 39.3093 40.552 40.6907 40.16 41.904C39.7867 43.0987 39.2453 44.1067 38.536 44.928C37.8267 45.7307 36.9867 46.3467 36.016 46.776C35.0453 47.1867 33.9627 47.392 32.768 47.392ZM32.852 44.2C33.3373 44.2 33.804 44.088 34.252 43.864C34.7187 43.64 35.1387 43.2853 35.512 42.8C35.8853 42.296 36.184 41.652 36.408 40.868C36.632 40.0653 36.744 39.076 36.744 37.9C36.744 36.5 36.576 35.3147 36.24 34.344C35.904 33.3547 35.4467 32.608 34.868 32.104C34.2893 31.5813 33.608 31.32 32.824 31.32C32.208 31.32 31.6013 31.5253 31.004 31.936C30.4067 32.328 29.9027 32.9907 29.492 33.924C29.1 34.8573 28.904 36.136 28.904 37.76C28.904 38.8987 29.0067 39.8787 29.212 40.7C29.436 41.5027 29.7253 42.1653 30.08 42.688C30.4533 43.192 30.8733 43.5747 31.34 43.836C31.8253 44.0787 32.3293 44.2 32.852 44.2ZM50.5758 47.392C49.1758 47.392 47.9438 47.1867 46.8798 46.776C45.8158 46.3653 44.9851 45.7867 44.3878 45.04C43.8091 44.2747 43.5104 43.36 43.4918 42.296L47.2998 41.54C47.4118 42.4173 47.7664 43.08 48.3638 43.528C48.9611 43.9573 49.6984 44.172 50.5758 44.172C51.6024 44.172 52.3958 43.892 52.9558 43.332C53.5158 42.7533 53.7958 41.8853 53.7958 40.728C53.7958 40.2053 53.7398 39.7293 53.6278 39.3C53.5158 38.8707 53.3384 38.5067 53.0958 38.208C52.8718 37.8907 52.5731 37.648 52.1998 37.48C51.8264 37.312 51.3784 37.228 50.8558 37.228C50.5011 37.228 50.1744 37.2747 49.8758 37.368C49.5958 37.4613 49.3344 37.592 49.0918 37.76C48.8491 37.9093 48.6251 38.1053 48.4198 38.348C48.2144 38.5907 48.0278 38.88 47.8598 39.216H43.8278L44.4998 28.52H57.1278V31.88H47.8598L47.4398 37.144H47.7758C48.1678 36.192 48.7838 35.4827 49.6238 35.016C50.4824 34.5493 51.4251 34.316 52.4518 34.316C53.6651 34.316 54.6731 34.5773 55.4758 35.1C56.2971 35.6227 56.9131 36.36 57.3238 37.312C57.7344 38.2453 57.9398 39.356 57.9398 40.644C57.9398 42.212 57.6318 43.5 57.0158 44.508C56.3998 45.4973 55.5318 46.2253 54.4118 46.692C53.3104 47.1587 52.0318 47.392 50.5758 47.392Z" fill="white"/>
</svg>
