<svg width="83" height="75" viewBox="0 0 83 75" fill="none" xmlns="http://www.w3.org/2000/svg">
<rect x="0.5" width="82" height="75" rx="15" fill="#157B01"/>
<path d="M31.768 47.392C30.592 47.392 29.5093 47.1773 28.52 46.748C27.5493 46.3187 26.7187 45.7027 26.028 44.9C25.3373 44.0787 24.8053 43.08 24.432 41.904C24.0587 40.7093 23.872 39.356 23.872 37.844C23.872 35.716 24.2173 33.9333 24.908 32.496C25.5987 31.0587 26.5507 29.976 27.764 29.248C28.9773 28.52 30.3493 28.156 31.88 28.156C33.4667 28.156 34.848 28.5293 36.024 29.276C37.2187 30.0227 38.1333 31.1147 38.768 32.552C39.4213 33.9707 39.748 35.7067 39.748 37.76C39.748 39.3093 39.552 40.6907 39.16 41.904C38.7867 43.0987 38.2453 44.1067 37.536 44.928C36.8267 45.7307 35.9867 46.3467 35.016 46.776C34.0453 47.1867 32.9627 47.392 31.768 47.392ZM31.852 44.2C32.3373 44.2 32.804 44.088 33.252 43.864C33.7187 43.64 34.1387 43.2853 34.512 42.8C34.8853 42.296 35.184 41.652 35.408 40.868C35.632 40.0653 35.744 39.076 35.744 37.9C35.744 36.5 35.576 35.3147 35.24 34.344C34.904 33.3547 34.4467 32.608 33.868 32.104C33.2893 31.5813 32.608 31.32 31.824 31.32C31.208 31.32 30.6013 31.5253 30.004 31.936C29.4067 32.328 28.9027 32.9907 28.492 33.924C28.1 34.8573 27.904 36.136 27.904 37.76C27.904 38.8987 28.0067 39.8787 28.212 40.7C28.436 41.5027 28.7253 42.1653 29.08 42.688C29.4533 43.192 29.8733 43.5747 30.34 43.836C30.8253 44.0787 31.3293 44.2 31.852 44.2ZM51.0044 47.448C48.2418 47.448 46.1324 46.636 44.6764 45.012C43.2391 43.3693 42.5204 41.008 42.5204 37.928C42.5204 35.7813 42.8564 33.98 43.5284 32.524C44.2004 31.0493 45.1618 29.9387 46.4124 29.192C47.6631 28.4453 49.1471 28.072 50.8644 28.072C51.7604 28.072 52.5911 28.1747 53.3564 28.38C54.1218 28.5853 54.7938 28.9027 55.3724 29.332C55.9698 29.7613 56.4644 30.312 56.8564 30.984C57.2484 31.6373 57.5191 32.4027 57.6684 33.28L53.8884 34.26C53.7951 33.532 53.5711 32.972 53.2164 32.58C52.8618 32.1693 52.4511 31.88 51.9844 31.712C51.5364 31.5253 51.0791 31.432 50.6124 31.432C49.9031 31.432 49.2871 31.6093 48.7644 31.964C48.2418 32.3 47.8124 32.776 47.4764 33.392C47.1404 33.9893 46.8884 34.68 46.7204 35.464C46.5711 36.2293 46.4964 37.0507 46.4964 37.928C46.4964 38.3387 46.5151 38.8147 46.5524 39.356C46.6084 39.8787 46.6831 40.3827 46.7764 40.868H47.0564C47.0378 39.86 47.1871 39.0107 47.5044 38.32C47.8404 37.6293 48.2791 37.0787 48.8204 36.668C49.3618 36.2573 49.9498 35.968 50.5844 35.8C51.2378 35.6133 51.8724 35.52 52.4884 35.52C53.5151 35.52 54.4578 35.7347 55.3164 36.164C56.1938 36.5747 56.8938 37.2 57.4164 38.04C57.9578 38.88 58.2284 39.916 58.2284 41.148C58.2284 41.9133 58.1071 42.6693 57.8644 43.416C57.6218 44.144 57.2111 44.816 56.6324 45.432C56.0724 46.048 55.3351 46.5427 54.4204 46.916C53.5058 47.2707 52.3671 47.448 51.0044 47.448ZM50.8364 44.2C51.3591 44.2 51.8258 44.1253 52.2364 43.976C52.6471 43.8267 52.9924 43.6213 53.2724 43.36C53.5711 43.0987 53.7951 42.7907 53.9444 42.436C54.0938 42.0627 54.1684 41.6613 54.1684 41.232C54.1684 40.6347 54.0284 40.1213 53.7484 39.692C53.4684 39.244 53.0951 38.908 52.6284 38.684C52.1804 38.4413 51.6671 38.32 51.0884 38.32C50.4538 38.32 49.8844 38.46 49.3804 38.74C48.8764 39.0013 48.4658 39.3747 48.1484 39.86C47.8498 40.3453 47.7004 40.9053 47.7004 41.54C47.7004 42.044 47.7938 42.464 47.9804 42.8C48.1671 43.136 48.4098 43.416 48.7084 43.64C49.0071 43.8453 49.3431 43.9947 49.7164 44.088C50.0898 44.1627 50.4631 44.2 50.8364 44.2Z" fill="white"/>
</svg>
