<svg width="166" height="39" viewBox="0 0 166 39" fill="none" xmlns="http://www.w3.org/2000/svg">
<rect width="166" height="38.6575" rx="19.3288" fill="#D3D3D3"/>
<rect x="5.30591" y="4.16895" width="30.3196" height="30.3196" rx="15.1598" fill="#157B01"/>
<path d="M13.1522 20.2485C12.8846 18.5072 12.7508 17.6366 13.08 16.8647C13.4092 16.0929 14.1396 15.5648 15.6003 14.5087L16.6917 13.7196C18.5089 12.4057 19.4174 11.7488 20.4658 11.7488C21.5142 11.7488 22.4227 12.4057 24.2398 13.7196L25.3312 14.5087C26.792 15.5648 27.5223 16.0929 27.8515 16.8647C28.1807 17.6366 28.0469 18.5072 27.7793 20.2485L27.5512 21.7333C27.1718 24.2017 26.9821 25.436 26.0969 26.1723C25.2116 26.9086 23.9174 26.9086 21.329 26.9086H19.6026C17.0141 26.9086 15.7199 26.9086 14.8347 26.1723C13.9494 25.436 13.7597 24.2017 13.3804 21.7333L13.1522 20.2485Z" stroke="#D3D3D3" stroke-width="1.13699" stroke-linejoin="round"/>
<path d="M19.8973 20.2763C20.7969 21.1759 21.9818 22.0901 21.9818 22.0901L23.606 20.4658C23.606 20.4658 22.6918 19.2809 21.7923 18.3813C20.8927 17.4818 19.7078 16.5676 19.7078 16.5676L18.0835 18.1919C18.0835 18.1919 18.9977 19.3767 19.8973 20.2763ZM19.8973 20.2763L17.0548 23.1188M23.8767 20.1951L21.7111 22.3608M19.9785 16.2969L17.8128 18.4625" stroke="#D3D3D3" stroke-width="1.13699" stroke-linecap="round" stroke-linejoin="round"/>
<path d="M47.0075 22.1558H49.2269V22.8289H46.1798V16.489H47.0075V22.1558ZM53.8535 21.419H51.0883L50.579 22.8289H49.7058L51.9979 16.5254H52.953L55.2361 22.8289H54.3628L53.8535 21.419ZM53.617 20.7459L52.4709 17.5441L51.3248 20.7459H53.617ZM64.203 16.489L62.3657 22.8289H61.4379L59.9644 17.7261L58.4362 22.8289L57.5176 22.838L55.7439 16.489H56.6262L58.0087 21.8647L59.5368 16.489H60.4646L61.92 21.8465L63.3116 16.489H64.203ZM71.2813 21.419H68.5162L68.0068 22.8289H67.1336L69.4258 16.5254H70.3809L72.6639 22.8289H71.7907L71.2813 21.419ZM71.0449 20.7459L69.8988 17.5441L68.7527 20.7459H71.0449ZM73.3536 19.6544C73.3536 19.0359 73.4931 18.481 73.7721 17.9898C74.051 17.4926 74.43 17.1045 74.909 16.8256C75.3942 16.5466 75.9308 16.4072 76.519 16.4072C77.2103 16.4072 77.8137 16.5739 78.3291 16.9074C78.8445 17.2409 79.2205 17.7139 79.457 18.3264H78.4655C78.2897 17.9444 78.035 17.6503 77.7015 17.4441C77.374 17.2379 76.9799 17.1348 76.519 17.1348C76.0763 17.1348 75.6792 17.2379 75.3275 17.4441C74.9757 17.6503 74.6998 17.9444 74.4997 18.3264C74.2996 18.7024 74.1996 19.145 74.1996 19.6544C74.1996 20.1577 74.2996 20.6004 74.4997 20.9824C74.6998 21.3584 74.9757 21.6494 75.3275 21.8556C75.6792 22.0618 76.0763 22.1649 76.519 22.1649C76.9799 22.1649 77.374 22.0648 77.7015 21.8647C78.035 21.6585 78.2897 21.3644 78.4655 20.9824H79.457C79.2205 21.5888 78.8445 22.0587 78.3291 22.3923C77.8137 22.7197 77.2103 22.8834 76.519 22.8834C75.9308 22.8834 75.3942 22.747 74.909 22.4741C74.43 22.1952 74.051 21.8101 73.7721 21.3189C73.4931 20.8278 73.3536 20.2729 73.3536 19.6544ZM80.3799 19.6544C80.3799 19.0359 80.5193 18.481 80.7983 17.9898C81.0772 17.4926 81.4562 17.1045 81.9353 16.8256C82.4204 16.5466 82.957 16.4072 83.5452 16.4072C84.2365 16.4072 84.8399 16.5739 85.3553 16.9074C85.8707 17.2409 86.2467 17.7139 86.4832 18.3264H85.4918C85.3159 17.9444 85.0612 17.6503 84.7277 17.4441C84.4002 17.2379 84.0061 17.1348 83.5452 17.1348C83.1026 17.1348 82.7054 17.2379 82.3537 17.4441C82.002 17.6503 81.7261 17.9444 81.5259 18.3264C81.3258 18.7024 81.2258 19.145 81.2258 19.6544C81.2258 20.1577 81.3258 20.6004 81.5259 20.9824C81.7261 21.3584 82.002 21.6494 82.3537 21.8556C82.7054 22.0618 83.1026 22.1649 83.5452 22.1649C84.0061 22.1649 84.4002 22.0648 84.7277 21.8647C85.0612 21.6585 85.3159 21.3644 85.4918 20.9824H86.4832C86.2467 21.5888 85.8707 22.0587 85.3553 22.3923C84.8399 22.7197 84.2365 22.8834 83.5452 22.8834C82.957 22.8834 82.4204 22.747 81.9353 22.4741C81.4562 22.1952 81.0772 21.8101 80.7983 21.3189C80.5193 20.8278 80.3799 20.2729 80.3799 19.6544ZM88.5431 17.1621V19.2815H90.8534V19.9637H88.5431V22.1467H91.1263V22.8289H87.7153V16.4799H91.1263V17.1621H88.5431ZM97.3633 22.8289H96.5356L93.2065 17.7806V22.8289H92.3788V16.4799H93.2065L96.5356 21.519V16.4799H97.3633V22.8289ZM102.676 16.489V17.1621H100.948V22.8289H100.121V17.1621H98.3832V16.489H102.676ZM111.105 22.8289H110.277L106.948 17.7806V22.8289H106.12V16.4799H106.948L110.277 21.519V16.4799H111.105V22.8289ZM113.344 16.489V22.8289H112.516V16.489H113.344ZM119.557 18.3264C119.381 17.9565 119.126 17.6715 118.793 17.4714C118.459 17.2652 118.071 17.1621 117.629 17.1621C117.186 17.1621 116.786 17.2652 116.428 17.4714C116.076 17.6715 115.797 17.9626 115.591 18.3446C115.391 18.7205 115.291 19.1571 115.291 19.6544C115.291 20.1516 115.391 20.5882 115.591 20.9642C115.797 21.3402 116.076 21.6312 116.428 21.8374C116.786 22.0375 117.186 22.1376 117.629 22.1376C118.247 22.1376 118.756 21.9526 119.157 21.5827C119.557 21.2128 119.79 20.7125 119.857 20.0819H117.328V19.4088H120.739V20.0455C120.691 20.567 120.527 21.0461 120.248 21.4827C119.969 21.9132 119.602 22.2558 119.148 22.5105C118.693 22.7591 118.186 22.8834 117.629 22.8834C117.04 22.8834 116.504 22.747 116.019 22.4741C115.534 22.1952 115.148 21.8101 114.863 21.3189C114.585 20.8278 114.445 20.2729 114.445 19.6544C114.445 19.0359 114.585 18.481 114.863 17.9898C115.148 17.4926 115.534 17.1075 116.019 16.8347C116.504 16.5557 117.04 16.4163 117.629 16.4163C118.302 16.4163 118.896 16.583 119.411 16.9165C119.933 17.25 120.312 17.72 120.548 18.3264H119.557ZM122.662 17.1621V19.2815H124.972V19.9637H122.662V22.1467H125.245V22.8289H121.834V16.4799H125.245V17.1621H122.662ZM129.835 22.8289L128.326 20.2365H127.325V22.8289H126.497V16.489H128.544C129.023 16.489 129.426 16.5709 129.754 16.7346C130.087 16.8983 130.336 17.1197 130.499 17.3986C130.663 17.6776 130.745 17.9959 130.745 18.3537C130.745 18.7903 130.618 19.1753 130.363 19.5089C130.114 19.8424 129.738 20.0637 129.235 20.1729L130.827 22.8289H129.835ZM127.325 19.5725H128.544C128.993 19.5725 129.329 19.4634 129.553 19.2451C129.778 19.0207 129.89 18.7236 129.89 18.3537C129.89 17.9777 129.778 17.6866 129.553 17.4805C129.335 17.2743 128.999 17.1712 128.544 17.1712H127.325V19.5725ZM132.859 16.489V22.8289H132.031V16.489H132.859ZM138.017 21.419H135.252L134.743 22.8289H133.869L136.162 16.5254H137.117L139.4 22.8289H138.526L138.017 21.419ZM137.781 20.7459L136.635 17.5441L135.488 20.7459H137.781Z" fill="black"/>
</svg>
