<svg width="32" height="32" viewBox="0 0 32 32" fill="none" xmlns="http://www.w3.org/2000/svg">
<rect x="0.84021" y="0.84021" width="30.3196" height="30.3196" rx="15.1598" fill="#114906"/>
<path d="M8.68652 16.9199C8.41893 15.1786 8.28514 14.308 8.61434 13.5361C8.94354 12.7643 9.67391 12.2362 11.1346 11.1801L12.226 10.3909C14.0432 9.07709 14.9517 8.42017 16.0001 8.42017C17.0485 8.42017 17.957 9.07709 19.7741 10.3909L20.8655 11.1801C22.3263 12.2362 23.0566 12.7643 23.3858 13.5361C23.715 14.308 23.5812 15.1786 23.3136 16.9199L23.0855 18.4047C22.7061 20.8731 22.5164 22.1074 21.6312 22.8437C20.7459 23.58 19.4517 23.58 16.8633 23.58H15.1369C12.5484 23.58 11.2542 23.58 10.369 22.8437C9.4837 22.1074 9.29403 20.8731 8.9147 18.4047L8.68652 16.9199Z" stroke="white" stroke-width="1.13699" stroke-linejoin="round"/>
<path d="M15.4316 16.9476C16.3312 17.8472 17.5161 18.7614 17.5161 18.7614L19.1404 17.1371C19.1404 17.1371 18.2261 15.9522 17.3266 15.0526C16.427 14.153 15.2421 13.2388 15.2421 13.2388L13.6178 14.8631C13.6178 14.8631 14.532 16.048 15.4316 16.9476ZM15.4316 16.9476L12.5891 19.7901M19.411 16.8664L17.2454 19.0321M15.5128 12.9681L13.3471 15.1338" stroke="white" stroke-width="1.13699" stroke-linecap="round" stroke-linejoin="round"/>
</svg>
