<svg width="36" height="36" viewBox="0 0 36 36" fill="none" xmlns="http://www.w3.org/2000/svg">
<path d="M30.7499 21V15C30.7499 9.34314 30.7498 6.51473 28.9926 4.75736C27.2352 3 24.4068 3 18.7498 3H17.25C11.5932 3 8.76485 3 7.00749 4.75734C5.25012 6.51468 5.25011 9.34308 5.25006 14.9999L5.25 20.9998C5.24996 26.6568 5.24993 29.4852 7.0073 31.2426C8.76465 33 11.5931 33 17.25 33H18.7498C24.4068 33 27.2352 33 28.9926 31.2426C30.7498 29.4853 30.7499 26.6568 30.7499 21Z" stroke="white" stroke-width="2.25" stroke-linecap="round" stroke-linejoin="round"/>
<path d="M12 10.5H24M12 18H24M12 25.5H18" stroke="white" stroke-width="2.25" stroke-linecap="round" stroke-linejoin="round"/>
</svg>
