<svg width="36" height="36" viewBox="0 0 36 36" fill="none" xmlns="http://www.w3.org/2000/svg">
<path d="M15 19.9999C15 19.5349 15 19.3025 15.0511 19.1118C15.1897 18.5942 15.5942 18.1897 16.1118 18.0511C16.3025 18 16.5349 18 16.9999 18H19.0001C19.4651 18 19.6975 18 19.8882 18.0511C20.4058 18.1897 20.8103 18.5942 20.9489 19.1118C21 19.3025 21 19.5349 21 19.9999V21C21 22.6569 19.6569 24 18 24C16.3431 24 15 22.6569 15 21V19.9999Z" stroke="white" stroke-width="2.25" stroke-linecap="round" stroke-linejoin="round"/>
<path d="M20.85 20.25H22.6239C24.5502 20.25 25.5133 20.25 26.3334 20.0763C28.707 19.5735 30.6435 18.0311 31.4908 15.9683C31.7836 15.2556 31.903 14.3933 32.142 12.6685C32.2317 12.0211 32.2765 11.6973 32.2335 11.4325C32.1078 10.6613 31.4898 10.0296 30.6571 9.82146C30.3712 9.75 30.0097 9.75 29.2866 9.75H6.71343C5.99026 9.75 5.62867 9.75 5.3428 9.82146C4.51023 10.0296 3.89215 10.6613 3.76656 11.4325C3.72343 11.6973 3.76828 12.0211 3.85797 12.6685C4.09692 14.3933 4.21638 15.2556 4.50913 15.9683C5.3565 18.0311 7.29296 19.5735 9.66654 20.0763C10.4866 20.25 11.4498 20.25 13.3761 20.25H15.15" stroke="white" stroke-width="2.25"/>
<path d="M5.25 17.25V20.25C5.25 25.9068 5.25 28.7353 6.90974 30.4926C8.56946 32.25 11.2407 32.25 16.5834 32.25H19.4166C24.7593 32.25 27.4305 32.25 29.0902 30.4926C30.75 28.7353 30.75 25.9068 30.75 20.25V17.25" stroke="white" stroke-width="2.25" stroke-linecap="round" stroke-linejoin="round"/>
<path d="M23.25 9.75L23.134 9.22019C22.5565 6.5801 22.2678 5.26006 21.5803 4.50503C20.8929 3.75 19.9798 3.75 18.1534 3.75H17.8466C16.0202 3.75 15.1071 3.75 14.4196 4.50503C13.7322 5.26006 13.4434 6.5801 12.8659 9.22019L12.75 9.75" stroke="white" stroke-width="2.25"/>
</svg>
