<svg width="70" height="65" viewBox="0 0 70 65" fill="none" xmlns="http://www.w3.org/2000/svg">
<rect width="70" height="64.0244" rx="12.8049" fill="#157B01"/>
<path d="M26.0627 34.5122C25.1558 33.0224 24.6342 31.2769 24.6342 29.4108C24.6342 23.944 29.1113 19.5122 34.6342 19.5122C40.157 19.5122 44.6342 23.944 44.6342 29.4108C44.6342 31.2769 44.1125 33.0224 43.2056 34.5122" stroke="white" stroke-width="1.875" stroke-linecap="round"/>
<path d="M37.1343 29.5122C36.3687 30.3162 35.5232 30.7622 34.6343 30.7622C33.7454 30.7622 32.8999 30.3162 32.1343 29.5122" stroke="white" stroke-width="1.875" stroke-linecap="round"/>
<path d="M28.8629 38.385C28.748 38.0392 28.6906 37.8664 28.6973 37.7263C28.7115 37.4301 28.8982 37.17 29.1737 37.0629C29.304 37.0122 29.4856 37.0122 29.8487 37.0122H39.4198C39.783 37.0122 39.9645 37.0122 40.0948 37.0629C40.3704 37.17 40.5571 37.4301 40.5713 37.7263C40.5779 37.8664 40.5205 38.0392 40.4057 38.385C40.1935 39.024 40.0873 39.3435 39.9237 39.6023C39.5808 40.1443 39.0432 40.5331 38.4225 40.6882C38.1262 40.7622 37.7906 40.7622 37.1194 40.7622H32.1491C31.478 40.7622 31.1424 40.7622 30.8461 40.6882C30.2253 40.5331 29.6878 40.1443 29.3449 39.6023C29.1812 39.3435 29.0751 39.024 28.8629 38.385Z" stroke="white" stroke-width="1.875"/>
<path d="M38.3843 40.7622L38.2226 41.5705C38.0459 42.4543 37.9575 42.8962 37.7594 43.2454C37.4532 43.7854 36.9571 44.1921 36.3675 44.3865C35.9863 44.5122 35.5356 44.5122 34.6343 44.5122C33.733 44.5122 33.2823 44.5122 32.901 44.3865C32.3115 44.1921 31.8153 43.7854 31.5091 43.2454C31.3111 42.8962 31.2227 42.4543 31.0459 41.5705L30.8843 40.7622" stroke="white" stroke-width="1.875"/>
<path d="M34.6343 36.3872V30.7622" stroke="white" stroke-width="1.875" stroke-linecap="round" stroke-linejoin="round"/>
</svg>
