<svg width="22" height="23" viewBox="0 0 22 23" fill="none" xmlns="http://www.w3.org/2000/svg">
<rect x="0.242647" y="0.742647" width="21.5147" height="21.5147" rx="10.7574" fill="#D6FFCE"/>
<rect x="0.242647" y="0.742647" width="21.5147" height="21.5147" rx="10.7574" stroke="#114906" stroke-width="0.485294"/>
<path d="M9.57815 8.35624L9.37682 7.90325C9.24518 7.60706 9.17936 7.45896 9.08093 7.34563C8.95756 7.20359 8.79676 7.09909 8.61686 7.04405C8.47332 7.00012 8.31125 7.00012 7.98713 7.00012C7.51298 7.00012 7.2759 7.00012 7.07689 7.09127C6.84246 7.19863 6.63074 7.43176 6.54639 7.67542C6.47478 7.88227 6.49529 8.09484 6.53631 8.51997C6.97298 13.0452 9.45393 15.5262 13.9792 15.9628C14.4043 16.0039 14.6169 16.0244 14.8237 15.9528C15.0674 15.8684 15.3005 15.6567 15.4079 15.4223C15.499 15.2232 15.499 14.9862 15.499 14.512C15.499 14.1879 15.499 14.0258 15.4551 13.8823C15.4001 13.7024 15.2956 13.5416 15.1535 13.4182C15.0402 13.3198 14.8921 13.254 14.5959 13.1223L14.1429 12.921C13.8222 12.7784 13.6618 12.7072 13.4988 12.6917C13.3428 12.6768 13.1856 12.6987 13.0396 12.7556C12.887 12.815 12.7522 12.9273 12.4825 13.152C12.2141 13.3757 12.0799 13.4876 11.9159 13.5475C11.7705 13.6006 11.5783 13.6203 11.4252 13.5977C11.2525 13.5722 11.1202 13.5016 10.8557 13.3602C10.0327 12.9204 9.57879 12.4665 9.13896 11.6435C8.99759 11.379 8.92691 11.2467 8.90146 11.074C8.87889 10.9208 8.89856 10.7286 8.95167 10.5833C9.01158 10.4193 9.12343 10.2851 9.34712 10.0166C9.57183 9.74696 9.68419 9.61213 9.7436 9.45958C9.80045 9.31359 9.82233 9.15632 9.8075 9.00036C9.79199 8.83738 9.72071 8.677 9.57815 8.35624Z" stroke="#114906" stroke-width="0.857143" stroke-linecap="round"/>
</svg>
