<svg width="118" height="39" viewBox="0 0 118 39" fill="none" xmlns="http://www.w3.org/2000/svg">
<rect x="0.5" y="0.5" width="117" height="38" rx="19" fill="white"/>
<rect x="0.5" y="0.5" width="117" height="38" rx="19" stroke="#C2C2C2"/>
<rect x="5.30664" y="4.34033" width="30.3196" height="30.3196" rx="15.1598" fill="#157B01"/>
<path d="M13.1531 20.4201C12.8855 18.6788 12.7517 17.8082 13.0809 17.0364C13.4101 16.2645 14.1405 15.7365 15.6012 14.6803L16.6926 13.8912C18.5097 12.5773 19.4183 11.9204 20.4666 11.9204C21.515 11.9204 22.4235 12.5773 24.2407 13.8912L25.3321 14.6803C26.7928 15.7365 27.5231 16.2645 27.8523 17.0364C28.1815 17.8082 28.0477 18.6788 27.7802 20.4201L27.552 21.905C27.1726 24.3734 26.983 25.6076 26.0977 26.3439C25.2125 27.0802 23.9183 27.0802 21.3298 27.0802H19.6034C17.015 27.0802 15.7208 27.0802 14.8355 26.3439C13.9502 25.6076 13.7606 24.3734 13.3813 21.905L13.1531 20.4201Z" stroke="white" stroke-width="1.13699" stroke-linejoin="round"/>
<path d="M19.8991 20.4477C20.7987 21.3473 21.9836 22.2615 21.9836 22.2615L23.6079 20.6372C23.6079 20.6372 22.6937 19.4523 21.7941 18.5527C20.8945 17.6531 19.7096 16.739 19.7096 16.739L18.0853 18.3632C18.0853 18.3632 18.9995 19.5481 19.8991 20.4477ZM19.8991 20.4477L17.0566 23.2902M23.8786 20.3665L21.7129 22.5322M19.9803 16.4683L17.8146 18.6339" stroke="white" stroke-width="1.13699" stroke-linecap="round" stroke-linejoin="round"/>
<path d="M45.8716 19.8255C45.8716 19.207 46.0111 18.6522 46.29 18.161C46.5689 17.6637 46.9479 17.2757 47.427 16.9967C47.9121 16.7178 48.4488 16.5783 49.037 16.5783C49.7282 16.5783 50.3316 16.7451 50.847 17.0786C51.3625 17.4121 51.7384 17.8851 51.9749 18.4975H50.9835C50.8076 18.1155 50.5529 17.8214 50.2194 17.6152C49.892 17.4091 49.4978 17.306 49.037 17.306C48.5943 17.306 48.1971 17.4091 47.8454 17.6152C47.4937 17.8214 47.2178 18.1155 47.0177 18.4975C46.8176 18.8735 46.7175 19.3162 46.7175 19.8255C46.7175 20.3288 46.8176 20.7715 47.0177 21.1535C47.2178 21.5295 47.4937 21.8206 47.8454 22.0267C48.1971 22.2329 48.5943 22.336 49.037 22.336C49.4978 22.336 49.892 22.2359 50.2194 22.0358C50.5529 21.8297 50.8076 21.5356 50.9835 21.1535H51.9749C51.7384 21.7599 51.3625 22.2299 50.847 22.5634C50.3316 22.8908 49.7282 23.0546 49.037 23.0546C48.4488 23.0546 47.9121 22.9181 47.427 22.6453C46.9479 22.3663 46.5689 21.9813 46.29 21.4901C46.0111 20.9989 45.8716 20.4441 45.8716 19.8255ZM56.9546 21.5901H54.1894L53.6801 23H52.8069L55.099 16.6965H56.0541L58.3372 23H57.4639L56.9546 21.5901ZM56.7181 20.917L55.572 17.7153L54.4259 20.917H56.7181ZM61.3463 23.0637C60.9279 23.0637 60.552 22.9909 60.2184 22.8454C59.891 22.6938 59.6333 22.4876 59.4453 22.2268C59.2573 21.96 59.1603 21.6538 59.1542 21.3082H60.0365C60.0668 21.6053 60.1881 21.8569 60.4004 22.0631C60.6187 22.2632 60.934 22.3633 61.3463 22.3633C61.7405 22.3633 62.0497 22.2663 62.2741 22.0722C62.5045 21.8721 62.6198 21.6174 62.6198 21.3082C62.6198 21.0656 62.5531 20.8685 62.4196 20.7169C62.2862 20.5653 62.1195 20.4501 61.9194 20.3713C61.7193 20.2925 61.4494 20.2076 61.1098 20.1166C60.6914 20.0075 60.3549 19.8983 60.1002 19.7892C59.8516 19.68 59.6363 19.5102 59.4544 19.2798C59.2785 19.0433 59.1906 18.728 59.1906 18.3338C59.1906 17.9882 59.2785 17.6819 59.4544 17.4151C59.6302 17.1483 59.8758 16.9421 60.1912 16.7966C60.5125 16.6511 60.8794 16.5783 61.2918 16.5783C61.886 16.5783 62.3711 16.7269 62.7471 17.024C63.1291 17.3211 63.3444 17.7153 63.3929 18.2065H62.4833C62.453 17.9639 62.3257 17.7517 62.1013 17.5698C61.8769 17.3818 61.5798 17.2878 61.2099 17.2878C60.8642 17.2878 60.5823 17.3787 60.364 17.5607C60.1457 17.7365 60.0365 17.9851 60.0365 18.3065C60.0365 18.5369 60.1002 18.7249 60.2275 18.8705C60.3609 19.016 60.5216 19.1282 60.7096 19.207C60.9037 19.2798 61.1735 19.3647 61.5192 19.4617C61.9376 19.5769 62.2741 19.6921 62.5288 19.8073C62.7835 19.9165 63.0018 20.0893 63.1837 20.3258C63.3656 20.5562 63.4566 20.8716 63.4566 21.2718C63.4566 21.581 63.3747 21.8721 63.211 22.145C63.0473 22.4179 62.8047 22.6392 62.4833 22.809C62.1619 22.9788 61.7829 23.0637 61.3463 23.0637ZM65.5024 17.3333V19.4526H67.8127V20.1348H65.5024V22.3178H68.0856V23H64.6746V16.6511H68.0856V17.3333H65.5024ZM73.7732 23.0637C73.3548 23.0637 72.9789 22.9909 72.6453 22.8454C72.3179 22.6938 72.0602 22.4876 71.8722 22.2268C71.6842 21.96 71.5872 21.6538 71.5811 21.3082H72.4634C72.4937 21.6053 72.615 21.8569 72.8273 22.0631C73.0456 22.2632 73.3609 22.3633 73.7732 22.3633C74.1674 22.3633 74.4767 22.2663 74.701 22.0722C74.9314 21.8721 75.0467 21.6174 75.0467 21.3082C75.0467 21.0656 74.98 20.8685 74.8466 20.7169C74.7131 20.5653 74.5464 20.4501 74.3463 20.3713C74.1462 20.2925 73.8763 20.2076 73.5367 20.1166C73.1183 20.0075 72.7818 19.8983 72.5271 19.7892C72.2785 19.68 72.0632 19.5102 71.8813 19.2798C71.7054 19.0433 71.6175 18.728 71.6175 18.3338C71.6175 17.9882 71.7054 17.6819 71.8813 17.4151C72.0571 17.1483 72.3027 16.9421 72.6181 16.7966C72.9394 16.6511 73.3063 16.5783 73.7187 16.5783C74.3129 16.5783 74.798 16.7269 75.174 17.024C75.556 17.3211 75.7713 17.7153 75.8198 18.2065H74.9102C74.8799 17.9639 74.7526 17.7517 74.5282 17.5698C74.3038 17.3818 74.0067 17.2878 73.6368 17.2878C73.2912 17.2878 73.0092 17.3787 72.7909 17.5607C72.5726 17.7365 72.4634 17.9851 72.4634 18.3065C72.4634 18.5369 72.5271 18.7249 72.6544 18.8705C72.7878 19.016 72.9485 19.1282 73.1365 19.207C73.3306 19.2798 73.6004 19.3647 73.9461 19.4617C74.3645 19.5769 74.701 19.6921 74.9557 19.8073C75.2104 19.9165 75.4287 20.0893 75.6106 20.3258C75.7925 20.5562 75.8835 20.8716 75.8835 21.2718C75.8835 21.581 75.8016 21.8721 75.6379 22.145C75.4742 22.4179 75.2316 22.6392 74.9102 22.809C74.5888 22.9788 74.2098 23.0637 73.7732 23.0637ZM81.0037 16.6602V17.3333H79.2755V23H78.4477V17.3333H76.7104V16.6602H81.0037ZM82.8321 16.6602V20.6715C82.8321 21.2354 82.9685 21.6538 83.2414 21.9267C83.5204 22.1996 83.9054 22.336 84.3966 22.336C84.8817 22.336 85.2607 22.1996 85.5336 21.9267C85.8125 21.6538 85.952 21.2354 85.952 20.6715V16.6602H86.7797V20.6624C86.7797 21.1899 86.6736 21.6356 86.4614 21.9995C86.2491 22.3572 85.9611 22.624 85.5973 22.7999C85.2395 22.9757 84.8362 23.0637 84.3875 23.0637C83.9388 23.0637 83.5325 22.9757 83.1687 22.7999C82.8109 22.624 82.5259 22.3572 82.3136 21.9995C82.1075 21.6356 82.0044 21.1899 82.0044 20.6624V16.6602H82.8321ZM90.1343 16.6602C90.8256 16.6602 91.4229 16.7905 91.9262 17.0513C92.4356 17.306 92.8237 17.6728 93.0905 18.1519C93.3634 18.6309 93.4998 19.1949 93.4998 19.8437C93.4998 20.4926 93.3634 21.0565 93.0905 21.5356C92.8237 22.0085 92.4356 22.3724 91.9262 22.6271C91.4229 22.8757 90.8256 23 90.1343 23H88.1605V16.6602H90.1343ZM90.1343 22.3178C90.953 22.3178 91.5775 22.1025 92.0081 21.672C92.4386 21.2354 92.6539 20.626 92.6539 19.8437C92.6539 19.0554 92.4356 18.4399 91.999 17.9973C91.5684 17.5546 90.9469 17.3333 90.1343 17.3333H88.9882V22.3178H90.1343ZM99.0304 16.6602L96.9656 20.6078V23H96.1379V20.6078L94.064 16.6602H94.9827L96.5472 19.871L98.1117 16.6602H99.0304Z" fill="black"/>
</svg>
