<svg width="70" height="65" viewBox="0 0 70 65" fill="none" xmlns="http://www.w3.org/2000/svg">
<rect width="70" height="64.0244" rx="12.8049" fill="#157B01"/>
<path d="M47.1342 31.4706C47.1342 38.0745 41.5369 43.429 34.6342 43.429C33.8225 43.43 33.0132 43.355 32.2159 43.2053C31.6421 43.0975 31.3551 43.0436 31.1548 43.0742C30.9545 43.1048 30.6706 43.2558 30.1029 43.5577C28.4968 44.4118 26.6241 44.7134 24.823 44.3784C25.5076 43.5365 25.9751 42.5262 26.1814 41.4432C26.3064 40.7808 25.9967 40.1372 25.5328 39.6661C23.4258 37.5266 22.1342 34.6436 22.1342 31.4706C22.1342 24.8667 27.7314 19.5122 34.6342 19.5122C41.5369 19.5122 47.1342 24.8667 47.1342 31.4706Z" stroke="white" stroke-width="1.88" stroke-linejoin="round"/>
<path d="M34.6285 32.0122H34.6398M39.6229 32.0122H39.6342M29.6342 32.0122H29.6454" stroke="white" stroke-width="1.88" stroke-linecap="round" stroke-linejoin="round"/>
</svg>
