<svg width="145" height="39" viewBox="0 0 145 39" fill="none" xmlns="http://www.w3.org/2000/svg">
<rect width="145" height="39" rx="19.5" fill="#D3D3D3"/>
<rect x="5.30594" y="4.34009" width="30.3196" height="30.3196" rx="15.1598" fill="#157B01"/>
<path d="M13.1522 20.4197C12.8846 18.6783 12.7508 17.8077 13.08 17.0359C13.4092 16.2641 14.1396 15.736 15.6003 14.6798L16.6917 13.8907C18.5089 12.5768 19.4174 11.9199 20.4658 11.9199C21.5142 11.9199 22.4227 12.5768 24.2398 13.8907L25.3312 14.6798C26.792 15.736 27.5223 16.2641 27.8515 17.0359C28.1807 17.8077 28.0469 18.6783 27.7793 20.4197L27.5512 21.9045C27.1718 24.3729 26.9821 25.6071 26.0969 26.3434C25.2116 27.0797 23.9174 27.0797 21.329 27.0797H19.6026C17.0141 27.0797 15.7199 27.0797 14.8347 26.3434C13.9494 25.6071 13.7597 24.3729 13.3804 21.9045L13.1522 20.4197Z" stroke="#D3D3D3" stroke-width="1.13699" stroke-linejoin="round"/>
<path d="M19.8973 20.4475C20.7969 21.3471 21.9818 22.2613 21.9818 22.2613L23.6061 20.637C23.6061 20.637 22.6918 19.4521 21.7923 18.5525C20.8927 17.6529 19.7078 16.7387 19.7078 16.7387L18.0835 18.363C18.0835 18.363 18.9977 19.5479 19.8973 20.4475ZM19.8973 20.4475L17.0548 23.2899M23.8767 20.3663L21.7111 22.5319M19.9785 16.468L17.8128 18.6337" stroke="#D3D3D3" stroke-width="1.13699" stroke-linecap="round" stroke-linejoin="round"/>
<path d="M54.1478 16.6602L52.3105 23H51.3827L49.9092 17.8972L48.381 23L47.4624 23.0091L45.6887 16.6602H46.571L47.9535 22.0358L49.4816 16.6602H50.4094L51.8648 22.0176L53.2564 16.6602H54.1478ZM59.9382 16.6602V23H59.1104V20.1257H55.8814V23H55.0537V16.6602H55.8814V19.4435H59.1104V16.6602H59.9382ZM65.7903 16.6602L63.7255 20.6078V23H62.8978V20.6078L60.8239 16.6602H61.7426L63.3071 19.871L64.8716 16.6602H65.7903ZM68.7791 19.8255C68.7791 19.207 68.9185 18.6522 69.1975 18.161C69.4764 17.6637 69.8554 17.2757 70.3345 16.9967C70.8196 16.7178 71.3562 16.5783 71.9444 16.5783C72.6357 16.5783 73.2391 16.7451 73.7545 17.0786C74.27 17.4121 74.6459 17.8851 74.8824 18.4975H73.891C73.7151 18.1155 73.4604 17.8214 73.1269 17.6152C72.7995 17.4091 72.4053 17.306 71.9444 17.306C71.5018 17.306 71.1046 17.4091 70.7529 17.6152C70.4012 17.8214 70.1253 18.1155 69.9252 18.4975C69.725 18.8735 69.625 19.3162 69.625 19.8255C69.625 20.3288 69.725 20.7715 69.9252 21.1535C70.1253 21.5295 70.4012 21.8206 70.7529 22.0267C71.1046 22.2329 71.5018 22.336 71.9444 22.336C72.4053 22.336 72.7995 22.2359 73.1269 22.0358C73.4604 21.8297 73.7151 21.5356 73.891 21.1535H74.8824C74.6459 21.7599 74.27 22.2299 73.7545 22.5634C73.2391 22.8908 72.6357 23.0546 71.9444 23.0546C71.3562 23.0546 70.8196 22.9181 70.3345 22.6453C69.8554 22.3663 69.4764 21.9813 69.1975 21.4901C68.9185 20.9989 68.7791 20.4441 68.7791 19.8255ZM80.999 16.6602V23H80.1713V20.1257H76.9423V23H76.1146V16.6602H76.9423V19.4435H80.1713V16.6602H80.999ZM85.2867 23.0637C84.6985 23.0637 84.1618 22.9272 83.6767 22.6544C83.1916 22.3754 82.8065 21.9904 82.5215 21.4992C82.2426 21.0019 82.1031 20.4441 82.1031 19.8255C82.1031 19.207 82.2426 18.6522 82.5215 18.161C82.8065 17.6637 83.1916 17.2787 83.6767 17.0058C84.1618 16.7269 84.6985 16.5874 85.2867 16.5874C85.881 16.5874 86.4206 16.7269 86.9058 17.0058C87.3909 17.2787 87.7729 17.6607 88.0518 18.1519C88.3308 18.6431 88.4703 19.2009 88.4703 19.8255C88.4703 20.4501 88.3308 21.008 88.0518 21.4992C87.7729 21.9904 87.3909 22.3754 86.9058 22.6544C86.4206 22.9272 85.881 23.0637 85.2867 23.0637ZM85.2867 22.3451C85.7294 22.3451 86.1265 22.242 86.4783 22.0358C86.836 21.8297 87.115 21.5356 87.3151 21.1535C87.5213 20.7715 87.6243 20.3288 87.6243 19.8255C87.6243 19.3162 87.5213 18.8735 87.3151 18.4975C87.115 18.1155 86.8391 17.8214 86.4874 17.6152C86.1356 17.4091 85.7354 17.306 85.2867 17.306C84.838 17.306 84.4377 17.4091 84.086 17.6152C83.7343 17.8214 83.4554 18.1155 83.2492 18.4975C83.0491 18.8735 82.9491 19.3162 82.9491 19.8255C82.9491 20.3288 83.0491 20.7715 83.2492 21.1535C83.4554 21.5356 83.7343 21.8297 84.086 22.0358C84.4438 22.242 84.844 22.3451 85.2867 22.3451ZM92.4373 23.0637C91.8491 23.0637 91.3124 22.9272 90.8273 22.6544C90.3422 22.3754 89.9571 21.9904 89.6721 21.4992C89.3932 21.0019 89.2537 20.4441 89.2537 19.8255C89.2537 19.207 89.3932 18.6522 89.6721 18.161C89.9571 17.6637 90.3422 17.2787 90.8273 17.0058C91.3124 16.7269 91.8491 16.5874 92.4373 16.5874C93.0315 16.5874 93.5712 16.7269 94.0563 17.0058C94.5415 17.2787 94.9235 17.6607 95.2024 18.1519C95.4814 18.6431 95.6208 19.2009 95.6208 19.8255C95.6208 20.4501 95.4814 21.008 95.2024 21.4992C94.9235 21.9904 94.5415 22.3754 94.0563 22.6544C93.5712 22.9272 93.0315 23.0637 92.4373 23.0637ZM92.4373 22.3451C92.8799 22.3451 93.2771 22.242 93.6288 22.0358C93.9866 21.8297 94.2655 21.5356 94.4657 21.1535C94.6718 20.7715 94.7749 20.3288 94.7749 19.8255C94.7749 19.3162 94.6718 18.8735 94.4657 18.4975C94.2655 18.1155 93.9896 17.8214 93.6379 17.6152C93.2862 17.4091 92.886 17.306 92.4373 17.306C91.9885 17.306 91.5883 17.4091 91.2366 17.6152C90.8849 17.8214 90.606 18.1155 90.3998 18.4975C90.1997 18.8735 90.0996 19.3162 90.0996 19.8255C90.0996 20.3288 90.1997 20.7715 90.3998 21.1535C90.606 21.5356 90.8849 21.8297 91.2366 22.0358C91.5944 22.242 91.9946 22.3451 92.4373 22.3451ZM98.7237 23.0637C98.3053 23.0637 97.9294 22.9909 97.5958 22.8454C97.2684 22.6938 97.0107 22.4876 96.8227 22.2268C96.6347 21.96 96.5377 21.6538 96.5316 21.3082H97.4139C97.4443 21.6053 97.5655 21.8569 97.7778 22.0631C97.9961 22.2632 98.3114 22.3633 98.7237 22.3633C99.1179 22.3633 99.4272 22.2663 99.6515 22.0722C99.8819 21.8721 99.9972 21.6174 99.9972 21.3082C99.9972 21.0656 99.9305 20.8685 99.7971 20.7169C99.6636 20.5653 99.4969 20.4501 99.2968 20.3713C99.0967 20.2925 98.8268 20.2076 98.4872 20.1166C98.0688 20.0075 97.7323 19.8983 97.4776 19.7892C97.229 19.68 97.0137 19.5102 96.8318 19.2798C96.6559 19.0433 96.568 18.728 96.568 18.3338C96.568 17.9882 96.6559 17.6819 96.8318 17.4151C97.0076 17.1483 97.2532 16.9421 97.5686 16.7966C97.8899 16.6511 98.2568 16.5783 98.6692 16.5783C99.2634 16.5783 99.7485 16.7269 100.125 17.024C100.507 17.3211 100.722 17.7153 100.77 18.2065H99.8607C99.8304 17.9639 99.7031 17.7517 99.4787 17.5698C99.2543 17.3818 98.9572 17.2878 98.5873 17.2878C98.2417 17.2878 97.9597 17.3787 97.7414 17.5607C97.5231 17.7365 97.4139 17.9851 97.4139 18.3065C97.4139 18.5369 97.4776 18.7249 97.6049 18.8705C97.7384 19.016 97.899 19.1282 98.087 19.207C98.2811 19.2798 98.5509 19.3647 98.8966 19.4617C99.315 19.5769 99.6515 19.6921 99.9062 19.8073C100.161 19.9165 100.379 20.0893 100.561 20.3258C100.743 20.5562 100.834 20.8716 100.834 21.2718C100.834 21.581 100.752 21.8721 100.588 22.145C100.425 22.4179 100.182 22.6392 99.8607 22.809C99.5393 22.9788 99.1603 23.0637 98.7237 23.0637ZM102.88 17.3333V19.4526H105.19V20.1348H102.88V22.3178H105.463V23H102.052V16.6511H105.463V17.3333H102.88ZM109.95 16.6602V20.6715C109.95 21.2354 110.086 21.6538 110.359 21.9267C110.638 22.1996 111.023 22.336 111.514 22.336C112 22.336 112.379 22.1996 112.651 21.9267C112.93 21.6538 113.07 21.2354 113.07 20.6715V16.6602H113.898V20.6624C113.898 21.1899 113.791 21.6356 113.579 21.9995C113.367 22.3572 113.079 22.624 112.715 22.7999C112.357 22.9757 111.954 23.0637 111.505 23.0637C111.057 23.0637 110.65 22.9757 110.287 22.7999C109.929 22.624 109.644 22.3572 109.432 21.9995C109.225 21.6356 109.122 21.1899 109.122 20.6624V16.6602H109.95ZM117.289 23.0637C116.87 23.0637 116.494 22.9909 116.161 22.8454C115.833 22.6938 115.576 22.4876 115.388 22.2268C115.2 21.96 115.103 21.6538 115.096 21.3082H115.979C116.009 21.6053 116.13 21.8569 116.343 22.0631C116.561 22.2632 116.876 22.3633 117.289 22.3633C117.683 22.3633 117.992 22.2663 118.216 22.0722C118.447 21.8721 118.562 21.6174 118.562 21.3082C118.562 21.0656 118.495 20.8685 118.362 20.7169C118.229 20.5653 118.062 20.4501 117.862 20.3713C117.662 20.2925 117.392 20.2076 117.052 20.1166C116.634 20.0075 116.297 19.8983 116.042 19.7892C115.794 19.68 115.579 19.5102 115.397 19.2798C115.221 19.0433 115.133 18.728 115.133 18.3338C115.133 17.9882 115.221 17.6819 115.397 17.4151C115.573 17.1483 115.818 16.9421 116.133 16.7966C116.455 16.6511 116.822 16.5783 117.234 16.5783C117.828 16.5783 118.313 16.7269 118.689 17.024C119.071 17.3211 119.287 17.7153 119.335 18.2065H118.426C118.395 17.9639 118.268 17.7517 118.044 17.5698C117.819 17.3818 117.522 17.2878 117.152 17.2878C116.807 17.2878 116.525 17.3787 116.306 17.5607C116.088 17.7365 115.979 17.9851 115.979 18.3065C115.979 18.5369 116.042 18.7249 116.17 18.8705C116.303 19.016 116.464 19.1282 116.652 19.207C116.846 19.2798 117.116 19.3647 117.461 19.4617C117.88 19.5769 118.216 19.6921 118.471 19.8073C118.726 19.9165 118.944 20.0893 119.126 20.3258C119.308 20.5562 119.399 20.8716 119.399 21.2718C119.399 21.581 119.317 21.8721 119.153 22.145C118.99 22.4179 118.747 22.6392 118.426 22.809C118.104 22.9788 117.725 23.0637 117.289 23.0637ZM122.236 16.5783C122.836 16.5783 123.321 16.7481 123.691 17.0877C124.061 17.4273 124.246 17.882 124.246 18.4521C124.246 19.0888 124.049 19.5618 123.655 19.871C123.261 20.1742 122.727 20.3258 122.054 20.3258L122.027 21.1899H121.308L121.272 19.7528H121.536C122.136 19.7528 122.606 19.6618 122.945 19.4799C123.285 19.298 123.455 18.9554 123.455 18.4521C123.455 18.0882 123.346 17.8002 123.127 17.5879C122.909 17.3757 122.615 17.2696 122.245 17.2696C121.869 17.2696 121.572 17.3727 121.354 17.5788C121.141 17.779 121.035 18.0549 121.035 18.4066H120.253C120.253 18.0427 120.335 17.7244 120.499 17.4515C120.662 17.1726 120.893 16.9573 121.19 16.8057C121.493 16.6541 121.842 16.5783 122.236 16.5783ZM121.663 23.0546C121.505 23.0546 121.372 23 121.263 22.8908C121.154 22.7817 121.099 22.6483 121.099 22.4906C121.099 22.333 121.154 22.1996 121.263 22.0904C121.372 21.9813 121.505 21.9267 121.663 21.9267C121.815 21.9267 121.942 21.9813 122.045 22.0904C122.154 22.1996 122.209 22.333 122.209 22.4906C122.209 22.6483 122.154 22.7817 122.045 22.8908C121.942 23 121.815 23.0546 121.663 23.0546Z" fill="black"/>
</svg>
