<svg width="36" height="36" viewBox="0 0 36 36" fill="none" xmlns="http://www.w3.org/2000/svg">
<path d="M4.5 21V15C4.5 9.34315 4.5 6.51472 6.25736 4.75736C8.01472 3 10.8431 3 16.5 3H19.5C25.1569 3 27.9853 3 29.7426 4.75736C31.5 6.51472 31.5 9.34315 31.5 15V21C31.5 26.6569 31.5 29.4853 29.7426 31.2426C27.9853 33 25.1569 33 19.5 33H16.5C10.8431 33 8.01472 33 6.25736 31.2426C4.5 29.4853 4.5 26.6569 4.5 21Z" stroke="white" stroke-width="2.25"/>
<path d="M12 12L12.7998 11.2088C12.5885 10.9952 12.3005 10.875 12 10.875C11.6995 10.875 11.4115 10.9952 11.2002 11.2088L12 12ZM10.5 9.375C9.87868 9.375 9.375 9.87868 9.375 10.5C9.375 11.1213 9.87868 11.625 10.5 11.625V9.375ZM25.5 11.625C26.1213 11.625 26.625 11.1213 26.625 10.5C26.625 9.87868 26.1213 9.375 25.5 9.375V11.625ZM24 12L24.7998 11.2088C24.5885 10.9952 24.3005 10.875 24 10.875C23.6995 10.875 23.4115 10.9952 23.2002 11.2088L24 12ZM19.125 10.5C19.125 9.87868 18.6213 9.375 18 9.375C17.3787 9.375 16.875 9.87868 16.875 10.5H19.125ZM18.75 22.125C19.3713 22.125 19.875 21.6213 19.875 21C19.875 20.3787 19.3713 19.875 18.75 19.875V22.125ZM17.25 19.875C16.6287 19.875 16.125 20.3787 16.125 21C16.125 21.6213 16.6287 22.125 17.25 22.125V19.875ZM14.25 15.6H13.125C13.125 16.3737 12.554 16.875 12 16.875V18V19.125C13.9313 19.125 15.375 17.4773 15.375 15.6H14.25ZM12 18V16.875C11.446 16.875 10.875 16.3737 10.875 15.6H9.75H8.625C8.625 17.4773 10.0687 19.125 12 19.125V18ZM9.75 15.6H10.875C10.875 15.5464 10.9117 15.3535 11.0965 15.0035C11.2668 14.6807 11.5072 14.3277 11.7681 13.9871C12.0259 13.6505 12.2865 13.3485 12.484 13.1294C12.5821 13.0206 12.6634 12.9337 12.7191 12.875C12.7469 12.8457 12.7683 12.8236 12.7821 12.8093C12.789 12.8022 12.794 12.797 12.797 12.794C12.7985 12.7925 12.7995 12.7915 12.8 12.791C12.8002 12.7907 12.8003 12.7906 12.8003 12.7907C12.8003 12.7907 12.8002 12.7907 12.8001 12.7908C12.8001 12.7909 12.8 12.791 12.8 12.791C12.7999 12.7911 12.7998 12.7912 12 12C11.2002 11.2088 11.2001 11.2089 11.2 11.2091C11.1999 11.2091 11.1998 11.2093 11.1997 11.2094C11.1994 11.2096 11.1992 11.2099 11.1989 11.2102C11.1983 11.2107 11.1976 11.2115 11.1968 11.2123C11.1951 11.2141 11.1928 11.2163 11.1901 11.2191C11.1845 11.2248 11.1769 11.2326 11.1674 11.2424C11.1482 11.2621 11.1213 11.2901 11.0876 11.3256C11.0202 11.3965 10.9257 11.4977 10.8129 11.6228C10.5885 11.8716 10.2866 12.2211 9.98191 12.6188C9.68032 13.0125 9.35819 13.4766 9.10665 13.9532C8.86953 14.4024 8.625 14.9908 8.625 15.6H9.75ZM12 12C11.2002 12.7912 11.2001 12.7911 11.2 12.791C11.2 12.791 11.1999 12.7909 11.1999 12.7908C11.1998 12.7907 11.1997 12.7907 11.1997 12.7907C11.1997 12.7906 11.1998 12.7907 11.2 12.791C11.2005 12.7915 11.2015 12.7925 11.203 12.794C11.206 12.797 11.211 12.8022 11.2179 12.8093C11.2317 12.8236 11.2531 12.8457 11.2809 12.875C11.3366 12.9337 11.4179 13.0206 11.516 13.1294C11.7135 13.3485 11.9741 13.6505 12.2319 13.9871C12.4928 14.3277 12.7332 14.6807 12.9035 15.0035C13.0883 15.3535 13.125 15.5464 13.125 15.6H14.25H15.375C15.375 14.9908 15.1305 14.4024 14.8933 13.9532C14.6418 13.4766 14.3197 13.0125 14.0181 12.6188C13.7134 12.2211 13.4115 11.8716 13.1871 11.6228C13.0743 11.4977 12.9798 11.3965 12.9124 11.3256C12.8787 11.2901 12.8518 11.2621 12.8326 11.2424C12.8231 11.2326 12.8155 11.2248 12.8099 11.2191C12.8072 11.2163 12.8049 11.2141 12.8032 11.2123C12.8024 11.2115 12.8017 11.2107 12.8011 11.2102C12.8008 11.2099 12.8006 11.2096 12.8003 11.2094C12.8002 11.2093 12.8001 11.2091 12.8 11.2091C12.7999 11.2089 12.7998 11.2088 12 12ZM10.5 10.5V11.625H25.5V10.5V9.375H10.5V10.5ZM26.25 15.6H25.125C25.125 16.3737 24.554 16.875 24 16.875V18V19.125C25.9313 19.125 27.375 17.4773 27.375 15.6H26.25ZM24 18V16.875C23.446 16.875 22.875 16.3737 22.875 15.6H21.75H20.625C20.625 17.4773 22.0687 19.125 24 19.125V18ZM21.75 15.6H22.875C22.875 15.5464 22.9117 15.3535 23.0965 15.0035C23.2668 14.6807 23.5072 14.3277 23.7681 13.9871C24.0259 13.6505 24.2865 13.3485 24.484 13.1294C24.5821 13.0206 24.6634 12.9337 24.7191 12.875C24.7469 12.8457 24.7683 12.8236 24.7821 12.8093C24.789 12.8022 24.794 12.797 24.797 12.794C24.7985 12.7925 24.7995 12.7915 24.8 12.791C24.8002 12.7907 24.8003 12.7906 24.8003 12.7907C24.8003 12.7907 24.8002 12.7907 24.8001 12.7908C24.8001 12.7909 24.8 12.791 24.8 12.791C24.7999 12.7911 24.7998 12.7912 24 12C23.2002 11.2088 23.2001 11.2089 23.2 11.2091C23.1999 11.2091 23.1998 11.2093 23.1997 11.2094C23.1994 11.2096 23.1992 11.2099 23.1989 11.2102C23.1983 11.2107 23.1976 11.2115 23.1968 11.2123C23.1951 11.2141 23.1928 11.2163 23.1901 11.2191C23.1845 11.2248 23.1769 11.2326 23.1674 11.2424C23.1482 11.2621 23.1213 11.2901 23.0876 11.3256C23.0202 11.3965 22.9257 11.4977 22.8129 11.6228C22.5885 11.8716 22.2866 12.2211 21.9819 12.6188C21.6803 13.0125 21.3582 13.4766 21.1067 13.9532C20.8695 14.4024 20.625 14.9908 20.625 15.6H21.75ZM24 12C23.2002 12.7912 23.2001 12.7911 23.2 12.791C23.2 12.791 23.1999 12.7909 23.1999 12.7908C23.1998 12.7907 23.1997 12.7907 23.1997 12.7907C23.1997 12.7906 23.1998 12.7907 23.2 12.791C23.2005 12.7915 23.2015 12.7925 23.203 12.794C23.206 12.797 23.211 12.8022 23.2179 12.8093C23.2317 12.8236 23.2531 12.8457 23.2809 12.875C23.3366 12.9337 23.4179 13.0206 23.516 13.1294C23.7135 13.3485 23.9741 13.6505 24.2319 13.9871C24.4928 14.3277 24.7332 14.6807 24.9035 15.0035C25.0883 15.3535 25.125 15.5464 25.125 15.6H26.25H27.375C27.375 14.9908 27.1305 14.4024 26.8933 13.9532C26.6418 13.4766 26.3197 13.0125 26.0181 12.6188C25.7134 12.2211 25.4115 11.8716 25.1871 11.6228C25.0743 11.4977 24.9798 11.3965 24.9124 11.3256C24.8787 11.2901 24.8518 11.2621 24.8326 11.2424C24.8231 11.2326 24.8155 11.2248 24.8099 11.2191C24.8072 11.2163 24.8049 11.2141 24.8032 11.2123C24.8024 11.2115 24.8017 11.2107 24.8011 11.2102C24.8008 11.2099 24.8006 11.2096 24.8003 11.2094C24.8002 11.2093 24.8001 11.2091 24.8 11.2091C24.7999 11.2089 24.7998 11.2088 24 12ZM18 10.5H16.875V21H18H19.125V10.5H18ZM18 21V22.125H18.75V21V19.875H18V21ZM18 21V19.875H17.25V21V22.125H18V21Z" fill="white"/>
<path d="M12 27H24" stroke="white" stroke-width="2.25" stroke-linecap="round"/>
</svg>
