<svg width="70" height="65" viewBox="0 0 70 65" fill="none" xmlns="http://www.w3.org/2000/svg">
<rect width="70" height="64.0244" rx="12.8049" fill="#157B01"/>
<path d="M23.384 30.7622L23.5751 34.7958C23.7805 39.0979 23.8831 41.2489 25.3326 42.5681C26.7821 43.8872 29.043 43.8872 33.5648 43.8872H35.7033C40.2251 43.8872 42.486 43.8872 43.9355 42.5681C45.3849 41.2489 45.4876 39.0979 45.6929 34.7958L45.884 30.7622" stroke="white" stroke-width="1.875" stroke-linecap="round" stroke-linejoin="round"/>
<path d="M23.193 30.066C25.3171 34.1052 30.108 35.7622 34.634 35.7622C39.16 35.7622 43.9509 34.1052 46.0751 30.066C47.089 28.1379 46.3212 24.5122 43.824 24.5122H25.444C22.9468 24.5122 22.1791 28.1379 23.193 30.066Z" stroke="white" stroke-width="1.875"/>
<path d="M34.634 30.7622H34.6453" stroke="white" stroke-width="2.5" stroke-linecap="round" stroke-linejoin="round"/>
<path d="M39.6338 24.5122L39.5234 24.1259C38.9734 22.2008 38.6984 21.2383 38.0437 20.6878C37.3889 20.1372 36.5193 20.1372 34.78 20.1372H34.4876C32.7483 20.1372 31.8786 20.1372 31.2239 20.6878C30.5692 21.2383 30.2942 22.2008 29.7442 24.1259L29.6338 24.5122" stroke="white" stroke-width="1.875"/>
</svg>
