<svg width="113" height="39" viewBox="0 0 113 39" fill="none" xmlns="http://www.w3.org/2000/svg">
<rect x="0.5" y="0.5" width="112" height="38" rx="19" fill="white"/>
<rect x="0.5" y="0.5" width="112" height="38" rx="19" stroke="#C2C2C2"/>
<rect x="5.30566" y="4.33984" width="30.3196" height="30.3196" rx="15.1598" fill="#157B01"/>
<path d="M13.1521 20.4187C12.8845 18.6773 12.7507 17.8067 13.0799 17.0349C13.4091 16.2631 14.1395 15.735 15.6002 14.6788L16.6916 13.8897C18.5087 12.5759 19.4173 11.9189 20.4657 11.9189C21.514 11.9189 22.4226 12.5759 24.2397 13.8897L25.3311 14.6788C26.7918 15.735 27.5222 16.2631 27.8514 17.0349C28.1806 17.8067 28.0468 18.6773 27.7792 20.4187L27.551 21.9035C27.1717 24.3719 26.982 25.6061 26.0968 26.3425C25.2115 27.0788 23.9173 27.0788 21.3289 27.0788H19.6025C17.014 27.0788 15.7198 27.0788 14.8345 26.3425C13.9493 25.6061 13.7596 24.3719 13.3803 21.9035L13.1521 20.4187Z" stroke="white" stroke-width="1.13699" stroke-linejoin="round"/>
<path d="M19.8972 20.4462C20.7967 21.3458 21.9816 22.26 21.9816 22.26L23.6059 20.6357C23.6059 20.6357 22.6917 19.4509 21.7921 18.5513C20.8925 17.6517 19.7077 16.7375 19.7077 16.7375L18.0834 18.3618C18.0834 18.3618 18.9976 19.5467 19.8972 20.4462ZM19.8972 20.4462L17.0547 23.2887M23.8766 20.3651L21.711 22.5307M19.9783 16.4668L17.8127 18.6325" stroke="white" stroke-width="1.13699" stroke-linecap="round" stroke-linejoin="round"/>
<path d="M47.0076 17.3333V19.4526H49.318V20.1348H47.0076V22.3178H49.5908V23H46.1799V16.6511H49.5908V17.3333H47.0076ZM53.4356 19.8346L55.3821 23H54.4453L52.9263 20.5259L51.48 23H50.5613L52.4987 19.8346L50.5522 16.6602H51.48L53.0081 19.1433L54.4635 16.6602H55.3912L53.4356 19.8346ZM60.7314 18.5157C60.7314 19.0433 60.5495 19.4829 60.1856 19.8346C59.8279 20.1803 59.2791 20.3531 58.5393 20.3531H57.3204V23H56.4927V16.6602H58.5393C59.2548 16.6602 59.7975 16.833 60.1674 17.1786C60.5434 17.5243 60.7314 17.97 60.7314 18.5157ZM58.5393 19.6709C59.0001 19.6709 59.3397 19.5708 59.558 19.3707C59.7763 19.1706 59.8855 18.8856 59.8855 18.5157C59.8855 17.7335 59.4367 17.3424 58.5393 17.3424H57.3204V19.6709H58.5393ZM62.5879 17.3333V19.4526H64.8982V20.1348H62.5879V22.3178H65.1711V23H61.7601V16.6511H65.1711V17.3333H62.5879ZM69.7618 23L68.2518 20.4077H67.2513V23H66.4236V16.6602H68.4701C68.9492 16.6602 69.3524 16.742 69.6799 16.9058C70.0134 17.0695 70.262 17.2908 70.4258 17.5698C70.5895 17.8487 70.6713 18.1671 70.6713 18.5248C70.6713 18.9614 70.544 19.3465 70.2893 19.68C70.0407 20.0135 69.6647 20.2348 69.1614 20.344L70.7532 23H69.7618ZM67.2513 19.7437H68.4701C68.9189 19.7437 69.2554 19.6345 69.4798 19.4162C69.7041 19.1919 69.8163 18.8947 69.8163 18.5248C69.8163 18.1489 69.7041 17.8578 69.4798 17.6516C69.2615 17.4454 68.9249 17.3424 68.4701 17.3424H67.2513V19.7437ZM75.8596 16.6602V17.3333H74.1314V23H73.3037V17.3333H71.5664V16.6602H75.8596ZM77.7062 16.6602V23H76.8785V16.6602H77.7062ZM81.1271 23.0637C80.7087 23.0637 80.3328 22.9909 79.9992 22.8454C79.6718 22.6938 79.4141 22.4876 79.2261 22.2268C79.0381 21.96 78.9411 21.6538 78.935 21.3082H79.8173C79.8476 21.6053 79.9689 21.8569 80.1812 22.0631C80.3995 22.2632 80.7148 22.3633 81.1271 22.3633C81.5213 22.3633 81.8306 22.2663 82.0549 22.0722C82.2853 21.8721 82.4006 21.6174 82.4006 21.3082C82.4006 21.0656 82.3339 20.8685 82.2005 20.7169C82.067 20.5653 81.9003 20.4501 81.7002 20.3713C81.5001 20.2925 81.2302 20.2076 80.8906 20.1166C80.4722 20.0075 80.1357 19.8983 79.881 19.7892C79.6324 19.68 79.4171 19.5102 79.2352 19.2798C79.0593 19.0433 78.9714 18.728 78.9714 18.3338C78.9714 17.9882 79.0593 17.6819 79.2352 17.4151C79.411 17.1483 79.6566 16.9421 79.972 16.7966C80.2933 16.6511 80.6602 16.5783 81.0726 16.5783C81.6668 16.5783 82.1519 16.7269 82.5279 17.024C82.9099 17.3211 83.1252 17.7153 83.1737 18.2065H82.2641C82.2338 17.9639 82.1065 17.7517 81.8821 17.5698C81.6577 17.3818 81.3606 17.2878 80.9907 17.2878C80.6451 17.2878 80.3631 17.3787 80.1448 17.5607C79.9265 17.7365 79.8173 17.9851 79.8173 18.3065C79.8173 18.5369 79.881 18.7249 80.0083 18.8705C80.1417 19.016 80.3024 19.1282 80.4904 19.207C80.6845 19.2798 80.9543 19.3647 81.3 19.4617C81.7184 19.5769 82.0549 19.6921 82.3096 19.8073C82.5643 19.9165 82.7826 20.0893 82.9645 20.3258C83.1464 20.5562 83.2374 20.8716 83.2374 21.2718C83.2374 21.581 83.1555 21.8721 82.9918 22.145C82.8281 22.4179 82.5855 22.6392 82.2641 22.809C81.9427 22.9788 81.5637 23.0637 81.1271 23.0637ZM85.2832 17.3333V19.4526H87.5935V20.1348H85.2832V22.3178H87.8664V23H84.4555V16.6511H87.8664V17.3333H85.2832Z" fill="black"/>
</svg>
