<svg width="108" height="39" viewBox="0 0 108 39" fill="none" xmlns="http://www.w3.org/2000/svg">
<rect width="108" height="39" rx="19.5" fill="#D3D3D3"/>
<rect x="5.30593" y="4.34033" width="30.3196" height="30.3196" rx="15.1598" fill="#157B01"/>
<path d="M13.1522 20.4201C12.8846 18.6788 12.7508 17.8082 13.08 17.0364C13.4092 16.2645 14.1396 15.7365 15.6003 14.6803L16.6917 13.8912C18.5089 12.5773 19.4174 11.9204 20.4658 11.9204C21.5141 11.9204 22.4227 12.5773 24.2398 13.8912L25.3312 14.6803C26.792 15.7365 27.5223 16.2645 27.8515 17.0364C28.1807 17.8082 28.0469 18.6788 27.7793 20.4201L27.5512 21.905C27.1718 24.3734 26.9821 25.6076 26.0969 26.3439C25.2116 27.0802 23.9174 27.0802 21.329 27.0802H19.6026C17.0141 27.0802 15.7199 27.0802 14.8347 26.3439C13.9494 25.6076 13.7597 24.3734 13.3804 21.905L13.1522 20.4201Z" stroke="#D3D3D3" stroke-width="1.13699" stroke-linejoin="round"/>
<path d="M19.8973 20.4477C20.7969 21.3473 21.9818 22.2615 21.9818 22.2615L23.606 20.6372C23.606 20.6372 22.6918 19.4523 21.7923 18.5527C20.8927 17.6531 19.7078 16.739 19.7078 16.739L18.0835 18.3632C18.0835 18.3632 18.9977 19.5481 19.8973 20.4477ZM19.8973 20.4477L17.0548 23.2902M23.8767 20.3665L21.7111 22.5322M19.9785 16.4683L17.8128 18.6339" stroke="#D3D3D3" stroke-width="1.13699" stroke-linecap="round" stroke-linejoin="round"/>
<path d="M47.0076 17.3333V19.4526H49.3179V20.1348H47.0076V22.3178H49.5908V23H46.1798V16.6511H49.5908V17.3333H47.0076ZM53.4356 19.8346L55.3821 23H54.4452L52.9262 20.5259L51.48 23H50.5613L52.4987 19.8346L50.5522 16.6602H51.48L53.0081 19.1433L54.4634 16.6602H55.3912L53.4356 19.8346ZM60.7313 18.5157C60.7313 19.0433 60.5494 19.4829 60.1856 19.8346C59.8278 20.1803 59.279 20.3531 58.5392 20.3531H57.3204V23H56.4927V16.6602H58.5392C59.2548 16.6602 59.7975 16.833 60.1674 17.1786C60.5434 17.5243 60.7313 17.97 60.7313 18.5157ZM58.5392 19.6709C59.0001 19.6709 59.3397 19.5708 59.558 19.3707C59.7763 19.1706 59.8854 18.8856 59.8854 18.5157C59.8854 17.7335 59.4367 17.3424 58.5392 17.3424H57.3204V19.6709H58.5392ZM62.5878 22.3269H64.8072V23H61.7601V16.6602H62.5878V22.3269ZM68.5606 23.0637C67.9724 23.0637 67.4357 22.9272 66.9506 22.6544C66.4655 22.3754 66.0804 21.9904 65.7954 21.4992C65.5165 21.0019 65.377 20.4441 65.377 19.8255C65.377 19.207 65.5165 18.6522 65.7954 18.161C66.0804 17.6637 66.4655 17.2787 66.9506 17.0058C67.4357 16.7269 67.9724 16.5874 68.5606 16.5874C69.1548 16.5874 69.6945 16.7269 70.1796 17.0058C70.6647 17.2787 71.0468 17.6607 71.3257 18.1519C71.6046 18.6431 71.7441 19.2009 71.7441 19.8255C71.7441 20.4501 71.6046 21.008 71.3257 21.4992C71.0468 21.9904 70.6647 22.3754 70.1796 22.6544C69.6945 22.9272 69.1548 23.0637 68.5606 23.0637ZM68.5606 22.3451C69.0032 22.3451 69.4004 22.242 69.7521 22.0358C70.1099 21.8297 70.3888 21.5356 70.5889 21.1535C70.7951 20.7715 70.8982 20.3288 70.8982 19.8255C70.8982 19.3162 70.7951 18.8735 70.5889 18.4975C70.3888 18.1155 70.1129 17.8214 69.7612 17.6152C69.4095 17.4091 69.0093 17.306 68.5606 17.306C68.1118 17.306 67.7116 17.4091 67.3599 17.6152C67.0082 17.8214 66.7292 18.1155 66.5231 18.4975C66.323 18.8735 66.2229 19.3162 66.2229 19.8255C66.2229 20.3288 66.323 20.7715 66.5231 21.1535C66.7292 21.5356 67.0082 21.8297 67.3599 22.0358C67.7177 22.242 68.1179 22.3451 68.5606 22.3451ZM76.175 23L74.6651 20.4077H73.6646V23H72.8368V16.6602H74.8834C75.3625 16.6602 75.7657 16.742 76.0932 16.9058C76.4267 17.0695 76.6753 17.2908 76.839 17.5698C77.0027 17.8487 77.0846 18.1671 77.0846 18.5248C77.0846 18.9614 76.9573 19.3465 76.7026 19.68C76.454 20.0135 76.078 20.2348 75.5747 20.344L77.1665 23H76.175ZM73.6646 19.7437H74.8834C75.3321 19.7437 75.6687 19.6345 75.8931 19.4162C76.1174 19.1919 76.2296 18.8947 76.2296 18.5248C76.2296 18.1489 76.1174 17.8578 75.8931 17.6516C75.6747 17.4454 75.3382 17.3424 74.8834 17.3424H73.6646V19.7437ZM79.1985 17.3333V19.4526H81.5088V20.1348H79.1985V22.3178H81.7817V23H78.3708V16.6511H81.7817V17.3333H79.1985Z" fill="black"/>
</svg>
