<svg width="36" height="36" viewBox="0 0 36 36" fill="none" xmlns="http://www.w3.org/2000/svg">
<path d="M9.2701 22.9446C7.38374 24.0502 2.43782 26.3079 5.45022 29.133C6.92175 30.513 8.56065 31.5 10.6212 31.5H22.3788C24.4393 31.5 26.0783 30.513 27.5498 29.133C30.5622 26.3079 25.6163 24.0502 23.7299 22.9446C19.3064 20.3518 13.6936 20.3518 9.2701 22.9446Z" stroke="white" stroke-width="2.25" stroke-linecap="round" stroke-linejoin="round"/>
<path d="M22.5 10.5C22.5 13.8137 19.8137 16.5 16.5 16.5C13.1863 16.5 10.5 13.8137 10.5 10.5C10.5 7.18629 13.1863 4.5 16.5 4.5C19.8137 4.5 22.5 7.18629 22.5 10.5Z" stroke="white" stroke-width="2.25"/>
<path d="M27 8.30769C27 7.03319 28.0074 6 29.25 6C30.4926 6 31.5 7.03319 31.5 8.30769C31.5 8.7671 31.3691 9.19515 31.1435 9.55476C30.4711 10.6265 29.25 11.6486 29.25 12.9231V13.5" stroke="white" stroke-width="2.25" stroke-linecap="round"/>
<path d="M29.2497 16.5H29.2632" stroke="white" stroke-width="2.25" stroke-linecap="round" stroke-linejoin="round"/>
</svg>
