<svg width="40" height="40" viewBox="0 0 40 40" fill="none" xmlns="http://www.w3.org/2000/svg">
<rect x="0.703735" y="0.941895" width="38.6667" height="38.6667" rx="19.3333" fill="white"/>
<path fill-rule="evenodd" clip-rule="evenodd" d="M13.7875 18.4848C12.7373 18.4848 12.5181 18.6909 12.5181 19.6782V21.4683C12.5181 22.4557 12.7373 22.6617 13.7875 22.6617H16.3262V29.8223C16.3262 30.8095 16.5454 31.0157 17.5956 31.0157H20.1343C21.1845 31.0157 21.4036 30.8095 21.4036 29.8223V22.6617H24.2542C25.0507 22.6617 25.256 22.5162 25.4748 21.7962L26.0188 20.0061C26.3936 18.7727 26.1626 18.4848 24.7982 18.4848H21.4036V15.5013C21.4036 14.8422 21.9719 14.3078 22.673 14.3078H26.2858C27.3359 14.3078 27.5552 14.1018 27.5552 13.1144V10.7276C27.5552 9.74024 27.3359 9.53418 26.2858 9.53418H22.673C19.1677 9.53418 16.3262 12.2057 16.3262 15.5013V18.4848H13.7875Z" stroke="black" stroke-width="1.61111" stroke-linejoin="round"/>
</svg>
