<svg width="70" height="65" viewBox="0 0 70 65" fill="none" xmlns="http://www.w3.org/2000/svg">
<rect y="0.487793" width="70" height="64.0244" rx="12.8049" fill="#157B01"/>
<path d="M47.1342 32.5C47.1342 25.5964 41.5377 20 34.6342 20C27.7306 20 22.1342 25.5964 22.1342 32.5C22.1342 39.4036 27.7306 45 34.6342 45C41.5377 45 47.1342 39.4036 47.1342 32.5Z" stroke="white" stroke-width="1.875"/>
<path d="M44.6342 24.6237C43.4657 24.7079 41.9692 25.1603 40.9315 26.5035C39.0572 28.9295 37.1829 29.1319 35.9334 28.3233C34.0591 27.1102 35.6342 25.1455 33.4343 24.0777C32.0006 23.3818 31.8007 21.4881 32.5986 20" stroke="white" stroke-width="1.875" stroke-linejoin="round"/>
<path d="M22.1342 31.25C23.0873 32.0776 24.4222 32.8352 25.9951 32.8352C29.2447 32.8352 29.8946 33.4561 29.8946 35.9397C29.8946 38.4233 29.8946 38.4233 30.5445 40.2861C30.9673 41.4977 31.1151 42.7093 30.2724 43.75" stroke="white" stroke-width="1.875" stroke-linejoin="round"/>
<path d="M47.1342 34.3154C46.0253 33.6764 44.6342 33.4135 43.2259 34.4256C40.5312 36.3623 38.6734 34.7575 37.8366 36.3612C36.6048 38.7219 41.0038 39.4639 37.1342 45" stroke="white" stroke-width="1.875" stroke-linejoin="round"/>
</svg>
