<svg width="40" height="40" viewBox="0 0 40 40" fill="none" xmlns="http://www.w3.org/2000/svg">
<rect x="0.555664" y="0.941895" width="38.6667" height="38.6667" rx="19.3333" fill="white"/>
<path d="M9.68512 20.2755C9.68512 15.4654 9.68512 13.0604 11.1794 11.5661C12.6737 10.0718 15.0788 10.0718 19.8888 10.0718C24.6988 10.0718 27.1039 10.0718 28.5983 11.5661C30.0925 13.0604 30.0925 15.4654 30.0925 20.2755C30.0925 25.0855 30.0925 27.4906 28.5983 28.9849C27.1039 30.4792 24.6988 30.4792 19.8888 30.4792C15.0788 30.4792 12.6737 30.4792 11.1794 28.9849C9.68512 27.4906 9.68512 25.0855 9.68512 20.2755Z" stroke="black" stroke-width="1.61111" stroke-linejoin="round"/>
<path d="M24.7224 20.2752C24.7224 22.9446 22.5585 25.1086 19.8891 25.1086C17.2197 25.1086 15.0557 22.9446 15.0557 20.2752C15.0557 17.6059 17.2197 15.4419 19.8891 15.4419C22.5585 15.4419 24.7224 17.6059 24.7224 20.2752Z" stroke="black" stroke-width="1.61111"/>
<path d="M25.8041 14.3677H25.7951" stroke="black" stroke-width="2.14815" stroke-linecap="round" stroke-linejoin="round"/>
</svg>
