<svg width="166" height="39" viewBox="0 0 166 39" fill="none" xmlns="http://www.w3.org/2000/svg">
<rect x="0.5" y="0.5" width="165" height="37.6575" rx="18.8288" fill="white"/>
<rect x="0.5" y="0.5" width="165" height="37.6575" rx="18.8288" stroke="#C2C2C2"/>
<rect x="5.30591" y="4.16895" width="30.3196" height="30.3196" rx="15.1598" fill="#157B01"/>
<path d="M13.1521 20.2486C12.8845 18.5072 12.7507 17.6366 13.0799 16.8648C13.4091 16.093 14.1395 15.5649 15.6002 14.5087L16.6916 13.7196C18.5087 12.4058 19.4173 11.7488 20.4657 11.7488C21.514 11.7488 22.4226 12.4058 24.2397 13.7196L25.3311 14.5087C26.7918 15.5649 27.5222 16.093 27.8514 16.8648C28.1806 17.6366 28.0468 18.5072 27.7792 20.2486L27.551 21.7334C27.1717 24.2018 26.982 25.436 26.0968 26.1723C25.2115 26.9087 23.9173 26.9087 21.3289 26.9087H19.6025C17.014 26.9087 15.7198 26.9087 14.8345 26.1723C13.9493 25.436 13.7596 24.2018 13.3803 21.7334L13.1521 20.2486Z" stroke="white" stroke-width="1.13699" stroke-linejoin="round"/>
<path d="M19.8972 20.2762C20.7967 21.1758 21.9816 22.09 21.9816 22.09L23.6059 20.4657C23.6059 20.4657 22.6917 19.2808 21.7921 18.3813C20.8925 17.4817 19.7077 16.5675 19.7077 16.5675L18.0834 18.1918C18.0834 18.1918 18.9976 19.3767 19.8972 20.2762ZM19.8972 20.2762L17.0547 23.1187M23.8766 20.1951L21.711 22.3607M19.9783 16.2968L17.8127 18.4624" stroke="white" stroke-width="1.13699" stroke-linecap="round" stroke-linejoin="round"/>
<path d="M47.0076 22.1557H49.227V22.8288H46.1799V16.4889H47.0076V22.1557ZM53.8535 21.4189H51.0884L50.579 22.8288H49.7058L51.998 16.5253H52.953L55.2361 22.8288H54.3629L53.8535 21.4189ZM53.617 20.7458L52.471 17.5441L51.3249 20.7458H53.617ZM64.2031 16.4889L62.3657 22.8288H61.4379L59.9644 17.726L58.4363 22.8288L57.5176 22.8379L55.7439 16.4889H56.6262L58.0088 21.8646L59.5369 16.4889H60.4647L61.92 21.8464L63.3117 16.4889H64.2031ZM71.2814 21.4189H68.5163L68.0069 22.8288H67.1337L69.4258 16.5253H70.3809L72.664 22.8288H71.7908L71.2814 21.4189ZM71.0449 20.7458L69.8988 17.5441L68.7527 20.7458H71.0449ZM73.3537 19.6543C73.3537 19.0358 73.4932 18.4809 73.7721 17.9898C74.0511 17.4925 74.4301 17.1044 74.9091 16.8255C75.3942 16.5465 75.9309 16.4071 76.5191 16.4071C77.2104 16.4071 77.8137 16.5738 78.3292 16.9073C78.8446 17.2409 79.2206 17.7138 79.457 18.3263H78.4656C78.2897 17.9443 78.0351 17.6502 77.7015 17.444C77.3741 17.2378 76.9799 17.1347 76.5191 17.1347C76.0764 17.1347 75.6792 17.2378 75.3275 17.444C74.9758 17.6502 74.6999 17.9443 74.4998 18.3263C74.2997 18.7023 74.1996 19.1449 74.1996 19.6543C74.1996 20.1576 74.2997 20.6003 74.4998 20.9823C74.6999 21.3583 74.9758 21.6493 75.3275 21.8555C75.6792 22.0617 76.0764 22.1648 76.5191 22.1648C76.9799 22.1648 77.3741 22.0647 77.7015 21.8646C78.0351 21.6584 78.2897 21.3643 78.4656 20.9823H79.457C79.2206 21.5887 78.8446 22.0586 78.3292 22.3922C77.8137 22.7196 77.2104 22.8833 76.5191 22.8833C75.9309 22.8833 75.3942 22.7469 74.9091 22.474C74.4301 22.1951 74.0511 21.81 73.7721 21.3188C73.4932 20.8277 73.3537 20.2728 73.3537 19.6543ZM80.3799 19.6543C80.3799 19.0358 80.5194 18.4809 80.7983 17.9898C81.0773 17.4925 81.4563 17.1044 81.9353 16.8255C82.4204 16.5465 82.9571 16.4071 83.5453 16.4071C84.2366 16.4071 84.8399 16.5738 85.3554 16.9073C85.8708 17.2409 86.2468 17.7138 86.4833 18.3263H85.4918C85.316 17.9443 85.0613 17.6502 84.7278 17.444C84.4003 17.2378 84.0062 17.1347 83.5453 17.1347C83.1026 17.1347 82.7054 17.2378 82.3537 17.444C82.002 17.6502 81.7261 17.9443 81.526 18.3263C81.3259 18.7023 81.2258 19.1449 81.2258 19.6543C81.2258 20.1576 81.3259 20.6003 81.526 20.9823C81.7261 21.3583 82.002 21.6493 82.3537 21.8555C82.7054 22.0617 83.1026 22.1648 83.5453 22.1648C84.0062 22.1648 84.4003 22.0647 84.7278 21.8646C85.0613 21.6584 85.316 21.3643 85.4918 20.9823H86.4833C86.2468 21.5887 85.8708 22.0586 85.3554 22.3922C84.8399 22.7196 84.2366 22.8833 83.5453 22.8833C82.9571 22.8833 82.4204 22.7469 81.9353 22.474C81.4563 22.1951 81.0773 21.81 80.7983 21.3188C80.5194 20.8277 80.3799 20.2728 80.3799 19.6543ZM88.5431 17.162V19.2814H90.8535V19.9636H88.5431V22.1466H91.1264V22.8288H87.7154V16.4798H91.1264V17.162H88.5431ZM97.3634 22.8288H96.5356L93.2065 17.7805V22.8288H92.3788V16.4798H93.2065L96.5356 21.519V16.4798H97.3634V22.8288ZM102.677 16.4889V17.162H100.948V22.8288H100.121V17.162H98.3833V16.4889H102.677ZM111.105 22.8288H110.277L106.948 17.7805V22.8288H106.12V16.4798H106.948L110.277 21.519V16.4798H111.105V22.8288ZM113.344 16.4889V22.8288H112.516V16.4889H113.344ZM119.557 18.3263C119.381 17.9564 119.126 17.6714 118.793 17.4713C118.459 17.2651 118.071 17.162 117.629 17.162C117.186 17.162 116.786 17.2651 116.428 17.4713C116.076 17.6714 115.797 17.9625 115.591 18.3445C115.391 18.7205 115.291 19.1571 115.291 19.6543C115.291 20.1515 115.391 20.5881 115.591 20.9641C115.797 21.3401 116.076 21.6311 116.428 21.8373C116.786 22.0374 117.186 22.1375 117.629 22.1375C118.247 22.1375 118.757 21.9525 119.157 21.5826C119.557 21.2127 119.79 20.7125 119.857 20.0818H117.328V19.4087H120.739V20.0454C120.691 20.5669 120.527 21.046 120.248 21.4826C119.969 21.9131 119.602 22.2557 119.148 22.5104C118.693 22.759 118.187 22.8833 117.629 22.8833C117.04 22.8833 116.504 22.7469 116.019 22.474C115.534 22.1951 115.149 21.81 114.864 21.3188C114.585 20.8277 114.445 20.2728 114.445 19.6543C114.445 19.0358 114.585 18.4809 114.864 17.9898C115.149 17.4925 115.534 17.1075 116.019 16.8346C116.504 16.5556 117.04 16.4162 117.629 16.4162C118.302 16.4162 118.896 16.5829 119.411 16.9164C119.933 17.25 120.312 17.7199 120.548 18.3263H119.557ZM122.662 17.162V19.2814H124.972V19.9636H122.662V22.1466H125.245V22.8288H121.834V16.4798H125.245V17.162H122.662ZM129.835 22.8288L128.326 20.2364H127.325V22.8288H126.497V16.4889H128.544C129.023 16.4889 129.426 16.5708 129.754 16.7345C130.087 16.8982 130.336 17.1196 130.499 17.3985C130.663 17.6775 130.745 17.9958 130.745 18.3536C130.745 18.7902 130.618 19.1752 130.363 19.5088C130.114 19.8423 129.738 20.0636 129.235 20.1728L130.827 22.8288H129.835ZM127.325 19.5724H128.544C128.993 19.5724 129.329 19.4633 129.554 19.245C129.778 19.0206 129.89 18.7235 129.89 18.3536C129.89 17.9776 129.778 17.6866 129.554 17.4804C129.335 17.2742 128.999 17.1711 128.544 17.1711H127.325V19.5724ZM132.859 16.4889V22.8288H132.031V16.4889H132.859ZM138.017 21.4189H135.252L134.743 22.8288H133.869L136.162 16.5253H137.117L139.4 22.8288H138.527L138.017 21.4189ZM137.781 20.7458L136.635 17.5441L135.489 20.7458H137.781Z" fill="black"/>
</svg>
