<svg width="166" height="39" viewBox="0 0 166 39" fill="none" xmlns="http://www.w3.org/2000/svg">
<rect width="166" height="38.6575" rx="19.3288" fill="white"/>
<rect x="5.30591" y="4.16895" width="30.3196" height="30.3196" rx="15.1598" fill="#157B01"/>
<path d="M13.1522 20.2486C12.8846 18.5073 12.7508 17.6367 13.08 16.8648C13.4092 16.093 14.1396 15.5649 15.6003 14.5088L16.6917 13.7196C18.5089 12.4058 19.4174 11.7489 20.4658 11.7489C21.5142 11.7489 22.4227 12.4058 24.2398 13.7196L25.3312 14.5088C26.792 15.5649 27.5223 16.093 27.8515 16.8648C28.1807 17.6367 28.0469 18.5073 27.7793 20.2486L27.5512 21.7334C27.1718 24.2018 26.9821 25.4361 26.0969 26.1724C25.2116 26.9087 23.9174 26.9087 21.329 26.9087H19.6026C17.0141 26.9087 15.7199 26.9087 14.8347 26.1724C13.9494 25.4361 13.7597 24.2018 13.3804 21.7334L13.1522 20.2486Z" stroke="white" stroke-width="1.13699" stroke-linejoin="round"/>
<path d="M19.8973 20.2763C20.7969 21.1758 21.9818 22.0901 21.9818 22.0901L23.606 20.4658C23.606 20.4658 22.6918 19.2809 21.7923 18.3813C20.8927 17.4817 19.7078 16.5675 19.7078 16.5675L18.0835 18.1918C18.0835 18.1918 18.9977 19.3767 19.8973 20.2763ZM19.8973 20.2763L17.0548 23.1187M23.8767 20.1951L21.7111 22.3607M19.9785 16.2968L17.8128 18.4625" stroke="white" stroke-width="1.13699" stroke-linecap="round" stroke-linejoin="round"/>
<path d="M47.0075 22.1557H49.2269V22.8288H46.1798V16.4889H47.0075V22.1557ZM53.8535 21.4189H51.0883L50.579 22.8288H49.7058L51.9979 16.5253H52.953L55.2361 22.8288H54.3628L53.8535 21.4189ZM53.617 20.7458L52.4709 17.5441L51.3248 20.7458H53.617ZM64.203 16.4889L62.3657 22.8288H61.4379L59.9644 17.726L58.4362 22.8288L57.5176 22.8379L55.7439 16.4889H56.6262L58.0087 21.8646L59.5368 16.4889H60.4646L61.92 21.8464L63.3116 16.4889H64.203ZM71.2813 21.4189H68.5162L68.0068 22.8288H67.1336L69.4258 16.5253H70.3809L72.6639 22.8288H71.7907L71.2813 21.4189ZM71.0449 20.7458L69.8988 17.5441L68.7527 20.7458H71.0449ZM73.3536 19.6543C73.3536 19.0358 73.4931 18.4809 73.7721 17.9898C74.051 17.4925 74.43 17.1044 74.909 16.8255C75.3942 16.5465 75.9308 16.4071 76.519 16.4071C77.2103 16.4071 77.8137 16.5738 78.3291 16.9073C78.8445 17.2409 79.2205 17.7138 79.457 18.3263H78.4655C78.2897 17.9443 78.035 17.6502 77.7015 17.444C77.374 17.2378 76.9799 17.1347 76.519 17.1347C76.0763 17.1347 75.6792 17.2378 75.3275 17.444C74.9757 17.6502 74.6998 17.9443 74.4997 18.3263C74.2996 18.7023 74.1996 19.1449 74.1996 19.6543C74.1996 20.1576 74.2996 20.6003 74.4997 20.9823C74.6998 21.3583 74.9757 21.6493 75.3275 21.8555C75.6792 22.0617 76.0763 22.1648 76.519 22.1648C76.9799 22.1648 77.374 22.0647 77.7015 21.8646C78.035 21.6584 78.2897 21.3643 78.4655 20.9823H79.457C79.2205 21.5887 78.8445 22.0586 78.3291 22.3922C77.8137 22.7196 77.2103 22.8833 76.519 22.8833C75.9308 22.8833 75.3942 22.7469 74.909 22.474C74.43 22.1951 74.051 21.81 73.7721 21.3188C73.4931 20.8277 73.3536 20.2728 73.3536 19.6543ZM80.3799 19.6543C80.3799 19.0358 80.5193 18.4809 80.7983 17.9898C81.0772 17.4925 81.4562 17.1044 81.9353 16.8255C82.4204 16.5465 82.957 16.4071 83.5452 16.4071C84.2365 16.4071 84.8399 16.5738 85.3553 16.9073C85.8707 17.2409 86.2467 17.7138 86.4832 18.3263H85.4918C85.3159 17.9443 85.0612 17.6502 84.7277 17.444C84.4002 17.2378 84.0061 17.1347 83.5452 17.1347C83.1026 17.1347 82.7054 17.2378 82.3537 17.444C82.002 17.6502 81.7261 17.9443 81.5259 18.3263C81.3258 18.7023 81.2258 19.1449 81.2258 19.6543C81.2258 20.1576 81.3258 20.6003 81.5259 20.9823C81.7261 21.3583 82.002 21.6493 82.3537 21.8555C82.7054 22.0617 83.1026 22.1648 83.5452 22.1648C84.0061 22.1648 84.4002 22.0647 84.7277 21.8646C85.0612 21.6584 85.3159 21.3643 85.4918 20.9823H86.4832C86.2467 21.5887 85.8707 22.0586 85.3553 22.3922C84.8399 22.7196 84.2365 22.8833 83.5452 22.8833C82.957 22.8833 82.4204 22.7469 81.9353 22.474C81.4562 22.1951 81.0772 21.81 80.7983 21.3188C80.5193 20.8277 80.3799 20.2728 80.3799 19.6543ZM88.5431 17.162V19.2814H90.8534V19.9636H88.5431V22.1466H91.1263V22.8288H87.7153V16.4798H91.1263V17.162H88.5431ZM97.3633 22.8288H96.5356L93.2065 17.7805V22.8288H92.3788V16.4798H93.2065L96.5356 21.519V16.4798H97.3633V22.8288ZM102.676 16.4889V17.162H100.948V22.8288H100.121V17.162H98.3832V16.4889H102.676ZM111.105 22.8288H110.277L106.948 17.7805V22.8288H106.12V16.4798H106.948L110.277 21.519V16.4798H111.105V22.8288ZM113.344 16.4889V22.8288H112.516V16.4889H113.344ZM119.557 18.3263C119.381 17.9564 119.126 17.6714 118.793 17.4713C118.459 17.2651 118.071 17.162 117.629 17.162C117.186 17.162 116.786 17.2651 116.428 17.4713C116.076 17.6714 115.797 17.9625 115.591 18.3445C115.391 18.7205 115.291 19.1571 115.291 19.6543C115.291 20.1515 115.391 20.5881 115.591 20.9641C115.797 21.3401 116.076 21.6311 116.428 21.8373C116.786 22.0374 117.186 22.1375 117.629 22.1375C118.247 22.1375 118.756 21.9525 119.157 21.5826C119.557 21.2127 119.79 20.7125 119.857 20.0818H117.328V19.4087H120.739V20.0454C120.691 20.5669 120.527 21.046 120.248 21.4826C119.969 21.9131 119.602 22.2557 119.148 22.5104C118.693 22.759 118.186 22.8833 117.629 22.8833C117.04 22.8833 116.504 22.7469 116.019 22.474C115.534 22.1951 115.148 21.81 114.863 21.3188C114.585 20.8277 114.445 20.2728 114.445 19.6543C114.445 19.0358 114.585 18.4809 114.863 17.9898C115.148 17.4925 115.534 17.1075 116.019 16.8346C116.504 16.5556 117.04 16.4162 117.629 16.4162C118.302 16.4162 118.896 16.5829 119.411 16.9164C119.933 17.25 120.312 17.7199 120.548 18.3263H119.557ZM122.662 17.162V19.2814H124.972V19.9636H122.662V22.1466H125.245V22.8288H121.834V16.4798H125.245V17.162H122.662ZM129.835 22.8288L128.326 20.2364H127.325V22.8288H126.497V16.4889H128.544C129.023 16.4889 129.426 16.5708 129.754 16.7345C130.087 16.8982 130.336 17.1196 130.499 17.3985C130.663 17.6775 130.745 17.9958 130.745 18.3536C130.745 18.7902 130.618 19.1752 130.363 19.5088C130.114 19.8423 129.738 20.0636 129.235 20.1728L130.827 22.8288H129.835ZM127.325 19.5724H128.544C128.993 19.5724 129.329 19.4633 129.553 19.245C129.778 19.0206 129.89 18.7235 129.89 18.3536C129.89 17.9776 129.778 17.6866 129.553 17.4804C129.335 17.2742 128.999 17.1711 128.544 17.1711H127.325V19.5724ZM132.859 16.4889V22.8288H132.031V16.4889H132.859ZM138.017 21.4189H135.252L134.743 22.8288H133.869L136.162 16.5253H137.117L139.4 22.8288H138.526L138.017 21.4189ZM137.781 20.7458L136.635 17.5441L135.488 20.7458H137.781Z" fill="black"/>
</svg>
