<svg width="70" height="66" viewBox="0 0 70 66" fill="none" xmlns="http://www.w3.org/2000/svg">
<rect y="0.987793" width="70" height="64.0244" rx="12.8049" fill="#157B01"/>
<path d="M27.8623 27.0473C31.6211 27.71 33.8614 29.0962 34.6341 29.892C35.4069 29.0962 37.6472 27.71 41.406 27.0473C43.3103 26.7116 44.2624 26.5438 45.0733 27.1871C45.8841 27.8305 45.8841 28.8752 45.8841 30.9647V38.4739C45.8841 40.3844 45.8841 41.3397 45.3637 41.9361C44.8433 42.5325 43.6975 42.7345 41.406 43.1385C39.3633 43.4986 37.769 44.0724 36.6151 44.649C35.4797 45.2163 34.912 45.5 34.6341 45.5C34.3563 45.5 33.7886 45.2163 32.6532 44.649C31.4993 44.0724 29.905 43.4986 27.8623 43.1385C25.5708 42.7345 24.425 42.5325 23.9046 41.9361C23.3841 41.3397 23.3841 40.3844 23.3841 38.4739V30.9647C23.3841 28.8752 23.3841 27.8305 24.195 27.1871C25.0059 26.5438 25.958 26.7116 27.8623 27.0473Z" stroke="white" stroke-width="1.875" stroke-linecap="round" stroke-linejoin="round"/>
<path d="M34.6341 29.25L34.6341 45.5" stroke="white" stroke-width="1.875" stroke-linejoin="round"/>
<path d="M30.2591 21.8232C31.5233 20.985 33.0203 20.5 34.6249 20.5C36.2373 20.5 37.7411 20.9897 39.0091 21.8355M36.6619 24.875C36.0618 24.5128 35.3663 24.3057 34.6249 24.3057C33.8914 24.3057 33.2029 24.5084 32.6071 24.8635" stroke="white" stroke-width="1.875" stroke-linecap="round"/>
</svg>
