<svg width="214" height="39" viewBox="0 0 214 39" fill="none" xmlns="http://www.w3.org/2000/svg">
<rect x="0.5" y="0.5" width="213" height="38" rx="19" fill="white"/>
<rect x="0.5" y="0.5" width="213" height="38" rx="19" stroke="#C2C2C2"/>
<rect x="5.30664" y="4.34033" width="30.3196" height="30.3196" rx="15.1598" fill="#157B01"/>
<path d="M13.1531 20.4201C12.8855 18.6788 12.7517 17.8082 13.0809 17.0364C13.4101 16.2645 14.1405 15.7365 15.6012 14.6803L16.6926 13.8912C18.5097 12.5773 19.4183 11.9204 20.4666 11.9204C21.515 11.9204 22.4235 12.5773 24.2407 13.8912L25.3321 14.6803C26.7928 15.7365 27.5231 16.2645 27.8523 17.0364C28.1815 17.8082 28.0477 18.6788 27.7802 20.4201L27.552 21.905C27.1726 24.3734 26.983 25.6076 26.0977 26.3439C25.2125 27.0802 23.9183 27.0802 21.3298 27.0802H19.6034C17.015 27.0802 15.7208 27.0802 14.8355 26.3439C13.9502 25.6076 13.7606 24.3734 13.3813 21.905L13.1531 20.4201Z" stroke="white" stroke-width="1.13699" stroke-linejoin="round"/>
<path d="M19.8991 20.4477C20.7987 21.3473 21.9836 22.2615 21.9836 22.2615L23.6079 20.6372C23.6079 20.6372 22.6937 19.4523 21.7941 18.5527C20.8945 17.6531 19.7096 16.739 19.7096 16.739L18.0853 18.3632C18.0853 18.3632 18.9995 19.5481 19.8991 20.4477ZM19.8991 20.4477L17.0566 23.2902M23.8786 20.3665L21.7129 22.5322M19.9803 16.4683L17.8146 18.6339" stroke="white" stroke-width="1.13699" stroke-linecap="round" stroke-linejoin="round"/>
<path d="M46.1809 16.6602H47.0086V22.3269H49.228V23H46.1809V16.6602ZM53.518 16.6511V17.3333H50.9347V19.4526H53.2451V20.1348H50.9347V22.3178H53.518V23H50.107V16.6511H53.518ZM57.6447 16.5874C58.9818 16.5874 60.0915 17.2787 60.5645 18.4975H59.5731C59.2274 17.7608 58.5361 17.3333 57.6447 17.3333C56.3076 17.3333 55.3071 18.2974 55.3071 19.8255C55.3071 21.3445 56.3076 22.3087 57.6447 22.3087C58.8909 22.3087 59.7459 21.5083 59.8732 20.253H57.3446V19.5799H60.7555V20.2167C60.61 21.7902 59.3639 23.0546 57.6447 23.0546C55.8619 23.0546 54.4612 21.7266 54.4612 19.8255C54.4612 17.9245 55.8619 16.5874 57.6447 16.5874ZM66.1068 23L65.5975 21.5901H62.8323L62.3229 23H61.4497L63.7419 16.6965H64.697L66.98 23H66.1068ZM65.361 20.917L64.2149 17.7153L63.0688 20.917H65.361ZM67.979 16.6602H68.8067V22.3269H71.0261V23H67.979V16.6602ZM74.0209 19.8255C74.0209 17.9245 75.4126 16.5783 77.1863 16.5783C78.5597 16.5783 79.6512 17.2696 80.1242 18.4975H79.1328C78.7871 17.7335 78.114 17.306 77.1863 17.306C75.8583 17.306 74.8668 18.2701 74.8668 19.8255C74.8668 21.3718 75.8583 22.336 77.1863 22.336C78.114 22.336 78.7871 21.9085 79.1328 21.1535H80.1242C79.6512 22.3724 78.5597 23.0546 77.1863 23.0546C75.4126 23.0546 74.0209 21.7266 74.0209 19.8255ZM85.4131 23V20.1257H82.1841V23H81.3564V16.6602H82.1841V19.4435H85.4131V16.6602H86.2409V23H85.4131ZM91.0563 16.6511V17.3333H88.473V19.4526H90.7834V20.1348H88.473V22.3178H91.0563V23H87.6453V16.6511H91.0563ZM91.9995 19.8255C91.9995 17.9245 93.3912 16.5783 95.1648 16.5783C96.5383 16.5783 97.6298 17.2696 98.1028 18.4975H97.1114C96.7657 17.7335 96.0926 17.306 95.1648 17.306C93.8368 17.306 92.8454 18.2701 92.8454 19.8255C92.8454 21.3718 93.8368 22.336 95.1648 22.336C96.0926 22.336 96.7657 21.9085 97.1114 21.1535H98.1028C97.6298 22.3724 96.5383 23.0546 95.1648 23.0546C93.3912 23.0546 91.9995 21.7266 91.9995 19.8255ZM102.773 23L100.163 20.1075V23H99.335V16.6602H100.163V19.5981L102.782 16.6602H103.828L100.954 19.8346L103.856 23H102.773ZM104.78 16.6602H105.608V22.3269H107.827V23H104.78V16.6602ZM108.706 23V16.6602H109.534V23H108.706ZM115.065 21.2718C115.065 22.1723 114.328 23.0637 112.955 23.0637C111.681 23.0637 110.781 22.3542 110.763 21.3082H111.645C111.7 21.8357 112.073 22.3633 112.955 22.3633C113.755 22.3633 114.228 21.9085 114.228 21.3082C114.228 19.5981 110.799 20.6896 110.799 18.3338C110.799 17.2878 111.645 16.5783 112.9 16.5783C114.11 16.5783 114.901 17.2423 115.001 18.2065H114.092C114.037 17.779 113.637 17.2969 112.864 17.2878C112.182 17.2696 111.645 17.6243 111.645 18.3065C111.645 19.9438 115.065 18.925 115.065 21.2718ZM115.892 17.3333V16.6602H120.185V17.3333H118.457V23H117.629V17.3333H115.892ZM127.886 23L127.377 21.5901H124.612L124.102 23H123.229L125.521 16.6965H126.476L128.759 23H127.886ZM127.14 20.917L125.994 17.7153L124.848 20.917H127.14ZM133.915 16.6511H134.743V23H133.915L130.586 17.9518V23H129.758V16.6511H130.586L133.915 21.6902V16.6511ZM138.128 16.6602C140.211 16.6602 141.493 17.879 141.493 19.8437C141.493 21.8084 140.211 23 138.128 23H136.154V16.6602H138.128ZM136.982 22.3178H138.128C139.783 22.3178 140.647 21.39 140.647 19.8437C140.647 18.2974 139.783 17.3333 138.128 17.3333H136.982V22.3178ZM151.692 23L151.182 21.5901H148.417L147.908 23H147.035L149.327 16.6965H150.282L152.565 23H151.692ZM150.946 20.917L149.8 17.7153L148.654 20.917H150.946ZM157.684 21.2718C157.684 22.1723 156.948 23.0637 155.574 23.0637C154.301 23.0637 153.4 22.3542 153.382 21.3082H154.264C154.319 21.8357 154.692 22.3633 155.574 22.3633C156.375 22.3633 156.847 21.9085 156.847 21.3082C156.847 19.5981 153.418 20.6896 153.418 18.3338C153.418 17.2878 154.264 16.5783 155.519 16.5783C156.729 16.5783 157.521 17.2423 157.621 18.2065H156.711C156.656 17.779 156.256 17.2969 155.483 17.2878C154.801 17.2696 154.264 17.6243 154.264 18.3065C154.264 19.9438 157.684 18.925 157.684 21.2718ZM163.023 21.2718C163.023 22.1723 162.286 23.0637 160.913 23.0637C159.639 23.0637 158.739 22.3542 158.72 21.3082H159.603C159.657 21.8357 160.03 22.3633 160.913 22.3633C161.713 22.3633 162.186 21.9085 162.186 21.3082C162.186 19.5981 158.757 20.6896 158.757 18.3338C158.757 17.2878 159.603 16.5783 160.858 16.5783C162.068 16.5783 162.859 17.2423 162.959 18.2065H162.05C161.995 17.779 161.595 17.2969 160.822 17.2878C160.139 17.2696 159.603 17.6243 159.603 18.3065C159.603 19.9438 163.023 18.925 163.023 21.2718ZM167.652 16.6511V17.3333H165.069V19.4526H167.379V20.1348H165.069V22.3178H167.652V23H164.241V16.6511H167.652ZM173.025 21.2718C173.025 22.1723 172.288 23.0637 170.915 23.0637C169.641 23.0637 168.741 22.3542 168.722 21.3082H169.605C169.659 21.8357 170.032 22.3633 170.915 22.3633C171.715 22.3633 172.188 21.9085 172.188 21.3082C172.188 19.5981 168.759 20.6896 168.759 18.3338C168.759 17.2878 169.605 16.5783 170.86 16.5783C172.07 16.5783 172.861 17.2423 172.961 18.2065H172.051C171.997 17.779 171.597 17.2969 170.824 17.2878C170.141 17.2696 169.605 17.6243 169.605 18.3065C169.605 19.9438 173.025 18.925 173.025 21.2718ZM178.363 21.2718C178.363 22.1723 177.626 23.0637 176.253 23.0637C174.98 23.0637 174.079 22.3542 174.061 21.3082H174.943C174.998 21.8357 175.371 22.3633 176.253 22.3633C177.053 22.3633 177.526 21.9085 177.526 21.3082C177.526 19.5981 174.097 20.6896 174.097 18.3338C174.097 17.2878 174.943 16.5783 176.198 16.5783C177.408 16.5783 178.2 17.2423 178.3 18.2065H177.39C177.335 17.779 176.935 17.2969 176.162 17.2878C175.48 17.2696 174.943 17.6243 174.943 18.3065C174.943 19.9438 178.363 18.925 178.363 21.2718ZM179.581 23V16.7056H180.473L182.801 21.9085L185.13 16.7056H186.012V23H185.184V18.3065L183.092 23H182.51L180.409 18.2974V23H179.581ZM190.827 16.6511V17.3333H188.244V19.4526H190.554V20.1348H188.244V22.3178H190.827V23H187.416V16.6511H190.827ZM196.236 16.6511H197.064V23H196.236L192.907 17.9518V23H192.079V16.6511H192.907L196.236 21.6902V16.6511ZM198.084 17.3333V16.6602H202.377V17.3333H200.649V23H199.821V17.3333H198.084Z" fill="black"/>
</svg>
