<svg width="39" height="40" viewBox="0 0 39 40" fill="none" xmlns="http://www.w3.org/2000/svg">
<rect x="-6.10352e-05" y="0.941895" width="38.6667" height="38.6667" rx="19.3333" fill="white"/>
<path d="M12.6205 18.0376H12.173C11.3291 18.0376 10.9072 18.0376 10.645 18.2998C10.3828 18.5619 10.3828 18.9839 10.3828 19.8277V27.4357C10.3828 28.2796 10.3828 28.7015 10.645 28.9637C10.9072 29.2259 11.3291 29.2259 12.173 29.2259H12.6205C13.4644 29.2259 13.8863 29.2259 14.1485 28.9637C14.4106 28.7015 14.4106 28.2796 14.4106 27.4357V19.8277C14.4106 18.9839 14.4106 18.5619 14.1485 18.2998C13.8863 18.0376 13.4644 18.0376 12.6205 18.0376Z" stroke="black" stroke-width="1.34259"/>
<path d="M14.4106 13.3386C14.4106 14.4508 13.509 15.3525 12.3967 15.3525C11.2845 15.3525 10.3828 14.4508 10.3828 13.3386C10.3828 12.2264 11.2845 11.3247 12.3967 11.3247C13.509 11.3247 14.4106 12.2264 14.4106 13.3386Z" stroke="black" stroke-width="1.34259"/>
<path d="M19.6253 18.0376H18.8859C18.0421 18.0376 17.6202 18.0376 17.358 18.2998C17.0958 18.5619 17.0958 18.9839 17.0958 19.8277V27.4357C17.0958 28.2796 17.0958 28.7015 17.358 28.9637C17.6202 29.2259 18.0421 29.2259 18.8859 29.2259H19.3335C20.1773 29.2259 20.5993 29.2259 20.8614 28.9637C21.1236 28.7015 21.1236 28.2796 21.1236 27.4357L21.1237 24.3031C21.1237 22.8202 21.5963 21.6179 22.9924 21.6179C23.6904 21.6179 24.2563 22.2191 24.2563 22.9605V26.9883C24.2563 27.8322 24.2563 28.2541 24.5185 28.5163C24.7806 28.7784 25.2026 28.7784 26.0464 28.7784H26.4928C27.3365 28.7784 27.7583 28.7784 28.0205 28.5164C28.2827 28.2543 28.2828 27.8324 28.2829 26.9888L28.2842 22.0656C28.2842 19.8411 26.1685 18.0378 24.0744 18.0378C22.8823 18.0378 21.8188 18.6222 21.1237 19.5359C21.1236 18.972 21.1236 18.69 21.0012 18.4807C20.9236 18.3481 20.8131 18.2377 20.6805 18.1601C20.4712 18.0376 20.1892 18.0376 19.6253 18.0376Z" stroke="black" stroke-width="1.34259" stroke-linejoin="round"/>
</svg>
