<svg width="81" height="48" viewBox="0 0 81 48" fill="none" xmlns="http://www.w3.org/2000/svg">
<g clip-path="url(#clip0_247_1254)">
<path d="M0.585938 26.3628C0.621794 26.2649 0.674458 26.1704 0.690146 26.0691C1.0207 24.0456 2.6701 22.4826 4.72849 22.2468C7.25862 21.9564 9.54112 23.7174 9.87391 26.2148C10.2011 28.6745 8.48671 30.9617 6.01485 31.3621C3.4948 31.7704 1.08793 30.0517 0.690146 27.562C0.674458 27.4619 0.620674 27.3662 0.585938 27.2694C0.585937 26.9669 0.585938 26.6654 0.585938 26.3628ZM7.05581 26.8111C7.05357 25.8266 6.24567 25.0268 5.2585 25.0334C4.28477 25.0401 3.4836 25.8377 3.47911 26.8067C3.47463 27.7867 4.28253 28.5966 5.26746 28.5977C6.25576 28.5988 7.05805 27.7979 7.05581 26.8111Z" fill="#114906"/>
<path d="M3.83887 20.7526C3.83887 19.2229 3.83887 17.7156 3.83887 16.1915C8.9193 16.1915 13.9863 16.1915 19.0779 16.1915C19.0779 23.2411 19.0779 30.2795 19.0779 37.3469C19.3446 37.3858 19.5933 37.3625 19.8387 37.3669C20.0897 37.3714 20.3407 37.368 20.5917 37.368C20.8427 37.368 21.0937 37.368 21.3447 37.368C21.5946 37.368 21.8456 37.368 22.091 37.368C22.1537 37.5683 22.175 39.8833 22.119 40.3916C20.1054 40.395 18.0863 40.3928 16.0458 40.3939C16.0458 33.3243 16.0458 26.2847 16.0458 19.253C15.8351 19.1885 7.20378 19.1751 6.87323 19.2374C6.87323 19.7324 6.87323 20.2353 6.87323 20.7537C5.85132 20.7526 4.86078 20.7526 3.83887 20.7526Z" fill="#114906"/>
<path d="M29.8439 22.231C32.4088 22.2298 34.4739 24.2779 34.4773 26.8265C34.4806 29.3873 32.4155 31.432 29.8282 31.4309C27.2656 31.4298 25.1971 29.3673 25.2061 26.8242C25.215 24.2734 27.2757 22.2321 29.8439 22.231ZM28.0544 26.8387C28.0589 27.8254 28.859 28.6131 29.8551 28.6086C30.8445 28.6042 31.639 27.8021 31.6311 26.8142C31.6244 25.8397 30.8311 25.0621 29.8439 25.061C28.8466 25.0599 28.0511 25.8497 28.0544 26.8387Z" fill="#114906"/>
<path d="M31.2837 16.2005C31.2837 17.7235 31.2837 19.2308 31.2837 20.7549C30.2774 20.7549 29.288 20.7549 28.2661 20.7549C28.2661 20.2443 28.2661 19.7425 28.2661 19.2008C27.8369 19.1963 27.4369 19.1986 27.0369 19.1986C26.6335 19.1986 26.2301 19.1986 25.8279 19.1986C25.4256 19.1986 25.0211 19.1986 24.6188 19.1986C24.2165 19.1986 23.812 19.1986 23.4098 19.1986C23.0075 19.1986 22.6052 19.1986 22.2075 19.1986C22.1413 18.9994 22.1167 16.7501 22.1705 16.2161C22.3587 16.1649 30.887 16.1482 31.2837 16.2005Z" fill="#114906"/>
<path d="M9.88401 32.578C9.92098 32.8606 9.87168 33.112 9.80333 33.3601C9.4414 34.6817 8.27718 35.5883 6.87878 35.6105C5.85799 35.6272 4.83607 35.6272 3.81416 35.6105C2.32947 35.5872 1.13836 34.6016 0.833583 33.1632C0.801088 33.0074 0.791003 32.8461 0.775316 32.687C0.771955 32.6548 0.789883 32.6203 0.799967 32.5769C3.82537 32.578 6.84068 32.578 9.88401 32.578Z" fill="#114906"/>
<path d="M34.4682 32.6236C34.4895 33.0463 34.3976 33.4345 34.2262 33.7983C33.6894 34.9408 32.7762 35.5749 31.5111 35.6261C30.4467 35.6694 29.3777 35.6605 28.3121 35.6294C26.7052 35.5816 25.4346 34.3234 25.3461 32.7359C25.3438 32.7026 25.3528 32.6681 25.3561 32.6358C25.5601 32.5846 34.1051 32.5702 34.4682 32.6236Z" fill="#114906"/>
<path d="M17.851 1.12244C17.9373 1.14469 18.0214 1.18028 18.1088 1.18585C20.5246 1.3427 22.8799 3.22162 23.3842 5.96046C23.9254 8.89842 22.165 11.7596 19.3234 12.634C19.2472 12.6574 19.1733 12.6874 19.0623 12.7286C19.0623 13.2158 19.0623 13.7086 19.0623 14.2148C18.0595 14.2148 17.0958 14.2148 16.1019 14.2148C16.0929 14.118 16.0784 14.0246 16.0773 13.9311C16.0739 13.6196 16.0773 13.3093 16.075 12.9978C16.0728 12.7186 16.0717 12.7208 15.7994 12.6318C14.1074 12.08 12.8692 11.0087 12.1532 9.39124C10.6338 5.95601 12.6698 2.07691 16.289 1.29375C16.5232 1.24258 16.7653 1.22589 17.0028 1.18807C17.0891 1.17472 17.1742 1.14469 17.2594 1.12244C17.4566 1.12244 17.6538 1.12244 17.851 1.12244ZM20.4013 7.0373C20.4428 5.66121 19.3189 4.22949 17.5866 4.20502C16.0156 4.18277 14.7203 5.46876 14.7192 7.02173C14.7181 8.5569 15.9932 9.82509 17.5306 9.83955C19.1957 9.85513 20.4294 8.47347 20.4013 7.0373Z" fill="#FF7300"/>
<path d="M81.5859 17.344C80.8621 17.4253 80.2178 17.6922 79.6799 18.1828C79.3886 18.4476 79.2429 18.8102 79.1085 19.1685C78.9045 19.7091 78.7084 20.2531 78.5191 20.7993C77.1733 24.6806 75.8298 28.563 74.4852 32.4444C74.4505 32.5445 74.4135 32.6446 74.3743 32.7547C73.6 32.7547 72.8336 32.7547 72.0492 32.7547C70.6306 28.7844 69.2132 24.8186 67.7957 20.8527C67.7789 20.8505 67.7621 20.8494 67.7442 20.8471C67.7139 20.9239 67.6781 20.9984 67.6534 21.0774C66.8444 23.5815 66.0365 26.0856 65.2286 28.5897C65.1737 28.7588 65.1289 28.9324 65.0628 29.097C64.9955 29.265 64.9967 29.4185 65.0785 29.582C65.1703 29.7645 65.2432 29.9569 65.3227 30.1449C65.6578 30.9359 66.2662 31.3998 67.0976 31.59C67.3408 31.6456 67.5895 31.6779 67.8573 31.7235C67.8573 31.9972 67.8573 32.2764 67.8573 32.5734C64.9149 32.5734 61.9802 32.5734 59.0265 32.5734C59.0265 32.2864 59.0265 32.0083 59.0265 31.7324C59.5039 31.6501 59.9711 31.5778 60.435 31.4866C60.6446 31.4454 60.853 31.3831 61.0502 31.3019C61.2911 31.2018 61.3359 31.0927 61.2799 30.8358C61.2575 30.7323 61.2272 30.6289 61.1858 30.531C60.751 29.4786 60.3129 28.4273 59.8748 27.3761C59.8479 27.3115 59.8131 27.2504 59.7806 27.1847C57.9071 27.1847 56.0448 27.1847 54.168 27.1847C54.1265 27.2759 54.0828 27.3627 54.0481 27.4528C53.8822 27.8845 53.7108 28.3139 53.5595 28.7511C53.4878 28.9591 53.4363 29.1793 53.4172 29.3974C53.3702 29.938 53.3511 30.4798 53.3119 31.0204C53.3029 31.1495 53.3478 31.2296 53.4598 31.2707C53.7198 31.3653 53.9764 31.4765 54.2442 31.5355C54.6263 31.62 55.0184 31.6634 55.4218 31.7268C55.4218 32.0005 55.4218 32.2731 55.4218 32.5456C55.2325 32.6046 38.8191 32.6324 38.2297 32.5723C38.2297 32.2975 38.2297 32.0183 38.2297 31.7179C38.5435 31.6779 38.8606 31.639 39.1766 31.5945C39.3446 31.5711 39.5138 31.5455 39.6786 31.5055C40.2657 31.3631 40.5458 31.0382 40.5951 30.4431C40.6041 30.3374 40.6019 30.2295 40.6019 30.1227C40.6019 26.4227 40.603 22.7238 40.6007 19.0238C40.6007 18.8381 40.5794 18.6523 40.5559 18.4676C40.5178 18.1717 40.343 17.967 40.0887 17.8213C39.7503 17.6277 39.3827 17.5209 39.0029 17.4475C38.7496 17.3986 38.4953 17.3518 38.2241 17.3007C38.2241 17.0103 38.2241 16.7311 38.2241 16.4452C41.2025 16.4452 44.164 16.4452 47.1401 16.4452C47.1401 16.7355 47.1401 17.007 47.1401 17.2984C46.8734 17.3307 46.6157 17.3541 46.3613 17.3952C46.07 17.4419 45.7764 17.4853 45.4918 17.561C44.9696 17.7011 44.7332 17.9971 44.6839 18.5321C44.6727 18.6556 44.6727 18.7813 44.6716 18.9048C44.6705 22.3734 44.6693 25.842 44.6738 29.3106C44.6738 29.6477 44.6895 29.987 44.7321 30.3207C44.8228 31.0482 45.1713 31.3942 45.9098 31.4832C46.8196 31.5933 47.7351 31.5789 48.6472 31.5133C48.9856 31.4888 49.324 31.4398 49.6579 31.382C50.087 31.3074 50.4579 31.115 50.7224 30.7635C51.0171 30.373 51.3118 29.9803 51.5818 29.572C52.132 28.7433 52.4928 27.8222 52.8727 26.91C54.317 23.4347 55.7681 19.9627 57.2169 16.4897C57.2572 16.3918 57.3021 16.2972 57.3458 16.1993C58.1055 16.1993 58.8484 16.1993 59.6294 16.1993C61.2071 20.0028 62.7366 23.8396 64.3176 27.6686C64.7513 26.4338 65.1345 25.1935 65.5255 23.9542C65.9211 22.6994 66.3177 21.4445 66.7144 20.1897C67.1077 18.9449 67.501 17.6989 67.8988 16.4419C68.7123 16.4419 69.5157 16.4419 70.3438 16.4419C71.7612 20.4522 73.1787 24.4659 74.5973 28.4807C74.6141 28.4841 74.6309 28.4863 74.6477 28.4896C74.6802 28.4051 74.7183 28.3216 74.7452 28.2349C75.4858 25.8587 76.2343 23.4847 76.9627 21.1041C77.1935 20.3488 77.375 19.5778 77.5711 18.8114C77.6036 18.6834 77.5991 18.5466 77.6171 18.4153C77.654 18.1406 77.5207 17.9559 77.2977 17.8191C76.9403 17.5988 76.5414 17.5031 76.1301 17.4475C75.794 17.4019 75.4556 17.3641 75.0992 17.3207C75.0992 17.037 75.0992 16.7578 75.0992 16.4574C75.1485 16.4485 75.2068 16.4274 75.2651 16.4274C77.3448 16.4263 79.4244 16.4263 81.5041 16.4274C81.531 16.4274 81.5579 16.4341 81.5837 16.4363C81.5859 16.74 81.5859 17.0415 81.5859 17.344ZM56.9883 20.2676C56.8393 20.4544 54.7103 25.7964 54.6823 26.03C56.2152 26.03 57.748 26.03 59.3145 26.03C58.5335 24.0944 57.7637 22.1887 56.9883 20.2676Z" fill="#114906"/>
<path d="M48.0786 40.5029C47.9407 40.4684 47.804 40.4283 47.6651 40.4016C46.2723 40.1357 45.3669 39.1001 45.2941 37.6884C45.2672 37.1655 45.3367 36.6582 45.5507 36.1777C46 35.1653 46.7967 34.6047 47.8825 34.4211C48.5761 34.3043 49.2383 34.4067 49.8748 34.6948C49.914 34.7126 49.9554 34.727 50.0036 34.7471C50.1672 34.6002 50.3342 34.4623 50.6008 34.5646C50.6165 35.2321 50.6333 35.9129 50.6502 36.6226C50.528 36.6293 50.4261 36.6338 50.305 36.6404C50.2636 36.5337 50.2244 36.4369 50.1874 36.339C50.0496 35.9708 49.886 35.6159 49.6316 35.3089C49.4086 35.0385 49.1307 34.8516 48.7789 34.7905C48.1167 34.6759 47.5956 34.9317 47.2796 35.5213C47.1048 35.8473 47.0118 36.1999 46.9715 36.5648C46.8998 37.2045 46.8897 37.8419 47.051 38.4726C47.0791 38.5839 47.1183 38.694 47.1564 38.803C47.6248 40.1202 49.059 40.1079 49.756 39.5606C49.9846 39.3815 50.1672 39.1434 50.3655 38.9276C50.4305 38.8564 50.4776 38.7697 50.5493 38.6673C50.6602 38.733 50.7644 38.7941 50.881 38.8631C50.649 39.3682 50.3263 39.7698 49.8658 40.0568C49.5901 40.2281 49.2943 40.3493 48.9716 40.4083C48.8506 40.4305 48.7329 40.4717 48.6142 40.504C48.4371 40.5029 48.2578 40.5029 48.0786 40.5029Z" fill="#114906"/>
<path d="M54.1019 40.5029C53.9461 40.4673 53.7904 40.425 53.6335 40.395C52.3292 40.1469 51.4115 39.1246 51.3151 37.8052C51.2737 37.239 51.3308 36.6861 51.5673 36.1622C52.0188 35.1632 52.8077 34.6025 53.8822 34.4234C54.4963 34.3211 55.0442 34.3255 56.0124 34.7416C56.0908 34.6815 56.1659 34.5947 56.2611 34.5591C56.3564 34.5224 56.4706 34.5369 56.6152 34.5258C56.6275 35.2299 56.6398 35.9163 56.6533 36.616C56.5805 36.626 56.53 36.6372 56.4785 36.6372C56.4258 36.6383 56.3743 36.6294 56.3104 36.6227C56.2577 36.487 56.2073 36.3557 56.1558 36.2245C56.0258 35.8918 55.8678 35.5726 55.6347 35.2978C55.3692 34.9841 55.0375 34.795 54.6184 34.7705C54.0783 34.7382 53.6581 34.9396 53.3691 35.3957C53.1595 35.725 53.0519 36.091 52.9993 36.4725C52.9052 37.1556 52.8984 37.8364 53.0755 38.5105C53.1024 38.6129 53.1405 38.7141 53.1763 38.8142C53.6391 40.1047 55.0353 40.0924 55.7412 39.5896C56.0068 39.4005 56.2196 39.1624 56.4045 38.8965C56.4538 38.8253 56.5054 38.7542 56.5681 38.6663C56.6858 38.7375 56.7889 38.8009 56.8987 38.8676C56.502 39.6875 55.8947 40.2159 55.0039 40.4028C54.8649 40.4317 54.7271 40.4695 54.5882 40.5029C54.4246 40.5029 54.2632 40.5029 54.1019 40.5029Z" fill="#114906"/>
<path d="M69.0521 40.3271C68.7821 40.3271 68.5356 40.385 68.3417 40.3093C68.1803 40.247 68.0784 40.0312 67.9551 39.8788C66.9422 38.6329 65.9303 37.3869 64.9174 36.141C64.8636 36.0753 64.8042 36.013 64.7123 35.9096C64.7045 36.0397 64.6955 36.1154 64.6955 36.191C64.6944 37.0265 64.6911 37.863 64.6978 38.6985C64.6989 38.9021 64.7213 39.1068 64.7549 39.3081C64.8031 39.5929 64.9611 39.7954 65.2558 39.8743C65.4015 39.9133 65.546 39.9589 65.7018 40.0056C65.7018 40.0946 65.7018 40.1792 65.7018 40.2837C64.886 40.2837 64.0759 40.2837 63.2523 40.2837C63.2445 40.2337 63.2333 40.1914 63.2333 40.1491C63.2333 40.1057 63.2445 40.0635 63.2512 40.0089C63.3935 39.9778 63.5324 39.9522 63.6691 39.9155C63.956 39.8376 64.1375 39.6563 64.17 39.3571C64.1958 39.119 64.2171 38.8787 64.2182 38.6395C64.2238 37.7863 64.2081 36.9319 64.2249 36.0787C64.2361 35.5013 64.0714 35.0664 63.3274 34.885C63.2938 34.8772 63.2613 34.8583 63.2153 34.8394C63.2153 34.7482 63.2153 34.6548 63.2153 34.548C63.3027 34.5435 63.3812 34.5357 63.4607 34.5357C64.0255 34.5346 64.5902 34.5424 65.1549 34.5313C65.3253 34.5279 65.4328 34.5824 65.5382 34.7137C66.4626 35.8584 67.3949 36.9976 68.3249 38.1389C68.3865 38.2146 68.4504 38.2869 68.5412 38.3948C68.558 38.3002 68.577 38.2457 68.577 38.1901C68.5781 37.487 68.5804 36.7851 68.5748 36.082C68.5737 35.9229 68.5501 35.7639 68.5311 35.6048C68.4874 35.2455 68.2868 35.0252 67.9305 34.9407C67.8095 34.9117 67.6918 34.8717 67.5663 34.8361C67.5663 34.7382 67.5663 34.6514 67.5663 34.5502C68.3876 34.5502 69.2 34.5502 70.0247 34.5502C70.0337 34.5947 70.046 34.6358 70.0483 34.6781C70.0505 34.7215 70.0438 34.7649 70.0393 34.8339C69.9261 34.855 69.8152 34.8761 69.7031 34.8973C69.3502 34.9651 69.1597 35.1431 69.1081 35.4924C69.0734 35.7294 69.0555 35.9697 69.0544 36.2088C69.0488 37.4804 69.0521 38.7519 69.0521 40.0234C69.0521 40.118 69.0521 40.2136 69.0521 40.3271Z" fill="#114906"/>
<path d="M62.7541 40.2849C60.9333 40.2849 59.136 40.2849 57.3263 40.2849C57.3174 40.237 57.3039 40.1948 57.3028 40.1525C57.3017 40.1091 57.3129 40.0668 57.3207 40.0068C57.472 39.9823 57.621 39.9656 57.7667 39.9333C58.0569 39.8699 58.1488 39.7643 58.1499 39.4761C58.1533 38.1245 58.1522 36.7729 58.1499 35.4224C58.1499 35.1454 58.0726 35.0486 57.8014 34.9563C57.7252 34.9307 57.6457 34.9151 57.5673 34.8962C57.4899 34.8773 57.4115 34.8584 57.3174 34.8361C57.3174 34.7405 57.3174 34.6492 57.3174 34.5458C59.025 34.5458 60.7148 34.5458 62.4034 34.5458C62.4639 34.7405 62.4774 35.666 62.4213 35.9897C62.3855 35.9942 62.344 36.0031 62.3026 36.0042C62.2589 36.0053 62.2152 35.9986 62.1939 35.9964C62.0415 35.7728 61.9104 35.5625 61.7614 35.3645C61.5204 35.0441 61.1933 34.8906 60.7865 34.8984C60.4033 34.9051 60.0212 34.8995 59.6212 34.8995C59.6212 35.6482 59.6212 36.3724 59.6212 37.1211C59.973 37.1422 60.3103 37.1711 60.6408 37.071C60.847 37.0087 61.0028 36.8741 61.0902 36.6761C61.1652 36.507 61.2269 36.3312 61.2986 36.1466C61.3804 36.1466 61.4655 36.1466 61.5664 36.1466C61.5664 36.9364 61.5664 37.7151 61.5664 38.515C61.4779 38.5205 61.3938 38.5261 61.3008 38.5328C61.2358 38.3548 61.1764 38.1901 61.1148 38.0255C60.9871 37.6862 60.7327 37.5205 60.3753 37.5082C60.1344 37.5004 59.8935 37.5071 59.6335 37.5071C59.6223 37.5861 59.6066 37.6528 59.6055 37.7196C59.6032 38.2091 59.5976 38.6974 59.6066 39.1869C59.6167 39.7887 59.7511 39.9278 60.3551 39.9311C60.7215 39.9333 61.0868 39.9022 61.4532 39.8788C61.6639 39.8655 61.8263 39.7542 61.9395 39.5818C62.1199 39.307 62.2925 39.0256 62.4662 38.7464C62.5076 38.6796 62.5412 38.6073 62.5827 38.5306C62.6656 38.5306 62.7441 38.5306 62.8561 38.5306C62.8449 39.109 62.7956 39.6786 62.7541 40.2849Z" fill="#114906"/>
<path d="M40.7589 39.9991C40.7589 40.1014 40.7589 40.1793 40.7589 40.256C40.5628 40.3105 38.7565 40.3239 38.417 40.2716C38.417 40.1904 38.417 40.107 38.417 40.0102C38.4596 39.9991 38.501 39.9824 38.5425 39.9779C38.9918 39.9345 39.2787 39.6853 39.4456 39.2826C39.7056 38.6586 39.9655 38.0345 40.2255 37.4115C40.602 36.5082 40.9774 35.6049 41.3561 34.7038C41.4547 34.4702 41.392 34.4613 41.7259 34.4613C41.904 34.4613 42.0822 34.4613 42.2738 34.4613C42.3276 34.5881 42.3769 34.7005 42.4228 34.8151C43.0134 36.2646 43.6028 37.7141 44.1921 39.1636C44.2224 39.2381 44.256 39.3104 44.2851 39.385C44.4162 39.7243 44.6717 39.9078 45.0247 39.9701C45.0774 39.979 45.1289 39.9879 45.2028 40.0002C45.2085 40.0869 45.2152 40.1715 45.2208 40.2527C45.0135 40.3094 42.5259 40.3283 42.08 40.2783C42.08 40.1915 42.08 40.1014 42.08 40.0057C42.2716 39.9701 42.4576 39.9434 42.638 39.8989C42.8823 39.8377 42.9125 39.7743 42.8184 39.5374C42.6828 39.1992 42.536 38.8655 42.4027 38.5262C42.3567 38.4094 42.2906 38.3649 42.164 38.366C41.5645 38.3715 40.9639 38.3682 40.3387 38.3682C40.2871 38.4861 40.2266 38.6029 40.1829 38.7253C40.0978 38.9678 40.0092 39.2114 39.9443 39.4595C39.8804 39.7043 39.9398 39.7955 40.1818 39.8822C40.2737 39.9156 40.3712 39.9368 40.4664 39.9568C40.5527 39.9757 40.6412 39.9824 40.7589 39.9991ZM40.4989 37.9466C40.8496 38.0089 41.9444 37.9944 42.1483 37.9266C41.8816 37.2658 41.6149 36.6061 41.3494 35.9464C41.3303 35.9475 41.3124 35.9498 41.2934 35.9509C41.0312 36.6083 40.7701 37.2669 40.4989 37.9466Z" fill="#114906"/>
<path d="M75.81 34.548C75.81 35.0931 75.81 35.6215 75.81 36.1677C75.7136 36.1721 75.6273 36.1766 75.5343 36.181C75.4335 35.9853 75.3472 35.7917 75.2385 35.6104C74.7858 34.8572 74.7029 34.9173 73.9992 34.8939C73.9208 34.8917 73.8424 34.9017 73.746 34.9062C73.7404 35.0063 73.7314 35.092 73.7314 35.1787C73.7303 36.5559 73.7303 37.9331 73.7314 39.3115C73.7314 39.7342 73.8177 39.8365 74.2368 39.9266C74.3578 39.9522 74.4799 39.9767 74.6144 40.0045C74.6144 40.0957 74.6144 40.1792 74.6144 40.2826C73.5465 40.2826 72.4843 40.2826 71.3985 40.2826C71.394 40.1959 71.3895 40.1124 71.3839 40.0067C71.5486 39.9834 71.6977 39.9689 71.8445 39.9422C72.1717 39.8821 72.2815 39.7609 72.2826 39.4416C72.286 37.9754 72.2837 36.5092 72.2826 35.043C72.2826 35.0085 72.2759 34.9729 72.2714 34.9407C72.054 34.8728 71.4837 34.875 71.3245 34.9729C71.1991 35.0508 71.078 35.1576 70.9962 35.2789C70.8091 35.5592 70.6478 35.8562 70.4629 36.1677C70.4068 36.1677 70.3194 36.1677 70.2332 36.1677C70.1783 35.9719 70.1704 34.8405 70.2231 34.548C72.0731 34.548 73.9241 34.548 75.81 34.548Z" fill="#114906"/>
</g>
<defs>
<clipPath id="clip0_247_1254">
<rect width="81" height="46.1776" fill="white" transform="translate(0 0.911255)"/>
</clipPath>
</defs>
</svg>
