<svg width="26" height="26" viewBox="0 0 26 26" fill="none" xmlns="http://www.w3.org/2000/svg">
<path d="M23.188 13.527C23.188 13.0091 23.1824 11.9641 23.1713 11.4447C23.1025 8.21362 23.068 6.59809 21.8759 5.40136C20.6836 4.20463 19.0244 4.16294 15.7059 4.07956C13.6606 4.02817 11.6355 4.02817 9.59024 4.07955C6.27176 4.16292 4.61252 4.20461 3.42032 5.40135C2.22812 6.59808 2.19368 8.21361 2.12477 11.4447C2.10261 12.4836 2.10262 13.5163 2.12478 14.5552C2.19368 17.7863 2.22813 19.4018 3.42033 20.5986C4.61252 21.7953 6.27177 21.8369 9.59025 21.9203C10.4364 21.9416 11.279 21.954 12.1211 21.9577" stroke="#114906" stroke-width="1.80684" stroke-linecap="round" stroke-linejoin="round"/>
<path d="M7.37781 9.31055L10.4787 11.1439C12.2865 12.2127 13.0091 12.2127 14.8169 11.1439L17.9177 9.31055" stroke="#114906" stroke-width="1.80684" stroke-linecap="round" stroke-linejoin="round"/>
<path d="M14.756 18.7966H23.188M14.756 18.7966C14.756 18.0586 16.858 16.6797 17.391 16.1616M14.756 18.7966C14.756 19.5346 16.858 20.9135 17.391 21.4316" stroke="#114906" stroke-width="1.80684" stroke-linecap="round" stroke-linejoin="round"/>
</svg>
