<svg width="34" height="34" viewBox="0 0 34 34" fill="none" xmlns="http://www.w3.org/2000/svg">
<rect x="0.5" y="0.5" width="33" height="33" rx="16.5" stroke="black"/>
<path d="M10.32 20.5V13.9H11.76L15.07 19.05H15.16L15.09 13.9H16.15V20.5H14.84L11.4 15.19H11.31L11.38 20.5H10.32ZM20.3509 20.63C19.8109 20.63 19.3276 20.5067 18.9009 20.26C18.4809 20.0067 18.1476 19.63 17.9009 19.13C17.6609 18.63 17.5409 18.0033 17.5409 17.25C17.5409 16.7033 17.6076 16.2167 17.7409 15.79C17.8743 15.3633 18.0743 15 18.3409 14.7C18.6076 14.4 18.9309 14.17 19.3109 14.01C19.6976 13.85 20.1443 13.77 20.6509 13.77C21.0309 13.77 21.3743 13.8167 21.6809 13.91C21.9876 14.0033 22.2543 14.1367 22.4809 14.31C22.7076 14.4833 22.8876 14.6933 23.0209 14.94C23.1609 15.1867 23.2409 15.47 23.2609 15.79L22.2209 16.1C22.2009 15.7667 22.1143 15.4967 21.9609 15.29C21.8076 15.0833 21.6109 14.9333 21.3709 14.84C21.1376 14.7467 20.8876 14.7 20.6209 14.7C20.2276 14.7 19.8843 14.7867 19.5909 14.96C19.3043 15.1333 19.0809 15.4067 18.9209 15.78C18.7609 16.1467 18.6809 16.6233 18.6809 17.21C18.6809 17.6633 18.7276 18.05 18.8209 18.37C18.9209 18.6833 19.0543 18.94 19.2209 19.14C19.3943 19.3333 19.5976 19.4767 19.8309 19.57C20.0709 19.6567 20.3276 19.7 20.6009 19.7C20.9343 19.7 21.2209 19.64 21.4609 19.52C21.7009 19.4 21.8943 19.2167 22.0409 18.97C22.1876 18.7233 22.2776 18.41 22.3109 18.03H20.8909V17.2H23.3909V18.26V20.5H22.5609L22.6909 18.74H22.5309C22.4376 19.16 22.2976 19.51 22.1109 19.79C21.9309 20.07 21.6976 20.28 21.4109 20.42C21.1243 20.56 20.7709 20.63 20.3509 20.63Z" fill="black"/>
</svg>
