<svg width="36" height="36" viewBox="0 0 36 36" fill="none" xmlns="http://www.w3.org/2000/svg">
<path d="M19.3213 10.5248L26.4807 12.4324M17.7866 16.22L21.3663 17.1738M17.9647 26.9496L19.3966 27.3311C23.4465 28.4102 25.4715 28.9497 27.0668 28.0339C28.6621 27.1181 29.2047 25.1045 30.2898 21.0774L31.8245 15.3822C32.9097 11.3551 33.4523 9.34152 32.5312 7.75524C31.6102 6.16896 29.5852 5.62942 25.5353 4.55036L24.1034 4.16886C20.0535 3.0898 18.0285 2.55027 16.4332 3.46611C14.8379 4.38195 14.2953 6.39551 13.2102 10.4226L11.6755 16.1178C10.5903 20.1449 10.0477 22.1585 10.9688 23.7448C11.8898 25.331 13.9148 25.8706 17.9647 26.9496Z" stroke="white" stroke-width="2.25" stroke-linecap="round"/>
<path d="M18 31.4192L16.5715 31.8082C12.531 32.9084 10.5108 33.4585 8.91929 32.5247C7.32775 31.5909 6.78644 29.5379 5.7038 25.4318L4.17273 19.6249C3.09009 15.5188 2.54878 13.4657 3.46765 11.8483C4.2625 10.4492 6 10.5002 8.25 10.5" stroke="white" stroke-width="2.25" stroke-linecap="round"/>
</svg>
