<svg width="70" height="65" viewBox="0 0 70 65" fill="none" xmlns="http://www.w3.org/2000/svg">
<rect width="70" height="64.0244" rx="12.8049" fill="#157B01"/>
<path d="M35.669 24.5134C35.8075 24.1221 35.8828 23.7009 35.8828 23.2622C35.8828 21.1911 34.2039 19.5122 32.1328 19.5122C30.0618 19.5122 28.3828 21.1911 28.3828 23.2622C28.3828 23.7009 28.4582 24.1221 28.5966 24.5134C25.7407 24.5238 24.2165 24.6252 23.2312 25.6106C22.2459 26.5958 22.1445 28.1197 22.134 30.9752C22.5247 30.8372 22.945 30.7622 23.3828 30.7622C25.4539 30.7622 27.1328 32.4411 27.1328 34.5122C27.1328 36.5833 25.4539 38.2622 23.3828 38.2622C22.945 38.2622 22.5247 38.1872 22.134 38.0492C22.1445 40.9047 22.2459 42.4286 23.2312 43.4139C24.2164 44.3991 25.7404 44.5006 28.5958 44.511C28.4579 44.1204 28.3828 43.7001 28.3828 43.2622C28.3828 41.1911 30.0618 39.5122 32.1328 39.5122C34.2039 39.5122 35.8828 41.1911 35.8828 43.2622C35.8828 43.7001 35.8078 44.1204 35.6699 44.511C38.5253 44.5006 40.0492 44.3991 41.0345 43.4139C42.0198 42.4285 42.1212 40.9044 42.1316 38.0484C42.5229 38.1869 42.9441 38.2622 43.3828 38.2622C45.4539 38.2622 47.1328 36.5833 47.1328 34.5122C47.1328 32.4411 45.4539 30.7622 43.3828 30.7622C42.9441 30.7622 42.5229 30.8376 42.1316 30.976C42.1212 28.12 42.0198 26.5959 41.0345 25.6106C40.0491 24.6252 38.525 24.5238 35.669 24.5134Z" stroke="white" stroke-width="1.875" stroke-linejoin="round"/>
</svg>
