<svg width="145" height="39" viewBox="0 0 145 39" fill="none" xmlns="http://www.w3.org/2000/svg">
<rect x="0.5" y="0.5" width="144" height="38" rx="19" fill="white"/>
<rect x="0.5" y="0.5" width="144" height="38" rx="19" stroke="#C2C2C2"/>
<rect x="5.30469" y="4.33984" width="30.3196" height="30.3196" rx="15.1598" fill="#157B01"/>
<path d="M13.1492 20.4187C12.8816 18.6773 12.7478 17.8067 13.077 17.0349C13.4062 16.2631 14.1366 15.735 15.5973 14.6788L16.6887 13.8897C18.5058 12.5759 19.4143 11.9189 20.4627 11.9189C21.5111 11.9189 22.4196 12.5759 24.2368 13.8897L25.3282 14.6788C26.7889 15.735 27.5192 16.2631 27.8484 17.0349C28.1776 17.8067 28.0438 18.6773 27.7763 20.4187L27.5481 21.9035C27.1687 24.3719 26.9791 25.6061 26.0938 26.3425C25.2086 27.0788 23.9144 27.0788 21.3259 27.0788H19.5995C17.0111 27.0788 15.7169 27.0788 14.8316 26.3425C13.9463 25.6061 13.7567 24.3719 13.3773 21.9035L13.1492 20.4187Z" stroke="white" stroke-width="1.13699" stroke-linejoin="round"/>
<path d="M19.8932 20.4462C20.7928 21.3458 21.9777 22.26 21.9777 22.26L23.602 20.6357C23.602 20.6357 22.6878 19.4509 21.7882 18.5513C20.8886 17.6517 19.7037 16.7375 19.7037 16.7375L18.0795 18.3618C18.0795 18.3618 18.9937 19.5467 19.8932 20.4462ZM19.8932 20.4462L17.0508 23.2887M23.8727 20.3651L21.707 22.5307M19.9744 16.4668L17.8088 18.6325" stroke="white" stroke-width="1.13699" stroke-linecap="round" stroke-linejoin="round"/>
<path d="M46.1769 16.6602H47.0047V22.3269H49.2241V23H46.1769V16.6602ZM54.36 23L53.8506 21.5901H51.0855L50.5761 23H49.7029L51.995 16.6965H52.9501L55.2332 23H54.36ZM53.6141 20.917L52.468 17.7153L51.322 20.917H53.6141ZM57.5147 23.0091L55.741 16.6602H56.6233L58.0059 22.0358L59.534 16.6602H60.4618L61.9171 22.0176L63.3088 16.6602H64.2002L62.3628 23H61.435L59.9615 17.8972L58.4334 23L57.5147 23.0091ZM71.7878 23L71.2785 21.5901H68.5133L68.004 23H67.1307L69.4229 16.6965H70.378L72.6611 23H71.7878ZM71.042 20.917L69.8959 17.7153L68.7498 20.917H71.042ZM73.3508 19.8255C73.3508 17.9245 74.7424 16.5783 76.5161 16.5783C77.8896 16.5783 78.9811 17.2696 79.4541 18.4975H78.4627C78.117 17.7335 77.4439 17.306 76.5161 17.306C75.1881 17.306 74.1967 18.2701 74.1967 19.8255C74.1967 21.3718 75.1881 22.336 76.5161 22.336C77.4439 22.336 78.117 21.9085 78.4627 21.1535H79.4541C78.9811 22.3724 77.8896 23.0546 76.5161 23.0546C74.7424 23.0546 73.3508 21.7266 73.3508 19.8255ZM80.377 19.8255C80.377 17.9245 81.7687 16.5783 83.5424 16.5783C84.9158 16.5783 86.0074 17.2696 86.4803 18.4975H85.4889C85.1432 17.7335 84.4701 17.306 83.5424 17.306C82.2144 17.306 81.2229 18.2701 81.2229 19.8255C81.2229 21.3718 82.2144 22.336 83.5424 22.336C84.4701 22.336 85.1432 21.9085 85.4889 21.1535H86.4803C86.0074 22.3724 84.9158 23.0546 83.5424 23.0546C81.7687 23.0546 80.377 21.7266 80.377 19.8255ZM91.1234 16.6511V17.3333H88.5402V19.4526H90.8506V20.1348H88.5402V22.3178H91.1234V23H87.7125V16.6511H91.1234ZM96.5327 16.6511H97.3604V23H96.5327L93.2036 17.9518V23H92.3759V16.6511H93.2036L96.5327 21.6902V16.6511ZM98.3803 17.3333V16.6602H102.674V17.3333H100.945V23H100.118V17.3333H98.3803ZM106.654 19.8255C106.654 21.3718 107.655 22.3451 108.992 22.3451C110.329 22.3451 111.329 21.3718 111.329 19.8255C111.329 18.2701 110.329 17.306 108.992 17.306C107.655 17.306 106.654 18.2701 106.654 19.8255ZM112.175 19.8255C112.175 21.0626 111.584 22.0631 110.674 22.6089L112.275 24.2007H111.202L109.938 22.9363C109.638 23.0182 109.319 23.0637 108.992 23.0637C107.209 23.0637 105.808 21.7266 105.808 19.8255C105.808 17.9245 107.209 16.5874 108.992 16.5874C110.784 16.5874 112.175 17.9245 112.175 19.8255ZM113.268 20.6624V16.6602H114.095V20.6715C114.095 21.8357 114.723 22.336 115.66 22.336C116.597 22.336 117.215 21.8357 117.215 20.6715V16.6602H118.043V20.6624C118.043 22.3087 116.961 23.0637 115.651 23.0637C114.341 23.0637 113.268 22.3087 113.268 20.6624ZM119.424 23V16.6602H120.251V23H119.424ZM125.437 16.6602V17.3151L122.363 22.2814H125.455V23H121.38V22.3451L124.455 17.3787H121.417V16.6602H125.437Z" fill="black"/>
</svg>
