<svg width="113" height="39" viewBox="0 0 113 39" fill="none" xmlns="http://www.w3.org/2000/svg">
<rect x="0.5" y="0.5" width="112" height="38" rx="19" fill="white"/>
<rect x="0.5" y="0.5" width="112" height="38" rx="19" stroke="#C2C2C2"/>
<rect x="5.30566" y="4.34033" width="30.3196" height="30.3196" rx="15.1598" fill="#157B01"/>
<path d="M13.1521 20.4201C12.8845 18.6788 12.7507 17.8082 13.0799 17.0364C13.4091 16.2645 14.1395 15.7365 15.6002 14.6803L16.6916 13.8912C18.5087 12.5773 19.4173 11.9204 20.4657 11.9204C21.514 11.9204 22.4226 12.5773 24.2397 13.8912L25.3311 14.6803C26.7918 15.7365 27.5222 16.2645 27.8514 17.0364C28.1806 17.8082 28.0468 18.6788 27.7792 20.4201L27.551 21.905C27.1717 24.3734 26.982 25.6076 26.0968 26.3439C25.2115 27.0802 23.9173 27.0802 21.3289 27.0802H19.6025C17.014 27.0802 15.7198 27.0802 14.8345 26.3439C13.9493 25.6076 13.7596 24.3734 13.3803 21.905L13.1521 20.4201Z" stroke="white" stroke-width="1.13699" stroke-linejoin="round"/>
<path d="M19.8972 20.4477C20.7967 21.3473 21.9816 22.2615 21.9816 22.2615L23.6059 20.6372C23.6059 20.6372 22.6917 19.4523 21.7921 18.5527C20.8925 17.6531 19.7077 16.739 19.7077 16.739L18.0834 18.3632C18.0834 18.3632 18.9976 19.5481 19.8972 20.4477ZM19.8972 20.4477L17.0547 23.2902M23.8766 20.3665L21.711 22.5322M19.9783 16.4683L17.8127 18.6339" stroke="white" stroke-width="1.13699" stroke-linecap="round" stroke-linejoin="round"/>
<path d="M49.5181 23L48.0081 20.4077H47.0076V23H46.1799V16.6602H48.2265C48.7055 16.6602 49.1088 16.742 49.4362 16.9058C49.7697 17.0695 50.0183 17.2908 50.1821 17.5698C50.3458 17.8487 50.4277 18.1671 50.4277 18.5248C50.4277 18.9614 50.3003 19.3465 50.0456 19.68C49.797 20.0135 49.421 20.2348 48.9177 20.344L50.5095 23H49.5181ZM47.0076 19.7437H48.2265C48.6752 19.7437 49.0117 19.6345 49.2361 19.4162C49.4605 19.1919 49.5726 18.8947 49.5726 18.5248C49.5726 18.1489 49.4605 17.8578 49.2361 17.6516C49.0178 17.4454 48.6812 17.3424 48.2265 17.3424H47.0076V19.7437ZM52.5415 17.3333V19.4526H54.8519V20.1348H52.5415V22.3178H55.1248V23H51.7138V16.6511H55.1248V17.3333H52.5415ZM58.3874 23.0637C57.969 23.0637 57.593 22.9909 57.2595 22.8454C56.9321 22.6938 56.6744 22.4876 56.4864 22.2268C56.2984 21.96 56.2014 21.6538 56.1953 21.3082H57.0776C57.1079 21.6053 57.2292 21.8569 57.4414 22.0631C57.6597 22.2632 57.9751 22.3633 58.3874 22.3633C58.7816 22.3633 59.0908 22.2663 59.3152 22.0722C59.5456 21.8721 59.6608 21.6174 59.6608 21.3082C59.6608 21.0656 59.5941 20.8685 59.4607 20.7169C59.3273 20.5653 59.1606 20.4501 58.9605 20.3713C58.7603 20.2925 58.4905 20.2076 58.1509 20.1166C57.7325 20.0075 57.396 19.8983 57.1413 19.7892C56.8927 19.68 56.6774 19.5102 56.4955 19.2798C56.3196 19.0433 56.2317 18.728 56.2317 18.3338C56.2317 17.9882 56.3196 17.6819 56.4955 17.4151C56.6713 17.1483 56.9169 16.9421 57.2322 16.7966C57.5536 16.6511 57.9205 16.5783 58.3328 16.5783C58.9271 16.5783 59.4122 16.7269 59.7882 17.024C60.1702 17.3211 60.3855 17.7153 60.434 18.2065H59.5244C59.4941 17.9639 59.3667 17.7517 59.1424 17.5698C58.918 17.3818 58.6209 17.2878 58.251 17.2878C57.9053 17.2878 57.6234 17.3787 57.4051 17.5607C57.1868 17.7365 57.0776 17.9851 57.0776 18.3065C57.0776 18.5369 57.1413 18.7249 57.2686 18.8705C57.402 19.016 57.5627 19.1282 57.7507 19.207C57.9447 19.2798 58.2146 19.3647 58.5602 19.4617C58.9786 19.5769 59.3152 19.6921 59.5699 19.8073C59.8246 19.9165 60.0429 20.0893 60.2248 20.3258C60.4067 20.5562 60.4977 20.8716 60.4977 21.2718C60.4977 21.581 60.4158 21.8721 60.2521 22.145C60.0883 22.4179 59.8458 22.6392 59.5244 22.809C59.203 22.9788 58.824 23.0637 58.3874 23.0637ZM64.59 23.0637C64.0018 23.0637 63.4652 22.9272 62.9801 22.6544C62.4949 22.3754 62.1099 21.9904 61.8249 21.4992C61.5459 21.0019 61.4065 20.4441 61.4065 19.8255C61.4065 19.207 61.5459 18.6522 61.8249 18.161C62.1099 17.6637 62.4949 17.2787 62.9801 17.0058C63.4652 16.7269 64.0018 16.5874 64.59 16.5874C65.1843 16.5874 65.724 16.7269 66.2091 17.0058C66.6942 17.2787 67.0762 17.6607 67.3552 18.1519C67.6341 18.6431 67.7736 19.2009 67.7736 19.8255C67.7736 20.4501 67.6341 21.008 67.3552 21.4992C67.0762 21.9904 66.6942 22.3754 66.2091 22.6544C65.724 22.9272 65.1843 23.0637 64.59 23.0637ZM64.59 22.3451C65.0327 22.3451 65.4299 22.242 65.7816 22.0358C66.1394 21.8297 66.4183 21.5356 66.6184 21.1535C66.8246 20.7715 66.9277 20.3288 66.9277 19.8255C66.9277 19.3162 66.8246 18.8735 66.6184 18.4975C66.4183 18.1155 66.1424 17.8214 65.7907 17.6152C65.439 17.4091 65.0388 17.306 64.59 17.306C64.1413 17.306 63.7411 17.4091 63.3894 17.6152C63.0377 17.8214 62.7587 18.1155 62.5525 18.4975C62.3524 18.8735 62.2524 19.3162 62.2524 19.8255C62.2524 20.3288 62.3524 20.7715 62.5525 21.1535C62.7587 21.5356 63.0377 21.8297 63.3894 22.0358C63.7471 22.242 64.1474 22.3451 64.59 22.3451ZM69.6758 16.6602V20.6715C69.6758 21.2354 69.8123 21.6538 70.0852 21.9267C70.3641 22.1996 70.7492 22.336 71.2403 22.336C71.7254 22.336 72.1044 22.1996 72.3773 21.9267C72.6563 21.6538 72.7957 21.2354 72.7957 20.6715V16.6602H73.6235V20.6624C73.6235 21.1899 73.5173 21.6356 73.3051 21.9995C73.0929 22.3572 72.8048 22.624 72.441 22.7999C72.0832 22.9757 71.68 23.0637 71.2312 23.0637C70.7825 23.0637 70.3762 22.9757 70.0124 22.7999C69.6546 22.624 69.3696 22.3572 69.1574 21.9995C68.9512 21.6356 68.8481 21.1899 68.8481 20.6624V16.6602H69.6758ZM78.3424 23L76.8325 20.4077H75.832V23H75.0043V16.6602H77.0508C77.5299 16.6602 77.9331 16.742 78.2606 16.9058C78.5941 17.0695 78.8427 17.2908 79.0064 17.5698C79.1702 17.8487 79.252 18.1671 79.252 18.5248C79.252 18.9614 79.1247 19.3465 78.87 19.68C78.6214 20.0135 78.2454 20.2348 77.7421 20.344L79.3339 23H78.3424ZM75.832 19.7437H77.0508C77.4996 19.7437 77.8361 19.6345 78.0605 19.4162C78.2848 19.1919 78.397 18.8947 78.397 18.5248C78.397 18.1489 78.2848 17.8578 78.0605 17.6516C77.8422 17.4454 77.5056 17.3424 77.0508 17.3424H75.832V19.7437ZM80.2289 19.8255C80.2289 19.207 80.3684 18.6522 80.6473 18.161C80.9263 17.6637 81.3053 17.2757 81.7843 16.9967C82.2694 16.7178 82.8061 16.5783 83.3943 16.5783C84.0856 16.5783 84.6889 16.7451 85.2044 17.0786C85.7198 17.4121 86.0958 17.8851 86.3323 18.4975H85.3408C85.165 18.1155 84.9103 17.8214 84.5768 17.6152C84.2493 17.4091 83.8551 17.306 83.3943 17.306C82.9516 17.306 82.5544 17.4091 82.2027 17.6152C81.851 17.8214 81.5751 18.1155 81.375 18.4975C81.1749 18.8735 81.0748 19.3162 81.0748 19.8255C81.0748 20.3288 81.1749 20.7715 81.375 21.1535C81.5751 21.5295 81.851 21.8206 82.2027 22.0267C82.5544 22.2329 82.9516 22.336 83.3943 22.336C83.8551 22.336 84.2493 22.2359 84.5768 22.0358C84.9103 21.8297 85.165 21.5356 85.3408 21.1535H86.3323C86.0958 21.7599 85.7198 22.2299 85.2044 22.5634C84.6889 22.8908 84.0856 23.0546 83.3943 23.0546C82.8061 23.0546 82.2694 22.9181 81.7843 22.6453C81.3053 22.3663 80.9263 21.9813 80.6473 21.4901C80.3684 20.9989 80.2289 20.4441 80.2289 19.8255ZM88.3921 17.3333V19.4526H90.7025V20.1348H88.3921V22.3178H90.9754V23H87.5644V16.6511H90.9754V17.3333H88.3921ZM94.238 23.0637C93.8196 23.0637 93.4436 22.9909 93.1101 22.8454C92.7827 22.6938 92.525 22.4876 92.337 22.2268C92.149 21.96 92.052 21.6538 92.0459 21.3082H92.9282C92.9585 21.6053 93.0798 21.8569 93.292 22.0631C93.5103 22.2632 93.8257 22.3633 94.238 22.3633C94.6322 22.3633 94.9414 22.2663 95.1658 22.0722C95.3962 21.8721 95.5114 21.6174 95.5114 21.3082C95.5114 21.0656 95.4447 20.8685 95.3113 20.7169C95.1779 20.5653 95.0112 20.4501 94.8111 20.3713C94.6109 20.2925 94.3411 20.2076 94.0015 20.1166C93.5831 20.0075 93.2466 19.8983 92.9919 19.7892C92.7433 19.68 92.528 19.5102 92.3461 19.2798C92.1702 19.0433 92.0823 18.728 92.0823 18.3338C92.0823 17.9882 92.1702 17.6819 92.3461 17.4151C92.5219 17.1483 92.7675 16.9421 93.0828 16.7966C93.4042 16.6511 93.7711 16.5783 94.1834 16.5783C94.7777 16.5783 95.2628 16.7269 95.6388 17.024C96.0208 17.3211 96.2361 17.7153 96.2846 18.2065H95.375C95.3447 17.9639 95.2173 17.7517 94.993 17.5698C94.7686 17.3818 94.4715 17.2878 94.1016 17.2878C93.7559 17.2878 93.474 17.3787 93.2557 17.5607C93.0374 17.7365 92.9282 17.9851 92.9282 18.3065C92.9282 18.5369 92.9919 18.7249 93.1192 18.8705C93.2526 19.016 93.4133 19.1282 93.6013 19.207C93.7953 19.2798 94.0652 19.3647 94.4108 19.4617C94.8292 19.5769 95.1658 19.6921 95.4205 19.8073C95.6752 19.9165 95.8935 20.0893 96.0754 20.3258C96.2573 20.5562 96.3483 20.8716 96.3483 21.2718C96.3483 21.581 96.2664 21.8721 96.1027 22.145C95.9389 22.4179 95.6964 22.6392 95.375 22.809C95.0536 22.9788 94.6746 23.0637 94.238 23.0637Z" fill="black"/>
</svg>
