<svg width="70" height="65" viewBox="0 0 70 65" fill="none" xmlns="http://www.w3.org/2000/svg">
<rect width="70" height="64.0244" rx="12.8049" fill="#157B01"/>
<path d="M34.6342 23.2622V44.5122M34.6342 44.5122H30.8842M34.6342 44.5122H38.3842" stroke="white" stroke-width="1.875" stroke-linecap="round" stroke-linejoin="round"/>
<path d="M45.8842 33.2622L42.7592 27.0122L39.6342 33.2622" stroke="white" stroke-width="1.875" stroke-linecap="round" stroke-linejoin="round"/>
<path d="M29.6342 33.2622L26.5092 27.0122L23.3842 33.2622" stroke="white" stroke-width="1.875" stroke-linecap="round" stroke-linejoin="round"/>
<path d="M24.6342 27.0122H25.9444C27.5237 27.0122 29.056 26.351 30.2893 25.1372C32.8294 22.6372 36.4389 22.6372 38.979 25.1372C40.2123 26.351 41.7446 27.0122 43.3239 27.0122H44.6342" stroke="white" stroke-width="1.875" stroke-linecap="round" stroke-linejoin="round"/>
<path d="M42.7592 38.2622C44.4525 38.2622 45.9272 37.2201 46.6932 35.6808C47.1067 34.85 47.3134 34.4346 46.936 33.8484C46.5587 33.2622 45.9342 33.2622 44.6851 33.2622H40.8332C39.5842 33.2622 38.9596 33.2622 38.5823 33.8484C38.2049 34.4346 38.4116 34.85 38.8251 35.6808C39.5911 37.2201 41.0658 38.2622 42.7592 38.2622Z" stroke="white" stroke-width="1.875"/>
<path d="M26.5092 38.2622C28.2025 38.2622 29.6772 37.2201 30.4432 35.6808C30.8567 34.85 31.0634 34.4346 30.686 33.8484C30.3087 33.2622 29.6842 33.2622 28.4351 33.2622H24.5832C23.3342 33.2622 22.7096 33.2622 22.3323 33.8484C21.9549 34.4346 22.1616 34.85 22.5751 35.6808C23.3411 37.2201 24.8158 38.2622 26.5092 38.2622Z" stroke="white" stroke-width="1.875"/>
<path d="M36.5092 21.3872C36.5092 22.4227 35.6697 23.2622 34.6342 23.2622C33.5986 23.2622 32.7592 22.4227 32.7592 21.3872C32.7592 20.3517 33.5986 19.5122 34.6342 19.5122C35.6697 19.5122 36.5092 20.3517 36.5092 21.3872Z" stroke="white" stroke-width="1.875"/>
</svg>
