<svg width="70" height="65" viewBox="0 0 70 65" fill="none" xmlns="http://www.w3.org/2000/svg">
<rect width="70" height="64.0244" rx="12.8049" fill="#157B01"/>
<path d="M32.5508 31.5015L26.1894 38.9693C25.3357 39.9714 23.8088 40.0323 22.878 39.1015C21.9472 38.1707 22.0082 36.6438 23.0103 35.7902L30.4781 29.4287" stroke="white" stroke-width="1.9375" stroke-linejoin="round"/>
<path d="M42.8842 29.4905L36.4873 35.8874M32.4893 19.0957L26.0925 25.4925M31.6898 19.8953L26.8921 24.6929C26.8921 24.6929 29.291 27.8913 31.6898 30.2901C34.0886 32.6889 37.287 35.0877 37.287 35.0877L42.0846 30.2901C42.0846 30.2901 39.6858 27.0917 37.287 24.6929C34.8882 22.2941 31.6898 19.8953 31.6898 19.8953Z" stroke="white" stroke-width="1.9375" stroke-linecap="round" stroke-linejoin="round"/>
<path d="M34.4308 44.4582C34.171 44.9259 34.3395 45.5157 34.8072 45.7755C35.2749 46.0354 35.8647 45.8669 36.1245 45.3992L34.4308 44.4582ZM36.1468 43.3643L36.9936 43.8348V43.8348L36.1468 43.3643ZM44.4771 45.3992C44.737 45.8669 45.3267 46.0354 45.7944 45.7755C46.2621 45.5157 46.4307 44.9259 46.1708 44.4582L44.4771 45.3992ZM44.4549 43.3643L45.3017 42.8938V42.8938L44.4549 43.3643ZM43.3851 41.7735L44.0185 41.0405L44.0185 41.0405L43.3851 41.7735ZM42.3602 41.2034L42.0645 42.126L42.3602 41.2034ZM37.2166 41.7735L36.5832 41.0405L36.5832 41.0405L37.2166 41.7735ZM38.2415 41.2034L37.9458 40.2809V40.2809L38.2415 41.2034ZM33.8425 43.96C33.3075 43.96 32.8737 44.3937 32.8737 44.9287C32.8737 45.4637 33.3075 45.8975 33.8425 45.8975L33.8425 43.96ZM46.7592 45.8975C47.2942 45.8975 47.7279 45.4637 47.7279 44.9287C47.7279 44.3937 47.2942 43.96 46.7592 43.96V45.8975ZM35.2777 44.9287L36.1245 45.3992L36.9936 43.8348L36.1468 43.3643L35.3 42.8938L34.4308 44.4582L35.2777 44.9287ZM45.324 44.9287L46.1708 44.4582L45.3017 42.8938L44.4549 43.3643L43.608 43.8348L44.4771 45.3992L45.324 44.9287ZM44.4549 43.3643L45.3017 42.8938C44.8613 42.1011 44.5365 41.4881 44.0185 41.0405L43.3851 41.7735L42.7517 42.5065C42.9491 42.677 43.099 42.9186 43.608 43.8348L44.4549 43.3643ZM40.3008 41.0537V42.0225C41.4286 42.0225 41.7763 42.0336 42.0645 42.126L42.3602 41.2034L42.6559 40.2809C42.0099 40.0739 41.296 40.085 40.3008 40.085V41.0537ZM43.3851 41.7735L44.0185 41.0405C43.6231 40.6989 43.1579 40.4418 42.6559 40.2809L42.3602 41.2034L42.0645 42.126C42.3277 42.2103 42.5611 42.3419 42.7517 42.5065L43.3851 41.7735ZM36.1468 43.3643L36.9936 43.8348C37.5026 42.9186 37.6526 42.677 37.8499 42.5065L37.2166 41.7735L36.5832 41.0405C36.0651 41.4881 35.7404 42.101 35.3 42.8938L36.1468 43.3643ZM40.3008 41.0537V40.085C39.3056 40.085 38.5918 40.0739 37.9458 40.2809L38.2415 41.2034L38.5371 42.126C38.8254 42.0336 39.173 42.0225 40.3008 42.0225V41.0537ZM37.2166 41.7735L37.8499 42.5065C38.0405 42.3419 38.2739 42.2103 38.5371 42.126L38.2415 41.2034L37.9458 40.2809C37.4438 40.4418 36.9786 40.6989 36.5832 41.0405L37.2166 41.7735ZM33.8425 44.9287L33.8425 45.8975L46.7592 45.8975V44.9287V43.96L33.8425 43.96L33.8425 44.9287Z" fill="white"/>
<path d="M45.4675 31.5423L48.0508 29.4287M45.4675 35.7696L48.0508 37.1787" stroke="white" stroke-width="1.9375" stroke-linecap="round" stroke-linejoin="round"/>
</svg>
