<svg width="36" height="36" viewBox="0 0 36 36" fill="none" xmlns="http://www.w3.org/2000/svg">
<path d="M28.4858 28.5H28.5M28.4858 28.5C27.5517 29.4262 25.859 29.1955 24.6719 29.1955C23.2148 29.1955 22.5131 29.4806 21.4731 30.5205C20.5876 31.4061 19.4006 33 18 33C16.5994 33 15.4124 31.4061 14.5269 30.5205C13.4869 29.4806 12.7852 29.1955 11.3281 29.1955C10.141 29.1955 8.44828 29.4262 7.51424 28.5C6.57271 27.5664 6.80442 25.8666 6.80442 24.6719C6.80442 23.1621 6.47423 22.4679 5.39907 21.3928C3.79971 19.7934 3.00002 18.9937 3 18C3.00001 17.0063 3.79969 16.2066 5.39903 14.6073C6.3588 13.6475 6.80442 12.6964 6.80442 11.3281C6.80442 10.141 6.57374 8.44821 7.5 7.51417C8.43364 6.57268 10.1334 6.80439 11.3281 6.80439C12.6964 6.80439 13.6475 6.35881 14.6072 5.39905C16.2066 3.79968 17.0063 3 18 3C18.9937 3 19.7934 3.79968 21.3928 5.39905C22.3523 6.3586 23.3032 6.80439 24.6719 6.80439C25.859 6.80439 27.5518 6.5737 28.4858 7.5C29.4273 8.43365 29.1956 10.1334 29.1956 11.3281C29.1956 12.8379 29.5258 13.5321 30.601 14.6072C32.2003 16.2066 33 17.0063 33 18C33 18.9937 32.2003 19.7934 30.6009 21.3928C29.5257 22.4679 29.1956 23.1621 29.1956 24.6719C29.1956 25.8666 29.4273 27.5664 28.4858 28.5Z" stroke="white" stroke-width="2.25"/>
<path d="M13.5 19.3393C13.5 19.3393 15.3 20.317 16.2 21.75C16.2 21.75 18.9 16.125 22.5 14.25" stroke="white" stroke-width="2.25" stroke-linecap="round" stroke-linejoin="round"/>
</svg>
