<svg width="218" height="39" viewBox="0 0 218 39" fill="none" xmlns="http://www.w3.org/2000/svg">
<rect x="0.5" y="0.5" width="217" height="38" rx="19" fill="white"/>
<rect x="0.5" y="0.5" width="217" height="38" rx="19" stroke="#C2C2C2"/>
<rect x="5.30664" y="4.33984" width="30.3196" height="30.3196" rx="15.1598" fill="#157B01"/>
<path d="M13.1531 20.4187C12.8855 18.6773 12.7517 17.8067 13.0809 17.0349C13.4101 16.2631 14.1405 15.735 15.6012 14.6788L16.6926 13.8897C18.5097 12.5759 19.4183 11.9189 20.4666 11.9189C21.515 11.9189 22.4235 12.5759 24.2407 13.8897L25.3321 14.6788C26.7928 15.735 27.5231 16.2631 27.8523 17.0349C28.1815 17.8067 28.0477 18.6773 27.7802 20.4187L27.552 21.9035C27.1726 24.3719 26.983 25.6061 26.0977 26.3425C25.2125 27.0788 23.9183 27.0788 21.3298 27.0788H19.6034C17.015 27.0788 15.7208 27.0788 14.8355 26.3425C13.9502 25.6061 13.7606 24.3719 13.3813 21.9035L13.1531 20.4187Z" stroke="white" stroke-width="1.13699" stroke-linejoin="round"/>
<path d="M19.8991 20.4462C20.7987 21.3458 21.9836 22.26 21.9836 22.26L23.6079 20.6357C23.6079 20.6357 22.6937 19.4509 21.7941 18.5513C20.8945 17.6517 19.7096 16.7375 19.7096 16.7375L18.0853 18.3618C18.0853 18.3618 18.9995 19.5467 19.8991 20.4462ZM19.8991 20.4462L17.0566 23.2887M23.8786 20.3651L21.7129 22.5307M19.9803 16.4668L17.8146 18.6325" stroke="white" stroke-width="1.13699" stroke-linecap="round" stroke-linejoin="round"/>
<path d="M45.8716 19.8255C45.8716 17.9245 47.2633 16.5783 49.037 16.5783C50.4104 16.5783 51.5019 17.2696 51.9749 18.4975H50.9835C50.6378 17.7335 49.9647 17.306 49.037 17.306C47.709 17.306 46.7175 18.2701 46.7175 19.8255C46.7175 21.3718 47.709 22.336 49.037 22.336C49.9647 22.336 50.6378 21.9085 50.9835 21.1535H51.9749C51.5019 22.3724 50.4104 23.0546 49.037 23.0546C47.2633 23.0546 45.8716 21.7266 45.8716 19.8255ZM59.2649 19.8255C59.2649 21.7266 57.8733 23.0637 56.0814 23.0637C54.2986 23.0637 52.8978 21.7266 52.8978 19.8255C52.8978 17.9245 54.2986 16.5874 56.0814 16.5874C57.8733 16.5874 59.2649 17.9245 59.2649 19.8255ZM53.7437 19.8255C53.7437 21.3718 54.7443 22.3451 56.0814 22.3451C57.4185 22.3451 58.419 21.3718 58.419 19.8255C58.419 18.2701 57.4185 17.306 56.0814 17.306C54.7443 17.306 53.7437 18.2701 53.7437 19.8255ZM63.7504 18.5248C63.7504 17.8062 63.3502 17.3424 62.4042 17.3424H61.1854V19.7437H62.4042C63.3411 19.7437 63.7504 19.2343 63.7504 18.5248ZM60.3577 16.6602H62.4042C63.896 16.6602 64.6054 17.4879 64.6054 18.5248C64.6054 19.3344 64.1597 20.1075 63.0955 20.344L64.6873 23H63.6958L62.1859 20.4077H61.1854V23H60.3577V16.6602ZM66.7193 19.6709H67.9381C68.8841 19.6709 69.2843 19.2252 69.2843 18.5157C69.2843 17.779 68.8841 17.3424 67.9381 17.3424H66.7193V19.6709ZM70.1303 18.5157C70.1303 19.4799 69.5117 20.3531 67.9381 20.3531H66.7193V23H65.8916V16.6602H67.9381C69.4299 16.6602 70.1303 17.4788 70.1303 18.5157ZM77.2169 19.8255C77.2169 21.7266 75.8252 23.0637 74.0333 23.0637C72.2505 23.0637 70.8498 21.7266 70.8498 19.8255C70.8498 17.9245 72.2505 16.5874 74.0333 16.5874C75.8252 16.5874 77.2169 17.9245 77.2169 19.8255ZM71.6957 19.8255C71.6957 21.3718 72.6962 22.3451 74.0333 22.3451C75.3704 22.3451 76.371 21.3718 76.371 19.8255C76.371 18.2701 75.3704 17.306 74.0333 17.306C72.6962 17.306 71.6957 18.2701 71.6957 19.8255ZM81.7024 18.5248C81.7024 17.8062 81.3021 17.3424 80.3562 17.3424H79.1373V19.7437H80.3562C81.2931 19.7437 81.7024 19.2343 81.7024 18.5248ZM78.3096 16.6602H80.3562C81.8479 16.6602 82.5574 17.4879 82.5574 18.5248C82.5574 19.3344 82.1117 20.1075 81.0475 20.344L82.6392 23H81.6478L80.1379 20.4077H79.1373V23H78.3096V16.6602ZM88.1004 23L87.591 21.5901H84.8259L84.3165 23H83.4433L85.7355 16.6965H86.6905L88.9736 23H88.1004ZM87.3545 20.917L86.2085 17.7153L85.0624 20.917H87.3545ZM89.5815 17.3333V16.6602H93.8747V17.3333H92.1465V23H91.3188V17.3333H89.5815ZM98.3046 16.6511V17.3333H95.7213V19.4526H98.0317V20.1348H95.7213V22.3178H98.3046V23H94.8936V16.6511H98.3046ZM106.102 21.2718C106.102 22.1723 105.366 23.0637 103.992 23.0637C102.719 23.0637 101.818 22.3542 101.8 21.3082H102.682C102.737 21.8357 103.11 22.3633 103.992 22.3633C104.793 22.3633 105.266 21.9085 105.266 21.3082C105.266 19.5981 101.836 20.6896 101.836 18.3338C101.836 17.2878 102.682 16.5783 103.938 16.5783C105.147 16.5783 105.939 17.2423 106.039 18.2065H105.129C105.075 17.779 104.674 17.2969 103.901 17.2878C103.219 17.2696 102.682 17.6243 102.682 18.3065C102.682 19.9438 106.102 18.925 106.102 21.2718ZM113.378 19.8255C113.378 21.7266 111.987 23.0637 110.195 23.0637C108.412 23.0637 107.011 21.7266 107.011 19.8255C107.011 17.9245 108.412 16.5874 110.195 16.5874C111.987 16.5874 113.378 17.9245 113.378 19.8255ZM107.857 19.8255C107.857 21.3718 108.858 22.3451 110.195 22.3451C111.532 22.3451 112.532 21.3718 112.532 19.8255C112.532 18.2701 111.532 17.306 110.195 17.306C108.858 17.306 107.857 18.2701 107.857 19.8255ZM114.162 19.8255C114.162 17.9245 115.554 16.5783 117.327 16.5783C118.701 16.5783 119.792 17.2696 120.265 18.4975H119.274C118.928 17.7335 118.255 17.306 117.327 17.306C115.999 17.306 115.008 18.2701 115.008 19.8255C115.008 21.3718 115.999 22.336 117.327 22.336C118.255 22.336 118.928 21.9085 119.274 21.1535H120.265C119.792 22.3724 118.701 23.0546 117.327 23.0546C115.554 23.0546 114.162 21.7266 114.162 19.8255ZM121.497 23V16.6602H122.325V23H121.497ZM127.993 23L127.483 21.5901H124.718L124.209 23H123.336L125.628 16.6965H126.583L128.866 23H127.993ZM127.247 20.917L126.101 17.7153L124.955 20.917H127.247ZM129.865 16.6602H130.693V22.3269H132.912V23H129.865V16.6602ZM139.609 18.5248C139.609 17.8062 139.208 17.3424 138.263 17.3424H137.044V19.7437H138.263C139.199 19.7437 139.609 19.2343 139.609 18.5248ZM136.216 16.6602H138.263C139.754 16.6602 140.464 17.4879 140.464 18.5248C140.464 19.3344 140.018 20.1075 138.954 20.344L140.546 23H139.554L138.044 20.4077H137.044V23H136.216V16.6602ZM145.161 16.6511V17.3333H142.578V19.4526H144.888V20.1348H142.578V22.3178H145.161V23H141.75V16.6511H145.161ZM150.534 21.2718C150.534 22.1723 149.797 23.0637 148.423 23.0637C147.15 23.0637 146.25 22.3542 146.231 21.3082H147.114C147.168 21.8357 147.541 22.3633 148.423 22.3633C149.224 22.3633 149.697 21.9085 149.697 21.3082C149.697 19.5981 146.268 20.6896 146.268 18.3338C146.268 17.2878 147.114 16.5783 148.369 16.5783C149.579 16.5783 150.37 17.2423 150.47 18.2065H149.56C149.506 17.779 149.106 17.2969 148.333 17.2878C147.65 17.2696 147.114 17.6243 147.114 18.3065C147.114 19.9438 150.534 18.925 150.534 21.2718ZM152.58 19.6709H153.798C154.744 19.6709 155.145 19.2252 155.145 18.5157C155.145 17.779 154.744 17.3424 153.798 17.3424H152.58V19.6709ZM155.99 18.5157C155.99 19.4799 155.372 20.3531 153.798 20.3531H152.58V23H151.752V16.6602H153.798C155.29 16.6602 155.99 17.4788 155.99 18.5157ZM163.077 19.8255C163.077 21.7266 161.685 23.0637 159.894 23.0637C158.111 23.0637 156.71 21.7266 156.71 19.8255C156.71 17.9245 158.111 16.5874 159.894 16.5874C161.685 16.5874 163.077 17.9245 163.077 19.8255ZM157.556 19.8255C157.556 21.3718 158.556 22.3451 159.894 22.3451C161.231 22.3451 162.231 21.3718 162.231 19.8255C162.231 18.2701 161.231 17.306 159.894 17.306C158.556 17.306 157.556 18.2701 157.556 19.8255ZM168.327 16.6511H169.154V23H168.327L164.998 17.9518V23H164.17V16.6511H164.998L168.327 21.6902V16.6511ZM174.686 21.2718C174.686 22.1723 173.949 23.0637 172.576 23.0637C171.302 23.0637 170.402 22.3542 170.383 21.3082H171.266C171.32 21.8357 171.693 22.3633 172.576 22.3633C173.376 22.3633 173.849 21.9085 173.849 21.3082C173.849 19.5981 170.42 20.6896 170.42 18.3338C170.42 17.2878 171.266 16.5783 172.521 16.5783C173.731 16.5783 174.522 17.2423 174.622 18.2065H173.713C173.658 17.779 173.258 17.2969 172.485 17.2878C171.802 17.2696 171.266 17.6243 171.266 18.3065C171.266 19.9438 174.686 18.925 174.686 21.2718ZM175.904 23V16.6602H176.732V23H175.904ZM181.744 21.2172C181.744 20.5168 181.217 20.0802 180.407 20.0802H178.97V22.3178H180.434C181.253 22.3178 181.744 21.9085 181.744 21.2172ZM181.581 18.3702C181.581 17.7426 181.153 17.3424 180.344 17.3424H178.97V19.398H180.362C181.135 19.398 181.581 19.016 181.581 18.3702ZM182.572 21.2991C182.572 22.2541 181.817 23 180.507 23H178.142V16.6602H180.416C181.753 16.6602 182.426 17.3878 182.426 18.2701C182.426 19.0706 181.926 19.5345 181.317 19.7346C182.008 19.8528 182.572 20.5168 182.572 21.2991ZM183.721 23V16.6602H184.548V23H183.721ZM185.959 16.6602H186.787V22.3269H189.006V23H185.959V16.6602ZM189.885 23V16.6602H190.713V23H189.885ZM191.733 17.3333V16.6602H196.026V17.3333H194.298V23H193.47V17.3333H191.733ZM198.591 20.6078L196.517 16.6602H197.436L199 19.871L200.565 16.6602H201.484L199.419 20.6078V23H198.591V20.6078Z" fill="black"/>
</svg>
