<svg width="32" height="32" viewBox="0 0 32 32" fill="none" xmlns="http://www.w3.org/2000/svg">
<circle cx="15.9974" cy="15.9993" r="13.3333" stroke="white" stroke-width="2"/>
<path d="M16.9961 9.33301C16.9961 8.78072 16.5484 8.33301 15.9961 8.33301C15.4438 8.33301 14.9961 8.78072 14.9961 9.33301H16.9961ZM18.7032 17.2926C18.3127 16.902 17.6795 16.902 17.289 17.2926C16.8985 17.6831 16.8985 18.3163 17.289 18.7068L18.7032 17.2926ZM19.289 20.7068C19.6795 21.0973 20.3127 21.0973 20.7032 20.7068C21.0937 20.3163 21.0937 19.6831 20.7032 19.2926L19.289 20.7068ZM15.9961 9.33301H14.9961V13.9997H15.9961H16.9961V9.33301H15.9961ZM17.9961 17.9997L17.289 18.7068L19.289 20.7068L19.9961 19.9997L20.7032 19.2926L18.7032 17.2926L17.9961 17.9997ZM17.9961 15.9997H16.9961C16.9961 16.552 16.5484 16.9997 15.9961 16.9997V17.9997V18.9997C17.6529 18.9997 18.9961 17.6565 18.9961 15.9997H17.9961ZM15.9961 17.9997V16.9997C15.4438 16.9997 14.9961 16.552 14.9961 15.9997H13.9961H12.9961C12.9961 17.6565 14.3392 18.9997 15.9961 18.9997V17.9997ZM13.9961 15.9997H14.9961C14.9961 15.4474 15.4438 14.9997 15.9961 14.9997V13.9997V12.9997C14.3392 12.9997 12.9961 14.3428 12.9961 15.9997H13.9961ZM15.9961 13.9997V14.9997C16.5484 14.9997 16.9961 15.4474 16.9961 15.9997H17.9961H18.9961C18.9961 14.3428 17.6529 12.9997 15.9961 12.9997V13.9997Z" fill="white"/>
</svg>
